<?xml version="1.0"?>

<!DOCTYPE svg PUBLIC '-//W3C//DTD SVG 1.0//EN' 'http://www.w3.org/TR/2001/REC-SVG-20010904/DTD/svg10.dtd'>
<svg fill-opacity="1" xmlns:xlink="http://www.w3.org/1999/xlink" color-rendering="auto" color-interpolation="auto" stroke="black" text-rendering="auto" stroke-linecap="square" stroke-miterlimit="10" stroke-opacity="1" shape-rendering="auto" fill="black" stroke-dasharray="none" font-weight="normal" stroke-width="1" xmlns="http://www.w3.org/2000/svg" font-family="&apos;Dialog&apos;" font-style="normal" stroke-linejoin="miter" font-size="12" stroke-dashoffset="0" image-rendering="auto">
  <!--Unicode Character 'BOOK' (U+1F56E)-->
  <defs id="genericDefs" />
  <g>
    <g>
      <path d="M326.25 291.5156 L202.7812 282.2344 Q189 289.6875 177.0469 289.6875 Q164.9531 289.6875 148.6406 282.2344 L24.3281 291.5156 L24.3281 96.0469 L50.625 94.5 L60.75 74.6719 Q93.9375 65.9531 119.9531 65.9531 Q140.0625 65.9531 151.875 70.4531 Q167.2031 76.2188 175.2188 91.4062 Q187.7344 65.9531 231.8906 65.9531 Q255.6562 65.9531 289.125 74.6719 L298.6875 92.9531 L326.25 94.5 L326.25 291.5156 ZM301.9219 258.4688 L301.9219 114.0469 L288 87.75 L288 232.3125 L301.9219 258.4688 ZM281.1094 231.6094 L281.1094 79.5938 Q250.1719 72.8438 228.7969 72.8438 Q202.9219 72.8438 189.4219 83.5312 Q178.7344 91.9688 178.7344 112.3594 L178.7344 243.5625 Q189.1406 232.5938 201.9375 228.6562 Q211.9219 225.5625 229.6406 225.5625 Q255.7969 225.5625 281.1094 231.6094 ZM297.7031 265.5 L284.2031 239.3438 Q252.2812 232.4531 228.375 232.4531 Q178.7344 232.4531 178.7344 265.5 Q189.1406 263.8125 194.625 257.2031 L297.7031 265.5 ZM319.2188 284.0625 L319.2188 100.6875 L301.9219 99.7031 L308.8125 111.0938 L308.8125 272.5312 L196.1719 265.5 Q188.0156 272.3906 175.3594 272.3906 Q162.8438 272.3906 154.8281 265.5 L41.625 272.5312 L41.625 111.0938 L46.8281 101.1094 L31.2188 101.9531 L31.2188 284.0625 L150.8906 275.2031 Q164.9531 282.7969 176.9062 282.7969 Q188.0156 282.7969 200.6719 275.2031 L319.2188 284.0625 ZM171.8438 243 L171.8438 112.0781 Q171.8438 72.8438 122.7656 72.8438 Q97.5938 72.8438 69.4688 79.875 L69.4688 231.3281 Q101.25 225.5625 119.8125 225.5625 Q155.9531 225.5625 171.8438 243 ZM62.4375 232.3125 L62.4375 87.1875 L48.6562 112.5 L48.6562 259.1719 L62.4375 232.3125 ZM171.8438 265.5 Q169.5938 245.8125 154.6875 238.2188 Q143.4375 232.4531 121.2188 232.4531 Q97.875 232.4531 67.5 238.9219 L54 265.5 L156.7969 257.3438 Q161.2969 263.1094 171.8438 265.5 Z" stroke="none" />
    </g>
  </g>
</svg>
