<?xml version="1.0" standalone="no"?>
<!DOCTYPE svg PUBLIC "-//W3C//DTD SVG 1.1//EN" "http://www.w3.org/Graphics/SVG/1.1/DTD/svg11.dtd" >
<svg xmlns="http://www.w3.org/2000/svg">
<metadata></metadata>
<defs>
<font id="skolar_sutta_web_scregular" horiz-adv-x="0" >
<font-face units-per-em="1000" ascent="741" descent="-259" />
<missing-glyph horiz-adv-x="209" />
<glyph unicode="&#xd;" />
<glyph unicode=" "  horiz-adv-x="209" />
<glyph unicode="&#x09;" horiz-adv-x="209" />
<glyph unicode="&#xa0;" horiz-adv-x="209" />
<glyph unicode="!" horiz-adv-x="299" d="M179 176q-17 -5 -29 -5t-24 5q-14 123 -20.5 222.5t-6.5 171.5q0 26 1 51.5t3 44.5q24 6 48 6q23 0 49 -6q2 -17 2.5 -42t0.5 -51q0 -72 -6.5 -172t-17.5 -225zM88 47q0 24 18 40.5t44 16.5t43.5 -16.5t17.5 -40.5t-17.5 -42.5t-43.5 -18.5t-44 18.5t-18 42.5z" />
<glyph unicode="&#x22;" horiz-adv-x="354" d="M114 532q-22 -7 -43 -4q-11 61 -18 125t-9 118q37 13 84 10l8 -8q-2 -57 -7.5 -121.5t-14.5 -119.5zM277 532q-22 -7 -43 -4q-11 61 -18 125t-9 118q37 13 84 10l8 -8q-2 -57 -7.5 -121.5t-14.5 -119.5z" />
<glyph unicode="#" horiz-adv-x="611" d="M454 305l-24 -137h100q2 -14 2 -32t-2 -32h-111l-20 -112q-14 0 -33 3t-33 8l18 101h-134l-20 -112q-14 0 -33 3t-33 8l18 101h-102q-3 14 -3 32t3 32h113l24 137h-102q-3 14 -3 32t3 32h113l20 110q15 0 33.5 -3.5t32.5 -8.5l-17 -98h133l20 110q15 0 33.5 -3.5 t32.5 -8.5l-17 -98h98q3 -14 3 -32.5t-3 -31.5h-110zM228 168h134l24 137h-134z" />
<glyph unicode="$" horiz-adv-x="453" d="M56 33q2 36 7 67.5t13 62.5q14 4 26.5 3t25.5 -6q2 -20 4 -41.5t7 -44.5q32 -10 74 -13v168l-13 5q-21 7 -44.5 17.5t-42.5 25.5t-31.5 35t-12.5 47q0 32 12.5 56t33.5 40t47.5 25.5t54.5 12.5v69q12 5 24.5 4.5t26.5 -4.5v-67q34 -2 72.5 -9t70.5 -18q-1 -34 -5 -61.5 t-11 -53.5q-31 -7 -52 3q-2 18 -4.5 35.5t-7.5 34.5q-31 7 -63 8v-142l33 -11q22 -8 43.5 -18.5t38.5 -25.5t27.5 -34t10.5 -44q0 -30 -11 -57.5t-31 -48.5t-49 -34.5t-66 -17.5v-68q-29 -6 -51 0v67q-47 2 -88 10.5t-69 22.5zM334 140q0 24 -21.5 42t-48.5 29v-148 q18 3 30.5 7.5t14.5 6.5q25 21 25 63zM154 378q0 -25 19.5 -41t43.5 -27v123q-17 -2 -28 -4t-13 -4q-10 -8 -16 -19t-6 -28z" />
<glyph unicode="%" horiz-adv-x="644" d="M152 455q-8 0 -16 -2t-10 -5q-7 -8 -15 -23.5t-8 -40.5q0 -38 14.5 -65t42.5 -27q9 0 17 2.5t10 4.5q8 8 15.5 24t7.5 41q0 38 -14.5 64.5t-43.5 26.5zM151 242q-30 0 -53 10.5t-38 28t-22.5 40.5t-7.5 48t9 49t26.5 43.5t42 31.5t54.5 12t53 -10.5t38 -28t22.5 -40.5 t7.5 -48q0 -24 -9 -48.5t-26.5 -44t-42 -31.5t-54.5 -12zM476 546q18 -4 30 -12.5t21 -20.5l-357 -563q-16 5 -28.5 12t-22.5 20zM483 203q-8 0 -16 -2t-10 -5q-7 -8 -15 -23.5t-8 -40.5q0 -38 14.5 -65t42.5 -27q9 0 17 2.5t10 4.5q8 8 15.5 24t7.5 41q0 38 -14.5 64.5 t-43.5 26.5zM482 -10q-30 0 -53 10.5t-38 28t-22.5 40.5t-7.5 48t9 49t26.5 43.5t42 31.5t54.5 12t53 -10.5t38 -28t22.5 -40.5t7.5 -48q0 -24 -9 -48.5t-26.5 -44t-42 -31.5t-54.5 -12z" />
<glyph unicode="&#x26;" horiz-adv-x="737" d="M651 345q-15 -55 -46.5 -115.5t-88.5 -120.5q37 -27 65 -38.5t44 -11.5q17 0 39 3.5t48 12.5q10 -8 13.5 -17.5t4.5 -20.5q-31 -19 -66 -33t-62 -14q-36 0 -72.5 15t-83.5 49q-49 -35 -98 -53.5t-109 -18.5q-50 0 -89.5 14t-66.5 38t-41.5 56t-14.5 68q0 61 32 114 t109 94q-23 38 -35.5 73.5t-12.5 63.5q0 48 15.5 82.5t40 57.5t56 34t63.5 11q60 0 99.5 -36t39.5 -99q0 -23 -8 -47.5t-27 -49.5t-49 -49.5t-74 -46.5q22 -31 47 -61t51 -57.5t51 -52t46 -43.5q25 27 43 53.5t30 51.5t20 49t13 46q-17 5 -40.5 10t-46.5 7q0 12 2 24.5 t6 20.5q31 0 62.5 -1t60.5 -1h21.5t27.5 0.5t27.5 1t22.5 0.5q3 -7 4.5 -20.5t1.5 -24.5q-14 -6 -34.5 -11t-40.5 -7zM400 91q-52 44 -106.5 105t-97.5 124q-43 -29 -62.5 -61.5t-19.5 -67.5q0 -26 11 -50.5t32 -44t51 -31t69 -11.5q27 0 59 9t64 28zM203 533 q0 -29 12.5 -62.5t33.5 -68.5q55 33 76.5 68t21.5 58q0 36 -20 62t-52 26q-17 0 -32 -5t-20 -10q-7 -7 -13.5 -24.5t-6.5 -43.5z" />
<glyph unicode="'" horiz-adv-x="189" d="M114 532q-22 -7 -43 -4q-11 61 -18 125t-9 118q37 13 84 10l8 -8q-2 -57 -7.5 -121.5t-14.5 -119.5z" />
<glyph unicode="(" horiz-adv-x="349" d="M104 322q0 66 10 131t32 131.5t57.5 135t85.5 140.5q15 -4 27.5 -12.5t17.5 -19.5q-40 -72 -66.5 -138.5t-42.5 -129t-23 -122t-7 -116.5q0 -54 7 -113t23 -122.5t42.5 -131t66.5 -139.5q-5 -12 -17.5 -21t-27.5 -13q-50 72 -85.5 141t-57.5 136t-32 132.5t-10 130.5z " />
<glyph unicode=")" horiz-adv-x="349" d="M245 322q0 -130 -42.5 -263t-142.5 -277q-15 4 -27.5 13t-17.5 21q79 143 109 270.5t30 235.5q0 57 -7 116.5t-23 122t-42.5 129t-66.5 138.5q5 11 17.5 19.5t27.5 12.5q100 -144 142.5 -275.5t42.5 -262.5z" />
<glyph unicode="*" horiz-adv-x="378" d="M183 567q-6 -11 -15.5 -26t-21 -31.5t-24.5 -32.5t-26 -28q-33 18 -50 53q12 13 27.5 25.5t32 23t31.5 19.5t25 16q-12 0 -30 0.5t-38 2t-40 5t-37 8.5q0 39 22 70q16 -4 34.5 -11.5t36 -16.5t32.5 -17.5t26 -13.5q-6 10 -14 26t-16.5 34t-16 37.5t-11.5 36.5 q32 19 71 16q6 -17 8.5 -36.5t3.5 -39t1 -37t1 -29.5q6 10 15.5 25.5t21.5 32t25 32.5t26 28q31 -18 49 -53q-12 -13 -28 -25.5t-32.5 -23.5t-31.5 -20t-25 -16h30t38.5 -2t41 -5t37.5 -9q0 -36 -22 -69q-17 3 -35.5 11t-36 17t-33.5 17.5t-27 13.5q7 -11 15.5 -26.5 t17.5 -34t16 -37.5t11 -37q-33 -19 -70 -16q-6 16 -9 36t-4 39.5t-1 37.5t-1 30z" />
<glyph unicode="+" horiz-adv-x="560" d="M313 225v-173q-17 -4 -33 -3.5t-33 3.5v173h-173q-4 17 -3.5 33t3.5 33h173v173q34 7 66 0v-173h173q7 -34 0 -66h-173z" />
<glyph unicode="," horiz-adv-x="270" d="M67 54q3 31 22.5 49.5t43.5 18.5q35 0 54.5 -20.5t19.5 -54.5q0 -27 -12.5 -56.5t-32.5 -56t-45.5 -48t-50.5 -33.5q-11 4 -17.5 11.5t-7.5 18.5q12 12 23.5 26.5t21 30.5t15 32t5.5 31q0 17 -9 30.5t-30 20.5z" />
<glyph unicode="-" horiz-adv-x="380" d="M65 210q-9 32 1 67l249 5q5 -17 5 -34t-5 -34z" />
<glyph unicode="." horiz-adv-x="270" d="M66 54q0 28 20 46t49 18t49 -18t20 -46q0 -29 -20 -48.5t-49 -19.5t-49 19.5t-20 48.5z" />
<glyph unicode="/" horiz-adv-x="424" d="M115 -103q-45 5 -71 26l269 780q33 -3 71 -24z" />
<glyph unicode="0" horiz-adv-x="554" d="M265 443q-19 0 -38 -6.5t-25 -12.5q-17 -18 -34 -56t-17 -98q0 -45 9 -84.5t26.5 -69t43.5 -47t59 -17.5q20 0 39 6.5t24 12.5q17 18 34 56t17 98q0 45 -9 84.5t-26.5 69t-43.5 47t-59 17.5zM271 -14q-52 0 -91 21t-65.5 55.5t-39.5 80t-13 95.5q0 48 15 96.5t43.5 87.5 t70 63t93.5 24t91 -21t65 -55.5t39 -80.5t13 -95q0 -48 -15 -96.5t-43.5 -87.5t-69.5 -63t-93 -24z" />
<glyph unicode="1" horiz-adv-x="364" d="M142 58q2 11 3 23t1 24v322h-83q-5 8 -7.5 18t-0.5 22q36 15 76.5 25t91.5 15l8 -8v-378q0 -33 3 -63q44 -3 84 -14q1 -22 -5 -45q-11 1 -26.5 1.5t-32.5 0.5h-34.5h-31.5q-35 0 -65.5 -1t-61.5 -1q-8 20 -8 45q23 2 44.5 5.5t44.5 8.5z" />
<glyph unicode="2" horiz-adv-x="487" d="M230 506q36 0 67 -10.5t53 -29t34.5 -43.5t12.5 -53q0 -37 -16.5 -71.5t-43.5 -66t-61.5 -60t-71.5 -54.5l-67 -47h211q8 23 15.5 45.5t14.5 46.5q14 2 27 1t27 -5q0 -38 -2 -74t-7 -78l-8 -8q-20 1 -45.5 1.5t-53.5 0.5h-55h-50h-154q-12 31 -11 75q56 39 103.5 75 t82.5 69t55 64t20 59q0 42 -27.5 69.5t-75.5 27.5q-15 0 -31 -1.5t-30 -4.5q-6 -24 -8.5 -50.5t-3.5 -52.5q-14 -3 -28 -4t-28 4q-8 32 -12 64.5t-4 72.5q80 38 171 38z" />
<glyph unicode="3" horiz-adv-x="475" d="M388 395q0 -37 -22 -67.5t-67 -49.5q60 -13 87 -46.5t27 -75.5q0 -32 -17.5 -62t-47 -53.5t-67.5 -37.5t-78 -14q-37 0 -72 7t-70 19q1 39 3.5 73t7.5 66q13 5 25.5 5.5t26.5 -1.5q4 -25 8.5 -49t11.5 -48q14 -3 31.5 -4.5t36.5 -1.5q27 0 50 6.5t30 11.5 q17 14 23.5 33.5t6.5 39.5q0 18 -8 33t-22 25.5t-32 16.5t-39 6q-11 0 -19 -0.5t-15 -1.5l-9 7q-1 16 1 30t8 30q27 0 48 8t35 19.5t21.5 25.5t7.5 28q0 27 -23.5 47t-65.5 20q-16 0 -32 -1.5t-30 -3.5q-5 -22 -7.5 -44.5t-3.5 -45.5q-14 -3 -27.5 -4t-28.5 4 q-8 29 -12 58.5t-5 64.5q82 38 173 38q32 0 59.5 -9t48 -24.5t32 -35.5t11.5 -42z" />
<glyph unicode="4" horiz-adv-x="498" d="M268 58q4 19 4 45v29h-218q-13 27 -13 64l239 304q36 0 74 -15v-293l101 -6q3 -15 2 -27.5t-5 -26.5h-98v-13q0 -16 1 -31.5t3 -29.5q19 -2 35.5 -5.5t31.5 -8.5q1 -12 -0.5 -23t-4.5 -22q-10 1 -23.5 1.5t-28.5 0.5h-29.5h-26.5q-35 0 -65.5 -1t-62.5 -1q-8 20 -8 45 q23 2 46 5.5t46 8.5zM271 415l-26 -60l-137 -165h164v225h-1z" />
<glyph unicode="5" horiz-adv-x="483" d="M226 253q-32 0 -61 -5t-58 -13l-8 8v243l8 8h101q45 0 90 0.5t90 1.5l8 -8q-1 -31 -9 -55h-205v-121q32 7 66 7q38 0 69.5 -10.5t54 -29.5t34.5 -44t12 -54q0 -38 -16 -73t-44 -61.5t-65.5 -42t-80.5 -15.5q-37 0 -71 6.5t-69 19.5q1 37 3 69t7 62q13 5 26 5.5t27 -1.5 q3 -23 7.5 -44.5t12.5 -44.5q13 -3 30 -4.5t36 -1.5q25 0 46.5 7t29.5 13q17 14 24.5 37.5t7.5 46.5q0 43 -29.5 68.5t-73.5 25.5z" />
<glyph unicode="6" horiz-adv-x="489" d="M390 466q-126 -23 -182 -77.5t-59 -132.5h1q37 32 71 44t68 12q33 0 60 -11t46.5 -30.5t30.5 -45t11 -55.5q0 -43 -17 -77t-44.5 -58t-63 -36.5t-71.5 -12.5q-52 0 -86.5 21.5t-55.5 53.5t-29.5 70t-8.5 71q0 55 15.5 106.5t52.5 93t98 70.5t153 39q15 -18 10 -45z M256 243q-26 0 -53.5 -11.5t-51.5 -29.5q3 -32 12.5 -59.5t23.5 -47.5t34 -31.5t44 -11.5q20 0 37 5t22 10q34 28 34 86q0 19 -8 35.5t-22 28.5t-32.5 19t-39.5 7z" />
<glyph unicode="7" horiz-adv-x="446" d="M112 36q61 100 118.5 201t108.5 200h-213q-5 -25 -8 -50.5t-5 -51.5q-27 -9 -53 0q-6 35 -8.5 71.5t-0.5 81.5l8 8q19 -1 44 -1.5t51 -0.5h52h48h137q19 -18 25 -49l-224 -455q-26 2 -46.5 10.5t-32.5 24.5l-1 11v0z" />
<glyph unicode="8" horiz-adv-x="506" d="M318 279q57 -26 92 -56.5t35 -70.5q0 -31 -15.5 -61t-43.5 -53t-66.5 -37.5t-84.5 -14.5q-81 0 -126 31t-45 95q0 40 29 75t92 64q-48 24 -76 51t-28 59q0 33 16.5 60.5t43 47t58.5 30t63 10.5q39 0 68.5 -9t49.5 -23.5t30.5 -34t10.5 -40.5q0 -38 -28 -69t-75 -53v-1z M361 128q0 15 -9.5 28t-25.5 25t-38 23t-46 22q-44 -17 -71 -42t-27 -53q0 -23 10 -38t26 -24t35.5 -13t37.5 -4q29 0 52 6.5t30 11.5q14 11 20 26.5t6 31.5zM164 386q0 -25 28.5 -45t73.5 -40q31 16 53.5 35.5t22.5 40.5q0 26 -28.5 46t-69.5 20q-19 0 -36 -4t-22 -7 q-10 -6 -16 -17.5t-6 -28.5z" />
<glyph unicode="9" horiz-adv-x="489" d="M99 30q63 11 108 30.5t74 46.5t43 61t16 73h-1q-37 -32 -71 -44t-68 -12q-33 0 -60 11t-46.5 30t-30.5 44.5t-11 55.5q0 43 17 77t44.5 57.5t63 36t71.5 12.5q52 0 86.5 -21t55.5 -53t29.5 -70t8.5 -71q0 -55 -15.5 -106.5t-52.5 -93t-98.5 -70.5t-152.5 -38 q-15 17 -10 44zM233 254q26 0 53.5 11t51.5 28q-3 32 -12 59.5t-23.5 47.5t-34 31.5t-44.5 11.5q-20 0 -37 -4.5t-22 -9.5q-34 -29 -34 -86q0 -19 8 -35.5t22 -28.5t32.5 -18.5t39.5 -6.5z" />
<glyph unicode=":" horiz-adv-x="270" d="M67 52q0 26 20 44t48 18t47.5 -18t19.5 -44q0 -27 -19.5 -46.5t-47.5 -19.5t-48 19.5t-20 46.5zM67 408q0 26 20 44t48 18t47.5 -18t19.5 -44q0 -27 -19.5 -46.5t-47.5 -19.5t-48 19.5t-20 46.5z" />
<glyph unicode=";" horiz-adv-x="270" d="M68 54q3 31 22.5 49.5t43.5 18.5q35 0 54.5 -20.5t19.5 -54.5q0 -27 -12.5 -56.5t-32.5 -56t-45.5 -48t-50.5 -33.5q-11 4 -17.5 11.5t-7.5 18.5q12 12 23.5 26.5t21 30.5t15 32t5.5 31q0 17 -9 30.5t-30 20.5zM67 408q0 26 20 44t48 18t47.5 -18t19.5 -44 q0 -27 -19.5 -46.5t-47.5 -19.5t-48 19.5t-20 46.5z" />
<glyph unicode="&#x3c;" horiz-adv-x="560" d="M59 234q-6 17 -5.5 34.5t5.5 34.5l422 199q20 -27 27 -59l-378 -174l378 -174q-7 -32 -28 -60z" />
<glyph unicode="=" horiz-adv-x="560" d="M74 305q-4 17 -3.5 33t3.5 33h412q7 -34 0 -66h-412zM74 145q-4 17 -3.5 33t3.5 33h412q7 -34 0 -66h-412z" />
<glyph unicode="&#x3e;" horiz-adv-x="560" d="M500 303q6 -17 5.5 -34.5t-5.5 -34.5l-422 -199q-20 27 -27 59l378 174l-378 174q7 32 28 60z" />
<glyph unicode="?" horiz-adv-x="398" d="M106 502q-28 -10 -52 -4q-9 38 -13 73.5t-4 68.5q26 18 68 31.5t89 13.5q44 0 77 -13t55.5 -36t33.5 -54.5t11 -68.5q0 -50 -18.5 -85t-43 -61t-49 -45.5t-37.5 -39.5q-4 -6 -6 -17.5t-3 -25t-1 -27v-23.5q-13 -11 -34 -14.5t-39 1.5q-6 23 -10.5 50.5t-4.5 56.5 q0 25 25 47t55 45.5t55 50t25 61.5q0 25 -8.5 47t-23.5 38.5t-35.5 26t-44.5 9.5q-27 0 -46 -3q-8 -26 -13 -50t-8 -53zM118 47q0 24 18 40.5t44 16.5t43.5 -16.5t17.5 -40.5t-17.5 -42.5t-43.5 -18.5t-44 18.5t-18 42.5z" />
<glyph unicode="@" horiz-adv-x="897" d="M251 227q0 55 16.5 102t43.5 81.5t62 54t71 19.5q49 0 90.5 -10t91.5 -34v-303q0 -20 1 -41t4 -38q19 0 38 6t35.5 15t28.5 20t17 20q16 28 24.5 59.5t8.5 68.5q0 70 -23.5 131t-64.5 106t-97.5 71t-122.5 26q-36 0 -73.5 -8t-70 -20t-57.5 -25t-35 -23q-61 -60 -89 -129 t-28 -147q0 -75 24.5 -138t67.5 -109t102 -72t128 -26q28 0 50 1.5t42.5 5t41 8.5t46.5 12q15 -15 17 -44q-39 -23 -93.5 -38.5t-122.5 -15.5q-84 0 -154 29t-121 80t-79.5 120t-28.5 150q0 97 33.5 180.5t94.5 145.5t147.5 97.5t191.5 35.5q77 0 141.5 -31.5t111 -84.5 t72.5 -121.5t26 -141.5q0 -63 -20 -115.5t-55.5 -90.5t-83.5 -59t-105 -21q-9 0 -16.5 7.5t-14.5 20.5t-12 29t-8 33q-15 -17 -31 -33.5t-33.5 -29t-35.5 -20t-36 -7.5q-40 0 -69.5 19t-49 51.5t-29.5 76.5t-10 94zM434 58q10 0 23.5 6.5t27.5 17t28.5 23.5t28.5 27v248 q-23 17 -47.5 27t-50.5 10q-28 0 -44 -6.5t-21 -12.5q-17 -22 -30 -60t-13 -83q0 -38 6 -73.5t18.5 -63t31 -44t42.5 -16.5z" />
<glyph unicode="A" horiz-adv-x="677" d="M441 221q-40 2 -81.5 3t-76.5 1h-73l-53 -159l88 -19q1 -26 -6 -48q-11 1 -26.5 1.5t-31 0.5h-30h-23.5q-25 0 -54 -1t-61 -1q-5 12 -6.5 24t-1.5 24q20 2 40 7t40 12l205 595q20 8 41.5 11t46.5 3l215 -609q20 -2 38.5 -7t35.5 -12q1 -26 -6 -48q-11 1 -27 1.5 t-33.5 0.5h-34.5h-29q-33 0 -64 -1t-63 -1q-5 12 -6.5 24t-1.5 24l94 19zM230 286h189l-81 230l-5 73h-1z" />
<glyph unicode="B" horiz-adv-x="592" d="M167 1q-33 0 -64 -1t-63 -1q-5 12 -6.5 24t-1.5 24q22 2 43.5 7t43.5 12q4 24 4.5 51t0.5 52v297q0 45 -1.5 77.5t-3.5 60.5q-22 7 -43.5 12t-43.5 7q0 12 1.5 24t6.5 24q32 0 63 -1t64 -1q54 0 98.5 2t80.5 2q35 0 64.5 -11.5t51 -32t33.5 -48t12 -60.5q0 -20 -4 -40 t-15 -39.5t-30 -37t-48 -30.5q75 -15 111.5 -57.5t36.5 -96.5q0 -40 -13.5 -79.5t-42.5 -71.5t-74 -52t-107 -20q-37 0 -73 2t-81 2zM212 319v-255h95q50 0 80.5 8t35.5 12q20 17 32 42t12 69q0 26 -12 49t-32 39.5t-48 26t-59 9.5h-104zM307 608q-20 0 -45.5 -1t-49.5 -2 v-219h75q34 0 58 9t40 24t23.5 34.5t7.5 39.5q0 24 -8.5 45t-23 36.5t-34.5 24.5t-43 9z" />
<glyph unicode="C" horiz-adv-x="606" d="M462 607q-20 3 -50.5 4.5t-61.5 1.5q-14 0 -33.5 -2.5t-38.5 -7t-35.5 -11t-25.5 -13.5q-14 -14 -28.5 -34t-26 -46.5t-19 -60t-7.5 -72.5q0 -62 13 -117.5t41.5 -98.5t74.5 -68t113 -25q25 0 52 2.5t45 6.5q6 33 9 63t5 59q24 10 53 4q8 -45 11.5 -88.5t3.5 -84.5 q-45 -14 -96.5 -24t-109.5 -10q-77 0 -134.5 26.5t-95.5 72.5t-57 107.5t-19 131.5q0 65 21 130t62 116.5t101 83.5t139 32q61 0 104 -7.5t79 -19.5q2 -84 -23 -165q-33 -6 -51 4q-3 56 -15 110z" />
<glyph unicode="D" horiz-adv-x="663" d="M167 1q-33 0 -64 -1t-63 -1q-5 12 -6.5 24t-1.5 24q22 2 43.5 7t43.5 12q3 14 4 29.5t1 31.5v339q0 45 -1.5 77.5t-3.5 60.5q-22 7 -43.5 12t-43.5 7q0 12 1.5 24t6.5 24q32 0 63 -1t64 -1q54 0 96.5 2t78.5 2q67 0 118.5 -24.5t86.5 -68.5t53 -104.5t18 -131.5 q0 -65 -20 -127.5t-58.5 -111t-94 -78.5t-127.5 -30q-31 0 -68 2t-83 2zM313 608q-26 0 -52 -1t-49 -2v-541h90q19 0 40 2.5t40.5 6t34.5 8.5t22 11q16 13 32 31.5t28.5 44t20 59t7.5 75.5q0 56 -12 111t-38 98.5t-66.5 70t-97.5 26.5z" />
<glyph unicode="E" horiz-adv-x="583" d="M270 669h57.5h63t61.5 0.5t53 1.5l8 -8q3 -84 -9 -168q-27 -9 -53 0q-2 28 -5.5 56t-10.5 54h-223v-228l205 4l8 -8q-2 -37 -10 -62l-203 4v-250h235q11 30 19.5 60t16.5 62q25 5 53 -4q0 -45 -2.5 -88t-8.5 -88l-8 -8q-23 1 -53 1.5t-61.5 0.5h-63h-57.5h-115 q-33 0 -64 -1t-63 -1q-5 12 -6.5 24t-1.5 24q22 2 43.5 7t43.5 12q3 14 4 29.5t1 31.5v339q0 45 -1.5 77.5t-3.5 60.5q-22 7 -43.5 12t-43.5 7q0 12 1.5 24t6.5 24q32 0 63 -1t64 -1h103z" />
<glyph unicode="F" horiz-adv-x="524" d="M425 359q-2 -37 -10 -62l-203 4v-152q0 -22 1 -42.5t3 -40.5q28 -2 53 -7t48 -12q2 -27 -7 -48q-12 1 -30.5 1.5t-38 0.5h-38.5h-32q-34 0 -65.5 -1t-65.5 -1q-5 12 -6.5 24t-1.5 24q22 2 43.5 7t43.5 12q4 24 4.5 51t0.5 52v297q0 45 -1.5 77.5t-3.5 60.5 q-22 7 -43.5 12t-43.5 7q0 12 1.5 24t6.5 24q32 0 63 -1t64 -1h103h58.5h63t61 0.5t52.5 1.5l8 -8q3 -90 -9 -180q-27 -9 -53 0q-2 31 -5.5 62t-10.5 60h-223v-242l205 4z" />
<glyph unicode="G" horiz-adv-x="659" d="M136 366q0 -62 13 -117.5t41.5 -98.5t74.5 -68t113 -25q43 0 96 12v32q0 45 -1.5 77.5t-3.5 60.5q-21 6 -44.5 11t-48.5 7q0 12 1.5 24t6.5 24q31 0 60.5 -1t55.5 -1h29h34.5t33.5 0.5t27 1.5q7 -23 6 -48q-15 -7 -32 -12t-37 -7q-1 -10 -1.5 -28t-1 -40.5t-0.5 -48.5 v-51v-30q-19 -9 -44 -18.5t-53.5 -17.5t-60 -13.5t-64.5 -5.5q-72 0 -126.5 26.5t-91 72.5t-55 107.5t-18.5 131.5q0 65 21 130t62 116.5t103 83.5t145 32q64 0 108 -7.5t80 -19.5q2 -84 -23 -165q-33 -6 -51 4q-3 56 -15 110q-25 3 -57 4.5t-68 1.5q-14 0 -33.5 -2.5 t-38.5 -7t-35.5 -11t-25.5 -13.5q-14 -14 -28.5 -34t-26 -46.5t-19 -60t-7.5 -72.5z" />
<glyph unicode="H" horiz-adv-x="754" d="M539 604q-22 7 -43.5 12t-43.5 7q0 12 1.5 24t6.5 24q32 0 63 -1t64 -1h29h34.5t33.5 0.5t27 1.5q7 -23 6 -48q-18 -7 -38 -12t-43 -7q-3 -33 -3.5 -74t-0.5 -99v-282q0 -22 1 -42.5t3 -40.5q23 -2 43 -7t38 -12q1 -26 -6 -48q-11 1 -27 1.5t-33.5 0.5h-34.5h-29 q-33 0 -64 -1t-63 -1q-5 12 -6.5 24t-1.5 24q22 2 43.5 7t43.5 12q4 23 4.5 47.5t0.5 47.5v154q-53 2 -104 3.5t-102 1.5h-126v-171q0 -22 1 -42.5t3 -40.5q23 -2 43 -7t38 -12q1 -26 -6 -48q-11 1 -27 1.5t-33.5 0.5h-34.5h-29q-33 0 -64 -1t-63 -1q-5 12 -6.5 24t-1.5 24 q22 2 43.5 7t43.5 12q4 23 4.5 47.5t0.5 47.5v305q0 45 -1.5 77.5t-3.5 60.5q-22 7 -43.5 12t-43.5 7q0 12 1.5 24t6.5 24q32 0 63 -1t64 -1h29h34.5t33.5 0.5t27 1.5q7 -23 6 -48q-18 -7 -38 -12t-43 -7q-3 -33 -3.5 -74t-0.5 -99v-49h332v84q0 45 -1.5 77.5t-3.5 60.5z " />
<glyph unicode="I" horiz-adv-x="334" d="M119 604q-22 7 -43.5 12t-43.5 7q0 12 1.5 24t6.5 24q32 0 63 -1t64 -1h29h34.5t33.5 0.5t27 1.5q7 -23 6 -48q-18 -7 -38 -12t-43 -7q-2 -28 -3 -60.5t-1 -77.5v-317q0 -22 1 -42.5t3 -40.5q23 -2 43 -7t38 -12q1 -26 -6 -48q-11 1 -27 1.5t-33.5 0.5h-34.5h-29 q-33 0 -64 -1t-63 -1q-5 12 -6.5 24t-1.5 24q22 2 43.5 7t43.5 12q3 14 4 29.5t1 31.5v339q0 45 -1.5 77.5t-3.5 60.5z" />
<glyph unicode="J" horiz-adv-x="306" d="M199 27q0 -60 -16 -103t-45.5 -72t-71 -45t-93.5 -22q-17 17 -17 51q39 15 68 33t48.5 43t29 58t9.5 77v419q0 45 -1.5 77.5t-3.5 60.5q-22 7 -43.5 12t-43.5 7q0 12 1.5 24t6.5 24q32 0 63 -1t64 -1h29h34.5t33.5 0.5t27 1.5q7 -23 6 -48q-18 -7 -38 -12t-43 -7 q-2 -28 -3 -60.5t-1 -77.5v-439z" />
<glyph unicode="K" horiz-adv-x="659" d="M347 391l220 -325q24 -3 46 -7.5t41 -11.5q0 -12 -1.5 -26t-5.5 -22q-26 1 -56 1h-59h-36l-218 321l-66 -67v-105q0 -22 1 -42.5t3 -40.5q23 -2 43 -7t38 -12q1 -26 -6 -48q-11 1 -27 1.5t-33.5 0.5h-34.5h-29q-33 0 -64 -1t-63 -1q-5 12 -6.5 24t-1.5 24q22 2 43.5 7 t43.5 12q4 23 4.5 47.5t0.5 47.5v305q0 45 -1.5 77.5t-3.5 60.5q-22 7 -43.5 12t-43.5 7q0 12 1.5 24t6.5 24q32 0 63 -1t64 -1h29h34.5t33.5 0.5t27 1.5q7 -23 6 -48q-18 -7 -38 -12t-43 -7q-3 -33 -3.5 -74t-0.5 -99v-89l258 262l-93 18q0 13 1.5 25t6.5 24q32 0 61.5 -1 t56.5 -1h25.5h33t34.5 0.5t29 1.5q7 -23 6 -48q-17 -7 -35.5 -12t-38.5 -7z" />
<glyph unicode="L" horiz-adv-x="551" d="M212 65h235q11 33 19.5 66t16.5 68q25 5 53 -4q0 -48 -2.5 -94t-8.5 -94l-8 -8q-23 1 -53 1.5t-61.5 0.5h-63h-57.5h-115q-33 0 -64 -1t-63 -1q-5 12 -6.5 24t-1.5 24q22 2 43.5 7t43.5 12q3 14 4 29.5t1 31.5v339q0 45 -1.5 77.5t-3.5 60.5q-22 7 -43.5 12t-43.5 7 q0 12 1.5 24t6.5 24q35 0 68.5 -1t69.5 -1h31h37t36 0.5t28 1.5q9 -21 7 -48q-23 -7 -48 -12t-53 -7q-2 -28 -3 -60.5t-1 -77.5v-401z" />
<glyph unicode="M" horiz-adv-x="919" d="M680 515l-3 90h-1l-182 -596q-23 -7 -45.5 -10t-45.5 -4l-165 520l-12 90h-1l-47 -539l84 -19q1 -26 -6 -48q-11 1 -26.5 1.5t-31 0.5h-30.5h-24q-26 0 -54.5 -1t-59.5 -1q-5 12 -6.5 24t-1.5 24q22 2 44 7t46 13l48 537q-26 7 -48 12t-44 7q0 12 1.5 24t6.5 24 q32 0 61.5 -1t56.5 -1q23 0 48.5 -1t49.5 -3l153 -483l2 -97h1l177 581q24 2 47.5 2.5t44.5 0.5h29.5h35t34 0.5t27.5 1.5q7 -23 6 -48q-34 -13 -84 -19l47 -538q24 -2 45.5 -7t39.5 -12q1 -26 -6 -48q-11 1 -27.5 1.5t-34.5 0.5h-35.5h-29.5q-33 0 -64.5 -1t-63.5 -1 q-5 12 -6.5 24t-1.5 24l91 19z" />
<glyph unicode="N" horiz-adv-x="741" d="M634 9q-45 -12 -94 -14l-315 520l-29 90h-1v-456q0 -22 1 -42.5t3 -40.5q23 -2 43 -7t38 -12q1 -26 -6 -48q-11 1 -26.5 1.5t-32 0.5h-31.5h-25q-27 0 -57 -1t-62 -1q-5 12 -6.5 24t-1.5 24q22 2 43.5 7t43.5 12q3 14 4 29.5t1 31.5v339q0 45 -1.5 77.5t-3.5 60.5 q-22 7 -43.5 12t-43.5 7q0 12 1.5 24t6.5 24q32 0 62 -1t57 -1q22 0 45 -1t41 -3l290 -481l27 -90h1v372q0 45 -1.5 77.5t-3.5 60.5q-22 7 -43.5 12t-43.5 7q0 12 1.5 24t6.5 24q32 0 62 -1t57 -1h25h31.5t32 0.5t26.5 1.5q7 -23 6 -48q-18 -7 -38 -12t-43 -7 q-2 -28 -3 -60.5t-1 -77.5v-457v0z" />
<glyph unicode="O" horiz-adv-x="690" d="M336 -18q-71 0 -125.5 26.5t-91.5 72.5t-55.5 108t-18.5 134q0 65 21.5 130t61.5 117.5t97 85t129 32.5q70 0 124.5 -26.5t91.5 -72t56 -108t19 -134.5q0 -65 -21.5 -130.5t-61.5 -117.5t-97 -84.5t-129 -32.5zM364 54q12 0 27.5 2.5t31.5 7t29.5 11t20.5 13.5 q14 13 28.5 34t26 48t19 60.5t7.5 73.5q0 62 -13 118.5t-40.5 99.5t-70.5 68.5t-104 25.5q-12 0 -27.5 -2.5t-31.5 -7t-29.5 -11t-20.5 -13.5q-14 -14 -28.5 -34.5t-26 -47.5t-19 -60.5t-7.5 -73.5q0 -62 13 -118.5t40.5 -99.5t70.5 -68.5t104 -25.5z" />
<glyph unicode="P" horiz-adv-x="563" d="M167 669q54 0 102.5 2t84.5 2q50 0 84.5 -15.5t56.5 -41t31.5 -59.5t9.5 -71q0 -40 -18 -82t-48.5 -76.5t-71.5 -57t-86 -22.5q-26 0 -51.5 1.5t-48.5 6.5v-107q0 -22 1 -42.5t3 -40.5q28 -2 53 -7t48 -12q2 -27 -7 -48q-12 1 -30.5 1.5t-38 0.5h-38.5h-32 q-34 0 -65.5 -1t-65.5 -1q-5 12 -6.5 24t-1.5 24q22 2 43.5 7t43.5 12q3 14 4 29.5t1 31.5v339q0 45 -1.5 77.5t-3.5 60.5q-22 7 -43.5 12t-43.5 7q0 12 1.5 24t6.5 24q32 0 63 -1t64 -1zM327 608q-26 0 -57.5 -1t-57.5 -2v-283q19 -2 40.5 -3t47.5 -1q18 0 35.5 3.5t32 8.5 t23.5 9.5t11 6.5q19 17 31 46t12 66q0 25 -6 51.5t-20 48.5t-36.5 36t-55.5 14z" />
<glyph unicode="Q" horiz-adv-x="690" d="M645 347q0 -56 -16 -112.5t-46.5 -105.5t-74 -85t-98.5 -52q31 -39 72.5 -69t100.5 -30q11 0 23 1t24 3q20 -23 12 -51q-22 -9 -57.5 -18t-89.5 -9q-23 0 -46.5 12.5t-48 34.5t-49.5 52t-51 66q-63 7 -110.5 35.5t-79.5 73.5t-48.5 104t-16.5 126q0 65 21.5 130 t61.5 117.5t97 85t129 32.5q70 0 124.5 -26.5t91.5 -72t56 -108t19 -134.5zM364 54q12 0 27.5 2.5t31.5 7t29.5 11t20.5 13.5q14 13 28.5 34t26 48t19 60.5t7.5 73.5q0 62 -13 118.5t-40.5 99.5t-70.5 68.5t-104 25.5q-12 0 -27.5 -2.5t-31.5 -7t-29.5 -11t-20.5 -13.5 q-14 -14 -28.5 -34.5t-26 -47.5t-19 -60.5t-7.5 -73.5q0 -62 13 -118.5t40.5 -99.5t70.5 -68.5t104 -25.5z" />
<glyph unicode="R" horiz-adv-x="617" d="M310 282q-21 0 -47 1.5t-51 5.5v-140q0 -22 1 -42.5t3 -40.5q23 -2 43 -7t38 -12q1 -26 -6 -48q-11 1 -27 1.5t-33.5 0.5h-34.5h-29q-33 0 -64 -1t-63 -1q-5 12 -6.5 24t-1.5 24q22 2 43.5 7t43.5 12q4 24 4.5 51t0.5 52v297q0 45 -1.5 77.5t-3.5 60.5q-22 7 -43.5 12 t-43.5 7q0 12 1.5 24t6.5 24q32 0 63 -1t64 -1q54 0 102.5 2t84.5 2q52 0 87 -15t56 -38.5t30 -53t9 -58.5t-9.5 -59.5t-27 -58t-42 -50.5t-55.5 -38l116 -236q24 -3 46 -7.5t41 -11.5q0 -12 -1.5 -26t-5.5 -22q-25 1 -54 1h-58h-37zM327 608q-26 0 -57.5 -1t-57.5 -2v-249 q23 -2 43.5 -3t42.5 -1q18 0 35.5 3t32 7t24 7.5t11.5 5.5q21 16 32 42t11 58q0 61 -31.5 97t-85.5 36z" />
<glyph unicode="S" horiz-adv-x="544" d="M48 29q3 86 24 172q14 4 27 2.5t26 -6.5q2 -28 5 -58.5t9 -63.5q27 -9 59.5 -13.5t75.5 -4.5q18 0 34.5 3t29.5 7.5t21.5 8.5t10.5 6q34 33 34 102q0 19 -8.5 36t-22.5 31t-32 24.5t-37 17.5l-73 28q-28 10 -58 24.5t-55 35t-41 48.5t-16 66q0 52 21 88.5t54 59t73 32.5 t78 10q45 0 98 -9t95 -26q-1 -42 -6.5 -79.5t-15.5 -72.5q-31 -8 -52 4q-2 26 -5.5 50t-9.5 48q-25 7 -54 10t-61 3q-35 0 -62.5 -6t-32.5 -10q-13 -11 -21 -28t-8 -43q0 -22 9.5 -40t24.5 -32t33.5 -24.5t36.5 -16.5l86 -31q28 -10 56 -25t50 -36t35.5 -48.5t13.5 -62.5 q0 -47 -16 -88t-45.5 -71.5t-72 -48t-95.5 -17.5q-66 0 -124 12t-96 32z" />
<glyph unicode="T" horiz-adv-x="606" d="M347 605v-456q0 -22 1 -42.5t3 -40.5q28 -2 53 -7t48 -12q2 -27 -7 -48q-12 1 -30.5 1.5t-39 0.5h-40h-33.5q-38 0 -73 -1t-73 -1q-5 12 -7 24t-2 24q27 2 53.5 7t53.5 12q3 14 4 29.5t1 31.5v478h-165q-7 -30 -10.5 -61t-5.5 -61q-14 -5 -26.5 -5t-26.5 5q-12 87 -9 180 l8 8q23 -1 53 -1.5t61.5 -0.5h63h57.5h88h57.5h63t61.5 0.5t53 1.5l8 -8q3 -90 -9 -180q-31 -9 -53 0q-2 31 -5.5 62t-10.5 60h-165z" />
<glyph unicode="U" horiz-adv-x="695" d="M599 247q0 -58 -15.5 -106.5t-48.5 -84t-83.5 -55t-120.5 -19.5q-113 0 -171 58.5t-58 193.5v232q0 45 -1.5 77.5t-3.5 60.5q-22 7 -43.5 12t-43.5 7q0 12 1.5 24t6.5 24q32 0 63 -1t64 -1h29h34t33 0.5t27 1.5q7 -23 6 -48q-18 -7 -38 -12t-43 -7q-2 -28 -2.5 -60.5 t-0.5 -77.5v-201q0 -55 8.5 -94.5t28.5 -65.5t54 -38.5t84 -12.5q42 0 76.5 11.5t45.5 23.5q14 15 23 38.5t13.5 49t4.5 58.5v231q0 45 -1.5 77.5t-3.5 60.5q-22 7 -43.5 12t-43.5 7q0 12 1.5 24t6.5 24q32 0 63 -1t64 -1h53t54 2q7 -23 6 -48q-18 -7 -38 -12t-43 -7 q-2 -28 -3 -60.5t-1 -77.5v-219z" />
<glyph unicode="V" horiz-adv-x="677" d="M427 623q0 12 1.5 24t6.5 24q32 0 61 -1t54 -1h23.5h30t31 0.5t26.5 1.5q7 -23 6 -48q-17 -7 -35.5 -12t-38.5 -7l-205 -595q-20 -8 -41.5 -11t-46.5 -3l-215 609q-20 7 -40 12t-40 7q0 12 1.5 24t6.5 24q32 0 63 -1t64 -1h29h34.5t33.5 0.5t27 1.5q7 -23 6 -48l-88 -19 l154 -439l9 -85h1l175 524z" />
<glyph unicode="W" horiz-adv-x="962" d="M85 604q-20 7 -40 12t-40 7q0 12 1.5 24t6.5 24q32 0 63 -1t64 -1h29h34.5t33.5 0.5t27 1.5q7 -23 6 -48l-88 -19l113 -439l5 -85h1l154 582q18 7 39 10t43 3l129 -510l6 -85h1l133 524l-94 19q0 12 1.5 24t6.5 24q32 0 61 -1t54 -1h23.5h30t31 0.5t26.5 1.5q7 -23 6 -48 q-17 -7 -35.5 -12t-38.5 -7l-158 -595q-20 -8 -47.5 -11t-52.5 -3l-119 471l-4 101h-1l-145 -558q-20 -8 -50 -11t-55 -3z" />
<glyph unicode="X" horiz-adv-x="658" d="M255 47q1 -26 -6 -48q-11 1 -26.5 1.5t-31.5 0.5h-31h-25q-26 0 -57 -1t-66 -1q-5 12 -6.5 24t-1.5 24q20 2 41 7t43 12l188 274l-183 264q-20 7 -40 12t-40 7q0 12 1.5 24t6.5 24q34 0 66 -1t67 -1h30h34.5t33.5 0.5t27 1.5q4 -11 5 -23t1 -25l-80 -19l135 -195l135 194 l-87 19q0 13 1.5 25t6.5 24q32 0 59.5 -1t53.5 -1h24h31.5t32.5 0.5t28 1.5q4 -11 5 -23t1 -25q-17 -7 -35.5 -12t-38.5 -7l-178 -252l199 -286q20 -2 38.5 -7t35.5 -12q1 -26 -6 -48q-11 1 -27.5 1.5t-35 0.5h-37h-32.5q-37 0 -69.5 -1t-64.5 -1q-5 12 -6.5 24t-1.5 24 l94 19l-150 216l-149 -216z" />
<glyph unicode="Y" horiz-adv-x="650" d="M373 249v-100q0 -22 1 -42.5t3 -40.5q28 -2 53 -7t48 -12q2 -27 -7 -48q-12 1 -30.5 1.5t-39 0.5h-40h-33.5q-38 0 -73 -1t-73 -1q-5 12 -7 24t-2 24q27 2 53.5 7t53.5 12q3 14 4 29.5t1 31.5v109l-200 368q-20 7 -40 12t-40 7q0 12 1.5 24t6.5 24q32 0 64 -1t68 -1h31.5 h35t33.5 0.5t27 1.5q7 -23 6 -48l-88 -19l150 -279l152 279l-94 19q0 12 1.5 24t6.5 24q32 0 61 -1t55 -1h23.5h30.5t31.5 0.5t26.5 1.5q7 -23 6 -48q-17 -7 -35.5 -12t-38.5 -7z" />
<glyph unicode="Z" horiz-adv-x="606" d="M43 1q-12 31 -11 64l395 540h-289q-7 -27 -10.5 -55t-5.5 -55q-14 -5 -26.5 -5t-26.5 5q-12 81 -9 169l8 7q23 -1 53 -1.5t61.5 -0.5h63h57.5h210q20 -26 29 -64l-397 -540h322q11 30 19.5 60t16.5 62q14 3 26.5 2t26.5 -6q0 -45 -2.5 -88t-8.5 -88l-8 -8q-23 1 -53 1.5 t-61.5 0.5h-63h-57.5h-259z" />
<glyph unicode="[" horiz-adv-x="349" d="M130 851q105 -3 211 -3q7 -29 0 -57q-15 -2 -34 -4t-38.5 -3.5t-37.5 -2.5t-31 -1v-918q13 0 31 -1t37.5 -2.5t38.5 -3.5t34 -4q6 -29 0 -57q-106 0 -211 -3l-8 8v1044z" />
<glyph unicode="\" horiz-adv-x="424" d="M40 679q38 21 71 24l269 -780q-26 -21 -71 -26z" />
<glyph unicode="]" horiz-adv-x="349" d="M227 843v-1044l-8 -8q-105 3 -211 3q-6 28 0 57q15 2 34 4t38.5 3.5t37.5 2.5t31 1v918q-13 0 -31 1t-37.5 2.5t-38.5 3.5t-34 4q-8 28 0 57q106 0 211 3z" />
<glyph unicode="^" horiz-adv-x="508" d="M252 557l-149 -184q-31 10 -44 34l171 258q11 2 22.5 3t23.5 1l173 -260q-19 -27 -51 -38z" />
<glyph unicode="_" horiz-adv-x="500" d="M0 -62h500v-59h-500v59z" />
<glyph unicode="`" horiz-adv-x="415" d="M67 696l5 19q20 11 40.5 15.5t42.5 5.5l117 -184q-12 -21 -40 -26z" />
<glyph unicode="a" horiz-adv-x="611" d="M388 153q-33 2 -67.5 3t-63.5 1h-61l-38 -100l73 -13q0 -12 -1 -23t-4 -22q-10 1 -23.5 1.5t-27 0.5h-26.5h-22q-23 0 -47 -1t-49 -1q-7 21 -7 45q17 2 34 5.5t34 8.5l169 430q36 11 83 11l177 -441q17 -2 32.5 -5.5t29.5 -8.5q2 -25 -5 -45q-9 1 -22.5 1.5t-28.5 0.5 h-30h-27q-30 0 -58 -1t-55 -1q-7 21 -7 45l78 13zM217 210h148l-61 147l-4 64h-1z" />
<glyph unicode="b" horiz-adv-x="538" d="M162 1q-31 0 -58 -1t-54 -1q-7 21 -7 45q34 3 72 14q4 14 4.5 30.5t0.5 31.5v215q0 33 -1.5 57.5t-3.5 44.5q-38 11 -72 14q0 24 7 45q27 0 54 -1t58 -1q45 0 83 2t69 2q30 0 55.5 -8.5t43.5 -24t28.5 -36.5t10.5 -45q0 -29 -16.5 -58.5t-64.5 -49.5q62 -13 92.5 -44.5 t30.5 -69.5q0 -30 -12.5 -59.5t-38 -53t-64 -38t-89.5 -14.5q-31 0 -60.5 2t-67.5 2zM205 231v-174h69q43 0 67.5 5t29.5 9q14 11 24 28t10 46q0 38 -35 62t-90 24h-75zM279 439q-17 0 -36.5 -0.5t-37.5 -1.5v-149h53q56 0 80.5 23t24.5 50q0 33 -24 55.5t-60 22.5z" />
<glyph unicode="c" horiz-adv-x="542" d="M400 436q-16 2 -39 3t-49 1q-13 0 -28.5 -1.5t-30.5 -4.5t-27.5 -6.5t-18.5 -7.5q-10 -7 -21.5 -20t-21 -32.5t-15.5 -44t-6 -53.5q0 -44 10.5 -83.5t33 -68.5t59 -46t88.5 -17q20 0 41.5 2t35.5 4q5 25 7.5 46.5t4.5 43.5q25 8 54 4q7 -33 9.5 -67t2.5 -72 q-37 -11 -81 -19t-94 -8q-66 0 -115 19.5t-81 53.5t-48 79.5t-16 97.5q0 48 17.5 95.5t52 85.5t85.5 62t119 24q53 0 89 -5.5t66 -15.5q0 -77 -19 -134q-31 -4 -51 4q-3 43 -13 81z" />
<glyph unicode="d" horiz-adv-x="598" d="M162 1q-31 0 -58 -1t-54 -1q-7 21 -7 45q34 3 72 14q3 11 4 22t1 22v234q0 33 -1.5 57t-3.5 44q-38 11 -72 14q0 24 7 45q27 0 54 -1t58 -1q43 0 81 2t71 2q55 0 98 -18.5t72.5 -51t44.5 -77t15 -97.5q0 -48 -17.5 -94t-50 -82.5t-79.5 -58.5t-107 -22q-27 0 -58.5 2 t-69.5 2zM285 439q-20 0 -40.5 -0.5t-39.5 -1.5v-380h74q15 0 31.5 1.5t31.5 4.5t27 6.5t18 7.5q26 18 47 52.5t21 94.5q0 40 -10 78.5t-31 69t-53 49t-76 18.5z" />
<glyph unicode="e" horiz-adv-x="525" d="M252 494h48h52.5t51.5 0.5t44 1.5l8 -8q0 -37 -1.5 -69t-6.5 -63q-29 -8 -54 0q-2 20 -5 40.5t-8 40.5h-176v-155l164 2l8 -8q-1 -26 -8 -51l-164 2v-169h186q18 46 30 91q14 2 26.5 1t26.5 -5q0 -32 -2 -66t-7 -72l-8 -8q-19 1 -44 1.5t-51 0.5h-52.5h-48.5h-98 q-32 0 -59 -1t-54 -1q-7 21 -7 45q34 3 72 14q3 11 4 22t1 22v234q0 33 -1.5 57t-3.5 44q-38 11 -72 14q0 24 7 45q27 0 54 -1t59 -1h89z" />
<glyph unicode="f" horiz-adv-x="486" d="M378 267q-2 -30 -9 -52l-164 2v-98q0 -16 1 -31.5t3 -29.5q23 -2 44.5 -5.5t41.5 -8.5q1 -23 -6 -45q-11 1 -27 1.5t-33.5 0.5h-34.5h-30q-31 0 -58.5 -1t-55.5 -1q-7 21 -7 45q34 3 72 14q4 14 4.5 30t0.5 31v217q0 33 -1.5 57t-3.5 44q-38 11 -72 14q0 24 7 45 q27 0 54 -1t59 -1h90h48h52.5t51 0.5t44.5 1.5l8 -8q0 -40 -2 -74t-7 -67q-29 -8 -54 0q-2 23 -5 45.5t-8 44.5h-176v-166l165 4z" />
<glyph unicode="g" horiz-adv-x="594" d="M143 270q0 -45 10.5 -84.5t33.5 -69.5t59.5 -47.5t88.5 -17.5q33 0 74 6v17q0 32 -1 56.5t-3 45.5q-19 5 -39 8t-40 5q0 11 1 22.5t6 22.5q26 0 51.5 -1t54.5 -1h27h30t28.5 0.5t22.5 1.5q3 -11 4 -22t1 -23q-13 -5 -27.5 -8.5t-30.5 -5.5q-2 -17 -2.5 -48t-0.5 -66v-31 q-33 -13 -85 -27t-109 -14q-60 0 -105.5 19.5t-76 53.5t-46 79.5t-15.5 97.5q0 48 17.5 95.5t52.5 85.5t87.5 62t123.5 24q54 0 90.5 -5.5t67.5 -15.5q0 -74 -19 -131q-32 -5 -53 4q-2 42 -12 81q-19 2 -43 3.5t-52 1.5q-14 0 -29.5 -2t-30.5 -5t-27.5 -7t-18.5 -8 q-10 -7 -21.5 -20t-21 -32.5t-16 -44.5t-6.5 -55z" />
<glyph unicode="h" horiz-adv-x="671" d="M462 437q-38 11 -72 14q0 24 7 45q27 0 54 -1t58 -1h27h30t28.5 0.5t23.5 1.5q3 -11 4 -22t1 -23q-15 -5 -32 -8.5t-35 -5.5q-2 -20 -3 -44t-1 -57v-218q0 -16 1 -31t3 -29q18 -2 35 -5.5t32 -8.5q0 -12 -1 -23t-4 -22q-10 1 -23.5 1.5t-28.5 0.5h-30h-27q-31 0 -58 -1 t-54 -1q-7 21 -7 45q34 3 72 14q3 11 4 22t1 22v124q-43 2 -85 3t-82 1h-95v-112q0 -16 1 -31t3 -29q18 -2 35 -5.5t32 -8.5q0 -12 -1 -23t-4 -22q-10 1 -23.5 1.5t-28.5 0.5h-30h-27q-31 0 -58 -1t-54 -1q-7 21 -7 45q34 3 72 14q3 11 4 22t1 22v234q0 33 -1.5 57t-3.5 44 q-38 11 -72 14q0 24 7 45q27 0 54 -1t58 -1h27h30t28.5 0.5t23.5 1.5q3 -11 4 -22t1 -23q-15 -5 -32 -8.5t-35 -5.5q-2 -20 -3 -44t-1 -57v-50h262v50q0 33 -1.5 57t-3.5 44z" />
<glyph unicode="i" horiz-adv-x="324" d="M115 437q-38 11 -72 14q0 24 7 45q27 0 54 -1t58 -1h27h30t28.5 0.5t23.5 1.5q3 -11 4 -22t1 -23q-15 -5 -32 -8.5t-35 -5.5q-2 -20 -3 -44t-1 -57v-218q0 -16 1 -31t3 -29q18 -2 35 -5.5t32 -8.5q0 -12 -1 -23t-4 -22q-10 1 -23.5 1.5t-28.5 0.5h-30h-27q-31 0 -58 -1 t-54 -1q-7 21 -7 45q34 3 72 14q3 11 4 22t1 22v234q0 33 -1.5 57t-3.5 44z" />
<glyph unicode="j" horiz-adv-x="301" d="M194 25q0 -90 -54 -133.5t-145 -50.5q-16 16 -15 44q64 21 96.5 55.5t32.5 96.5v299q0 32 -1 56.5t-3 44.5q-38 11 -72 14q0 24 7 45q26 0 53.5 -1t58.5 -1h26.5h29.5t28.5 0.5t23.5 1.5q3 -11 4 -22t1 -23q-15 -5 -32 -8.5t-36 -5.5q-2 -20 -2.5 -44.5t-0.5 -56.5v-311z " />
<glyph unicode="k" horiz-adv-x="598" d="M328 289l175 -231q19 -2 37 -5.5t33 -8.5q0 -11 -1 -23.5t-4 -21.5q-23 1 -48.5 1h-50.5h-36l-172 227l-56 -51v-58q0 -16 1 -31t3 -29q18 -2 35 -5.5t32 -8.5q0 -12 -1 -23t-4 -22q-10 1 -23.5 1.5t-28.5 0.5h-30h-27q-31 0 -58 -1t-54 -1q-7 21 -7 45q34 3 72 14 q3 11 4 22t1 22v234q0 33 -1.5 57t-3.5 44q-38 11 -72 14q0 24 7 45q27 0 54 -1t58 -1h27h30t28.5 0.5t23.5 1.5q3 -11 4 -22t1 -23q-15 -5 -32 -8.5t-35 -5.5q-2 -20 -3 -44t-1 -57v-84l203 186l-72 13q0 24 7 45q27 0 52.5 -1t50.5 -1h23.5h28t28.5 0.5t24 1.5 q6 -22 5 -45q-15 -5 -30.5 -8.5t-33.5 -5.5z" />
<glyph unicode="l" horiz-adv-x="502" d="M205 58h186q10 26 17 51.5t13 52.5q14 2 26.5 1t26.5 -5q0 -36 -1.5 -72.5t-6.5 -78.5l-8 -8q-20 1 -45 1.5t-51.5 0.5h-52.5h-48h-99q-31 0 -58 -1t-54 -1q-7 21 -7 45q34 3 72 14q3 11 4 22t1 22v234q0 33 -1.5 57t-3.5 44q-38 11 -72 14q0 24 7 45q29 0 57.5 -1 t60.5 -1h30h33.5t31.5 0.5t26 1.5q7 -21 6 -45q-40 -11 -86 -14q-2 -20 -3 -44.5t-1 -56.5v-278z" />
<glyph unicode="m" horiz-adv-x="806" d="M580 363l-1 73h-1l-144 -428q-37 -10 -82 -12l-129 367l-10 73h-1l-40 -378l69 -14q2 -25 -5 -45q-10 1 -23 1.5t-27 0.5h-27h-22q-23 0 -46.5 -1t-49.5 -1q-4 11 -5 22.5t-1 22.5q18 2 36 5.5t38 8.5l40 379q-20 5 -38.5 8.5t-36.5 5.5q0 11 1 22.5t5 22.5q26 0 51.5 -1 t51.5 -1h46t44 -2l118 -323l3 -73h1l134 396q21 2 43.5 2h43.5h26.5h29.5t29 0.5t24 1.5q6 -22 5 -45q-15 -5 -32 -8.5t-37 -5.5l39 -379q20 -2 37.5 -5.5t32.5 -8.5q1 -12 -0.5 -23t-4.5 -22q-10 1 -24 1.5t-29 0.5h-30h-27q-30 0 -57.5 -1t-53.5 -1q-7 21 -7 45l74 14z " />
<glyph unicode="n" horiz-adv-x="656" d="M549 8q-20 -5 -44.5 -8t-47.5 -4l-247 356l-22 73h-2v-306q0 -33 3 -61q19 -2 36 -5.5t32 -8.5q0 -12 -1 -23t-4 -22q-10 1 -23.5 1.5t-27.5 0.5h-27h-22q-24 0 -50 -1t-52 -1q-7 21 -7 45q34 3 72 14q3 11 4 22t1 22v234q0 33 -1.5 57t-3.5 44q-38 11 -72 14q0 24 7 45 q27 0 53 -1t51 -1q20 0 40 -0.5t37 -2.5l229 -334l22 -73h1v252q0 32 -1 56.5t-3 44.5q-38 11 -72 14q0 24 7 45q26 0 52.5 -1t50.5 -1h22h26.5t26.5 0.5t23 1.5q3 -11 4 -22t1 -23q-15 -5 -32 -8.5t-36 -5.5q-2 -20 -2.5 -44.5t-0.5 -56.5v-328v0z" />
<glyph unicode="o" horiz-adv-x="614" d="M299 -14q-60 0 -106 19.5t-76.5 54t-46.5 80.5t-16 99q0 48 18 96t51.5 87t82 63t108.5 24t105.5 -19.5t77 -53.5t47.5 -80.5t16 -99.5q0 -48 -18 -96t-52 -87t-82.5 -63t-108.5 -24zM322 52q10 0 23 2t25.5 5.5t23 7.5t15.5 9q21 19 41.5 56.5t20.5 93.5q0 43 -10 82 t-32 69t-56 48t-82 18q-10 0 -23 -2t-25 -5.5t-22.5 -8t-15.5 -8.5q-22 -19 -42 -56.5t-20 -92.5q0 -43 10 -82.5t32 -69.5t55.5 -48t81.5 -18z" />
<glyph unicode="p" horiz-adv-x="515" d="M162 494q43 0 84 2t72 2q42 0 72 -11.5t49 -30.5t28 -44.5t9 -52.5q0 -32 -15.5 -64.5t-42.5 -58t-63 -41.5t-76 -16q-20 0 -38.5 1.5t-35.5 3.5v-65q0 -16 1 -31.5t3 -29.5q23 -2 44.5 -5.5t41.5 -8.5q1 -23 -6 -45q-11 1 -27 1.5t-33.5 0.5h-34.5h-30q-31 0 -58.5 -1 t-55.5 -1q-7 21 -7 45q34 3 72 14q3 11 4 22t1 22v234q0 33 -1.5 57t-3.5 44q-38 11 -72 14q0 24 7 45q27 0 54 -1t58 -1zM293 439q-20 0 -44 -0.5t-44 -1.5v-194q14 -1 30 -1.5t34 -0.5q15 0 29.5 2.5t26 5.5t19 6t9.5 4q15 12 24.5 32.5t9.5 48.5q0 17 -5 34.5t-16.5 32 t-29.5 23.5t-43 9z" />
<glyph unicode="q" horiz-adv-x="614" d="M424 -134q-38 0 -78 34t-85 89q-51 6 -89.5 27.5t-64.5 54.5t-39.5 76t-13.5 92q0 48 18 96t51.5 87t82 63t108.5 24t105.5 -19.5t77 -53.5t47.5 -80.5t16 -99.5q0 -41 -13.5 -82.5t-39 -77.5t-62 -63t-82.5 -39q26 -26 58.5 -45t80.5 -19q20 0 43 3q16 -21 10 -46 q-19 -7 -51 -14t-80 -7zM322 52q10 0 23 2t25.5 5.5t23 7.5t15.5 9q21 19 41.5 56.5t20.5 93.5q0 43 -10 82t-32 69t-56 48t-82 18q-10 0 -23 -2t-25 -5.5t-22.5 -8t-15.5 -8.5q-22 -19 -42 -56.5t-20 -92.5q0 -43 10 -82.5t32 -69.5t55.5 -48t81.5 -18z" />
<glyph unicode="r" horiz-adv-x="563" d="M280 206q-17 0 -36.5 1.5t-38.5 3.5v-92q0 -16 1 -31.5t3 -29.5q18 -2 35 -5.5t32 -8.5q1 -12 -0.5 -23t-4.5 -22q-10 1 -23.5 1.5t-28.5 0.5h-30h-27q-31 0 -58 -1t-54 -1q-7 21 -7 45q34 3 72 14q4 14 4.5 30t0.5 31v217q0 33 -1.5 57t-3.5 44q-38 11 -72 14q0 24 7 45 q27 0 54 -1t58 -1q43 0 84 2t72 2q43 0 73 -10.5t49 -28t27.5 -39.5t8.5 -45q0 -45 -29 -85.5t-77 -63.5l92 -168q20 -2 38.5 -5.5t33.5 -8.5q0 -11 -1 -23.5t-4 -21.5q-23 1 -48 1h-50h-37zM293 439q-20 0 -44 -0.5t-44 -1.5v-168q15 -1 30.5 -1.5t32.5 -0.5q15 0 29 2 t25.5 4.5t19 5t9.5 3.5q35 25 35 71q0 36 -24.5 61t-68.5 25z" />
<glyph unicode="s" horiz-adv-x="490" d="M53 23q2 37 6.5 69.5t13.5 64.5q26 7 54 -4q1 -20 3.5 -42t7.5 -46q21 -7 46.5 -10.5t58.5 -3.5q28 0 50 7t26 10q26 20 26 65q0 27 -25 45.5t-59 30.5l-61 22q-23 8 -46.5 19t-43.5 26.5t-32.5 36t-12.5 49.5q0 39 17.5 66.5t45.5 45t62 25t67 7.5q38 0 83.5 -7 t80.5 -20q-1 -35 -5 -63.5t-12 -54.5q-31 -8 -52 3q-2 18 -4.5 36t-7.5 35q-20 5 -42.5 7.5t-48.5 2.5t-47.5 -4.5t-25.5 -6.5q-10 -7 -16 -19t-6 -29q0 -15 8 -27t20 -21t27 -16t30 -12l69 -25q23 -8 45.5 -19.5t40.5 -26.5t29 -35.5t11 -46.5q0 -35 -13 -65.5t-38 -53.5 t-61 -36t-82 -13q-56 0 -105.5 9t-81.5 25z" />
<glyph unicode="t" horiz-adv-x="551" d="M318 437v-318q0 -33 3 -61q24 -2 45.5 -5.5t40.5 -8.5q2 -25 -5 -45q-12 1 -28 1.5t-33.5 0.5h-35h-31.5q-35 0 -66 -1t-63 -1q-5 11 -6 22.5t-1 22.5q23 2 45.5 5.5t45.5 8.5q4 19 4 45v334h-129q-5 -23 -8 -47t-5 -47q-26 -7 -54 0q-5 33 -6.5 67.5t-1.5 77.5l8 8 q19 -1 44 -1.5t51.5 -0.5h53h48.5h82h48.5h53t51.5 0.5t44 1.5l8 -8q0 -42 -1.5 -76.5t-7.5 -68.5q-30 -7 -53 0q-2 23 -5 47t-8 47h-128z" />
<glyph unicode="u" horiz-adv-x="619" d="M520 192q0 -44 -13 -81.5t-40 -65.5t-69.5 -43.5t-101.5 -15.5q-94 0 -143.5 43.5t-49.5 143.5v163q0 33 -1 57t-3 44q-38 11 -72 14q0 11 1 22.5t5 22.5q27 0 54.5 -1t57.5 -1h27h30t28.5 0.5t23.5 1.5q6 -22 5 -45q-15 -5 -31.5 -8.5t-35.5 -5.5q-2 -20 -2.5 -44 t-0.5 -57v-134q0 -78 30 -114t107 -36q33 0 60.5 8.5t35.5 16.5q8 7 20 31t12 71v157q0 33 -1 57t-3 44q-38 11 -72 14q0 24 7 45q26 0 52 -1t53 -1h47.5t47.5 2q7 -19 5 -45q-15 -5 -31.5 -8.5t-35.5 -5.5q-2 -20 -2.5 -44t-0.5 -57v-144z" />
<glyph unicode="v" horiz-adv-x="611" d="M377 451q0 11 1 22.5t5 22.5q26 0 51 -1t48 -1h48t48 2q6 -22 5 -45q-14 -5 -29.5 -8.5t-32.5 -5.5l-170 -429q-35 -12 -83 -12l-177 441q-35 11 -67 14q0 11 1 22.5t5 22.5q27 0 54.5 -1t57.5 -1h27h30t29 0.5t24 1.5q3 -11 4 -22t1 -23l-73 -13l122 -296l6 -68h1 l141 364z" />
<glyph unicode="w" horiz-adv-x="846" d="M91 437q-35 11 -67 14q0 11 1 22.5t5 22.5q27 0 54.5 -1t57.5 -1h27h30t28.5 0.5t23.5 1.5q6 -22 5 -45l-72 -13l87 -293l4 -71h1l122 414q17 5 38.5 8t42.5 3l103 -353l4 -71h1l104 364l-78 12q0 24 7 45q26 0 50.5 -1t48.5 -1h47t48 2q3 -11 4 -22t1 -23 q-14 -5 -30 -8.5t-33 -5.5l-127 -429q-17 -6 -43.5 -9t-49.5 -3l-96 319l-4 78h-1l-115 -385q-17 -6 -45.5 -9t-51.5 -3z" />
<glyph unicode="x" horiz-adv-x="594" d="M237 44q1 -12 -0.5 -23t-4.5 -22q-20 2 -50 2h-49q-25 0 -50 -1t-53 -1q-4 11 -5 22.5t-1 22.5q17 2 33.5 5t33.5 6l153 195l-147 187q-35 11 -67 14q0 11 1 22.5t5 22.5q28 0 56 -1t60 -1h28.5h31t29.5 0.5t24 1.5q6 -22 5 -45l-65 -13l105 -134l104 133l-68 14 q0 22 6 45q26 0 50 -1t47 -1h48.5t49.5 2q6 -22 5 -45q-14 -5 -30 -8.5t-33 -5.5l-142 -180l158 -199q17 -2 33 -5.5t31 -8.5q0 -12 -1 -23t-4 -22q-10 1 -24.5 1.5t-30.5 0.5h-32.5h-29.5q-33 0 -62 -1t-56 -1q-4 11 -5 22.5t-1 22.5l74 13l-116 146l-115 -146z" />
<glyph unicode="y" horiz-adv-x="585" d="M338 182v-63q0 -16 1 -31.5t3 -29.5q45 -3 86 -14q0 -12 -1 -23t-5 -22q-11 1 -27 1.5t-33.5 0.5h-35h-31.5q-36 0 -67.5 -1t-62.5 -1q-8 20 -8 45q23 2 46 5.5t46 8.5q4 19 4 45v66l-162 268q-17 5 -33.5 8.5t-33.5 5.5q0 11 1 22t5 23q28 0 56 -1t61 -1h60t53 2 q6 -20 4 -45l-71 -13l116 -188l116 188l-76 13q0 22 6 45q26 0 51 -1t50 -1h48t48 2q6 -22 5 -45q-14 -5 -29.5 -8.5t-32.5 -5.5z" />
<glyph unicode="z" horiz-adv-x="540" d="M54 1q-10 24 -10 55l312 381h-218q-5 -20 -8 -40.5t-5 -40.5q-13 -4 -26.5 -4.5t-26.5 4.5q-5 31 -7 62.5t-2 69.5l8 8q19 -1 44 -1.5t52 -0.5h53h48h177q19 -24 25 -55l-312 -381h244q17 47 30 91q14 2 26.5 1t26.5 -5q0 -32 -2 -65.5t-7 -72.5l-8 -8q-20 1 -44.5 1.5 t-51 0.5h-53h-48.5h-217z" />
<glyph unicode="{" horiz-adv-x="424" d="M288 422q0 -29 -30.5 -52t-75.5 -44q45 -17 75.5 -41.5t30.5 -53.5v-215q0 -12 2 -28.5t5 -33t6.5 -29.5t7.5 -17q8 -9 22 -19.5t31.5 -20.5t37 -20t38.5 -18q-2 -36 -21 -49q-45 10 -84 27t-68 41.5t-45.5 57t-16.5 73.5q0 16 1 41.5t2.5 53t3 54.5t1.5 48q0 35 -5 41 q-21 24 -46 42t-55 33q-10 21 -10 46q38 20 62.5 36.5t48.5 38.5q3 4 4 15.5t1 28.5q0 22 -1.5 50.5t-3 57.5t-2.5 54.5t-1 41.5q0 41 16.5 73.5t45.5 57.5t68 41.5t84 26.5q19 -16 21 -48q-19 -8 -38.5 -18t-37 -20.5t-31.5 -20.5t-22 -19q-4 -5 -7.5 -18t-6.5 -29.5 t-5 -33t-2 -27.5v-205v0z" />
<glyph unicode="|" horiz-adv-x="318" d="M122 850h74v-1058h-74v1058z" />
<glyph unicode="}" horiz-adv-x="424" d="M136 220q0 29 30.5 52t74.5 44q-44 17 -74.5 41.5t-30.5 53.5v215q0 12 -2 28.5t-5 33t-6.5 29.5t-7.5 17q-8 9 -22 19.5t-31.5 20.5t-37 20t-38.5 18q2 36 21 49q45 -10 84 -27t68 -41.5t45.5 -57t16.5 -73.5q0 -17 -1.5 -42t-3 -52.5t-2.5 -54.5t-1 -48q0 -35 5 -41 q21 -24 46 -42t55 -33q10 -21 10 -46q-38 -20 -62.5 -36.5t-48.5 -38.5q-3 -4 -4 -15.5t-1 -28.5q0 -22 1 -50.5t2.5 -57.5t3 -54.5t1.5 -41.5q0 -41 -16.5 -73.5t-45.5 -57.5t-68 -41.5t-84 -26.5q-19 16 -21 48q19 8 38.5 18t37 20.5t31.5 20.5t22 19q4 4 7.5 17.5t6.5 30 t5 33t2 27.5v205v0z" />
<glyph unicode="~" horiz-adv-x="488" d="M323 181q-24 0 -46 8t-42.5 17.5t-40 17.5t-39.5 8q-19 0 -47.5 -12t-52.5 -28q-24 16 -25 44q14 13 32 26.5t36.5 23.5t36 16.5t30.5 6.5q24 0 46 -8t42.5 -17.5t40 -17.5t39.5 -8q19 0 47.5 12t52.5 28q24 -16 25 -44q-14 -14 -32 -27t-36.5 -23t-36 -16.5t-30.5 -6.5z " />
<glyph unicode="&#xa1;" horiz-adv-x="299" d="M120 294q17 5 29 5t24 -5q14 -123 20.5 -222.5t6.5 -171.5q0 -26 -1 -51.5t-3 -44.5q-24 -6 -48 -6t-49 6q-2 17 -2.5 42t-0.5 51q0 72 6.5 172t17.5 225zM211 423q0 -24 -18 -40.5t-44 -16.5t-43.5 16.5t-17.5 40.5t17.5 42.5t43.5 18.5t44 -18.5t18 -42.5z" />
<glyph unicode="&#xa2;" horiz-adv-x="474" d="M241 -1q-48 4 -82.5 24t-56 52t-32 74t-10.5 90q0 40 12.5 81t36 75.5t57 59.5t75.5 34v88q12 5 24 4.5t26 -4.5v-84q47 -1 84 -9t64 -20q0 -72 -21 -130q-34 -10 -59 4q-1 21 -2.5 41.5t-5.5 41.5q-11 2 -26.5 3t-33.5 2v-356q30 1 62.5 9t76.5 25q16 -14 17 -38 q-15 -11 -33.5 -21.5t-39 -19.5t-42 -15.5t-41.5 -9.5v-79q-28 -6 -50 0v78zM145 267q0 -27 4.5 -56.5t16 -56.5t30 -48t45.5 -30v347q-14 -2 -27 -6.5t-19 -9.5q-21 -22 -35.5 -58.5t-14.5 -81.5z" />
<glyph unicode="&#xa3;" horiz-adv-x="453" d="M51 1q-5 14 -8 31t-1 37q47 9 64.5 49.5t20.5 106.5h-64q-9 30 0 58h65q2 46 14.5 87t34.5 71t52.5 47.5t69.5 17.5q65 0 124 -21q0 -40 -4.5 -72.5t-13.5 -61.5q-17 -2 -28.5 -1t-22.5 5q-2 21 -4 41t-7 40q-11 2 -25 3t-30 1q-19 0 -36 -6t-23 -14q-11 -15 -15.5 -53 t-4.5 -84h115q5 -14 4.5 -28.5t-4.5 -29.5h-117q-5 -51 -23.5 -88t-53.5 -66h212q9 23 16.5 45.5t13.5 46.5q14 2 27 1t27 -5q0 -38 -2 -74t-7 -78l-8 -8q-20 1 -45 1.5t-51.5 0.5h-52.5h-48h-161z" />
<glyph unicode="&#xa5;" horiz-adv-x="480" d="M180 293l-98 144q-25 9 -50 14q0 21 6 45q24 0 48.5 -1t51.5 -1h50t48 2q2 -11 3.5 -22t0.5 -23l-65 -12l91 -135l92 134l-67 13q0 11 1 22.5t4 22.5q23 0 44.5 -1t41.5 -1q15 0 40.5 0.5t42.5 1.5q2 -10 3.5 -21.5t0.5 -22.5q-11 -5 -23 -9t-25 -6l-97 -144h86 q4 -11 3.5 -23.5t-3.5 -25.5h-113v-51h113q4 -11 3.5 -23.5t-3.5 -26.5h-113v-24q0 -33 3 -61q24 -2 45.5 -5.5t40.5 -8.5q2 -25 -5 -45q-12 1 -28 1.5t-33.5 0.5h-34.5h-31q-35 0 -66 -1t-62 -1q-8 20 -8 45q23 2 45.5 5.5t45.5 8.5q3 11 4 26.5t1 26.5v32h-114q-6 25 0 50 h114v51h-114q-6 24 0 49h80z" />
<glyph unicode="&#xa6;" horiz-adv-x="314" d="M120 850h74v-457h-74v457zM120 249h74v-457h-74v457z" />
<glyph unicode="&#xa7;" horiz-adv-x="478" d="M444 275q0 -51 -30 -88.5t-76 -67.5q26 -20 43.5 -45t17.5 -60q0 -43 -16.5 -73t-41 -49t-53.5 -27.5t-53 -8.5q-44 0 -86.5 7.5t-78.5 21.5q1 35 6 67.5t13 62.5q30 6 53 -4q1 -22 3 -42.5t5 -40.5q19 -6 43.5 -9t47.5 -3q20 0 36 4t19 7q12 10 19 25.5t7 39.5 q0 29 -21.5 50t-53.5 38t-69 33.5t-69 37t-53.5 48t-21.5 67.5q0 51 29.5 88t76.5 68q-27 20 -44 45t-17 60q0 43 16.5 73t41 49t53.5 27.5t53 8.5q44 0 86.5 -7.5t78.5 -21.5q-1 -35 -6 -67.5t-13 -62.5q-30 -6 -53 4q-1 22 -3 42.5t-5 40.5q-19 6 -43.5 9t-47.5 3 q-20 0 -36 -4t-19 -7q-12 -10 -19 -25.5t-7 -39.5q0 -29 21.5 -50t53.5 -38t69 -33.5t69 -37t53.5 -48t21.5 -67.5zM362 258q0 25 -17 44t-44 34.5t-59.5 30t-62.5 31.5q-34 -32 -48.5 -60t-14.5 -55q0 -26 17 -45t43.5 -34.5t59 -30t63.5 -30.5q33 32 48 60t15 55z" />
<glyph unicode="&#xa8;" horiz-adv-x="415" d="M112 554q-19 0 -34.5 13t-15.5 32q0 12 4.5 23.5t12 21.5t18.5 16t24 6q18 0 34 -13.5t16 -33.5q0 -24 -17 -44t-42 -21zM293 554q-17 0 -33.5 13t-16.5 32q0 12 4.5 23.5t12.5 21.5t19 16t23 6q20 0 35 -13.5t15 -33.5q0 -24 -16.5 -44t-42.5 -21z" />
<glyph unicode="&#xa9;" horiz-adv-x="755" d="M434 454q-20 3 -55 3q-20 0 -38 -3.5t-25 -8.5q-4 -3 -11 -11.5t-13.5 -21.5t-11 -31t-4.5 -39q0 -31 7 -57.5t21 -46t36.5 -31t53.5 -11.5q12 0 25.5 1.5t22.5 3.5q2 17 4 32.5t3 31.5q21 7 45 4q5 -24 6.5 -49.5t1.5 -58.5q-25 -8 -56 -14t-66 -6q-45 0 -78.5 14 t-55.5 38.5t-32.5 57t-10.5 69.5q0 34 11.5 68.5t35 62t58.5 44.5t82 17q36 0 61.5 -4t45.5 -12q0 -34 -3 -58.5t-10 -45.5q-23 -3 -42 4q-2 15 -3.5 29.5t-4.5 28.5zM40 323q0 70 26.5 131.5t72 107.5t107 72.5t131.5 26.5t131.5 -26.5t107.5 -72.5t72.5 -107.5 t26.5 -131.5t-26.5 -131.5t-72.5 -107.5t-107.5 -72.5t-131.5 -26.5t-131.5 26.5t-107 72.5t-72 107.5t-26.5 131.5zM108 323q0 -57 20.5 -107.5t57 -88t85.5 -59t106 -21.5t106.5 21.5t85.5 59t57 88t21 107.5t-21 107t-57 87.5t-85.5 59.5t-106.5 22t-106 -22t-85.5 -59.5 t-57 -87.5t-20.5 -107z" />
<glyph unicode="&#xaa;" horiz-adv-x="334" d="M21 398q0 25 17 44.5t43 34t57 24t60 15.5q-2 29 -11 47t-35 18q-23 0 -45 -3q-3 -11 -4 -21t-1 -21q-25 -13 -49 -7q-18 29 -18 66q26 15 60 24t71 9q15 0 34 -3.5t35.5 -13.5t28 -29.5t11.5 -50.5v-151q22 3 44 8q11 -9 11 -25q-17 -16 -40 -27.5t-46 -11.5 q-11 0 -21.5 11.5t-17.5 30.5q-24 -18 -50.5 -30t-49.5 -12q-40 0 -62 19t-22 55zM139 381q14 0 29.5 6.5t29.5 15.5v64q-30 -4 -55 -9t-30 -9q-6 -4 -9.5 -13.5t-3.5 -17.5q0 -14 10 -25.5t29 -11.5z" />
<glyph unicode="&#xab;" horiz-adv-x="577" d="M155 247l146 -185q-16 -26 -44 -38l-199 197q-3 25 6 52l195 194q23 -6 36 -30zM375 247l146 -185q-16 -26 -44 -38l-199 197q-3 25 6 52l195 194q23 -6 36 -30z" />
<glyph unicode="&#xac;" horiz-adv-x="560" d="M496 0q-33 -8 -66 0v225h-375q-8 33 0 66h441v-291z" />
<glyph unicode="&#xad;" horiz-adv-x="380" d="M65 210q-9 32 1 67l249 5q5 -17 5 -34t-5 -34z" />
<glyph unicode="&#xae;" horiz-adv-x="520" d="M71 532q0 -39 15 -73.5t40.5 -60t60 -40.5t73.5 -15t73.5 15t60 40.5t40.5 60t15 73.5t-15 73.5t-40.5 60t-60 40.5t-73.5 15t-73.5 -15t-60 -40.5t-40.5 -60t-15 -73.5zM14 532q0 50 19.5 93.5t53 76t78.5 51.5t95 19t94.5 -19t78.5 -51.5t53.5 -76t19.5 -93.5 t-19.5 -94t-53.5 -76.5t-78.5 -51t-94.5 -18.5t-95 18.5t-78.5 51t-53 76.5t-19.5 94zM275 656q38 0 54.5 -20.5t16.5 -45.5q0 -21 -11.5 -37.5t-29.5 -26.5q11 -21 23.5 -41t31.5 -20h7.5t9.5 2q9 -12 11 -28q-8 -4 -21.5 -9t-30.5 -5q-12 0 -23.5 8.5t-22 21.5t-18.5 28.5 t-13 29.5l-23 2v-44l28 -7q3 -20 -2 -33h-102q-4 8 -5 16.5t0 17.5l31 6v144l-31 7q-2 22 4 33zM236 613v-59h20q25 0 32 8.5t7 22.5q0 12 -8 20t-22 8h-29z" />
<glyph unicode="&#xaf;" horiz-adv-x="415" d="M344 617q12 -34 0 -67h-275q-5 17 -5 33.5t5 33.5h275z" />
<glyph unicode="&#xb1;" horiz-adv-x="560" d="M313 346h166q7 -34 0 -66h-166v-157q-17 -4 -33 -3.5t-33 3.5v157h-166q-4 17 -3.5 33t3.5 33h166v159q34 7 66 0v-159zM81 0q-4 17 -3.5 33t3.5 33h398q7 -34 0 -66h-398z" />
<glyph unicode="&#xb2;" horiz-adv-x="350" d="M175 783q27 0 50 -9t39 -23t25 -32t9 -36q0 -26 -11 -50.5t-30 -46.5t-43 -42t-51 -37l-43 -27h187q4 -14 4 -30t-4 -30l-7 -7q-15 1 -35 1.5t-41 0.5h-41.5h-38.5h-100q-5 14 -7.5 31t-2.5 35q39 26 72 50t57 46.5t38 43t14 39.5q0 28 -16.5 46.5t-44.5 18.5 q-8 0 -18 -1t-18 -3q-5 -18 -7 -37t-3 -38q-13 -3 -24.5 -3.5t-23.5 3.5q-7 24 -10.5 49.5t-3.5 58.5q59 29 129 29z" />
<glyph unicode="&#xb3;" horiz-adv-x="350" d="M293 700q0 -27 -16 -48t-45 -34q41 -10 59 -33t18 -50q0 -26 -12 -49t-33 -40.5t-49 -28t-60 -10.5q-29 0 -56.5 5t-54.5 14q0 34 2 60t7 50q11 3 22.5 3.5t23.5 -0.5q3 -18 6.5 -35.5t9.5 -34.5q8 -2 19 -3t22 -1q17 0 32.5 4t20.5 7q11 8 14 20t3 26q0 23 -19.5 37.5 t-46.5 14.5h-12t-11 -1l-7 7q-1 14 1 25.5t7 25.5q36 1 54 17.5t18 33.5t-14.5 30t-40.5 13q-22 0 -38 -3q-5 -15 -7 -31t-3 -33q-13 -2 -24.5 -2.5t-23.5 2.5q-7 21 -10.5 44.5t-3.5 51.5q61 29 131 29q24 0 45.5 -6.5t37 -18t25 -26.5t9.5 -32z" />
<glyph unicode="&#xb4;" horiz-adv-x="415" d="M258 717q25 7 49.5 9.5t49.5 2.5l8 -23l-179 -184q-25 6 -38 28z" />
<glyph unicode="&#xb5;" horiz-adv-x="586" d="M412 147q-24 -81 -63.5 -119.5t-87.5 -38.5t-76.5 33.5t-43.5 93.5h-2l25 -362q-23 -9 -49 -9t-48 9q3 64 4 119.5t2 103.5t1 90.5v81.5t-0.5 81.5t-2 84.5t-3.5 80.5t-5 70.5q21 9 46 9t46 -9v-211q0 -40 7 -73t19 -57t29 -37t37 -13q27 0 50.5 18t40 47.5t26 68.5 t9.5 81v176q22 9 47 9q24 0 47 -9q-7 -54 -10 -98t-3 -81q0 -66 6.5 -113.5t18.5 -89.5q20 2 43 6.5t38 9.5q26 -23 21 -58q-21 -24 -49.5 -40t-54.5 -16q-14 0 -26 12.5t-20.5 34t-13 51t-3.5 63.5h-2z" />
<glyph unicode="&#xb6;" horiz-adv-x="563" d="M338 -113q12 9 21 46.5t9 112.5v161q-24 -8 -50 -12.5t-63 -4.5q-38 0 -78.5 14.5t-73.5 43.5t-54.5 72.5t-21.5 100.5q0 54 22.5 100t59.5 79.5t85.5 52.5t99.5 19q30 0 60.5 -1.5t65.5 -1.5h25h31.5t32 0.5t26.5 1.5q7 -23 6 -48q-18 -7 -38 -12t-43 -7 q-2 -28 -3 -60.5t-1 -77.5v-379q0 -70 -16.5 -126.5t-47 -96.5t-73.5 -61.5t-96 -21.5q-37 0 -71 7.5t-57 23.5q-2 29 6.5 54t28.5 42l10 3q21 -21 51 -33t58 -12q24 0 49 5t40 16zM307 266q15 0 30 1t31 3v337q-8 1 -16.5 1h-19.5q-27 0 -51.5 -6.5t-41.5 -18.5 q-11 -8 -23 -45t-12 -89q0 -38 7.5 -71.5t21.5 -58.5t32.5 -39t41.5 -14z" />
<glyph unicode="&#xb7;" horiz-adv-x="299" d="M145 170q-10 0 -20.5 4t-19.5 11.5t-14.5 17.5t-5.5 21q0 13 5.5 27t15 25.5t22 18.5t26.5 7q23 0 41.5 -16t18.5 -39q0 -14 -5.5 -27.5t-14.5 -24.5t-21.5 -18t-27.5 -7z" />
<glyph unicode="&#xb8;" horiz-adv-x="415" d="M209 -43q50 -2 74.5 -23t24.5 -54q0 -23 -13.5 -44.5t-37 -40t-54 -32t-64.5 -19.5q-11 10 -11 29q13 6 30 15t32 21t25.5 26t10.5 31q0 19 -18 32.5t-56 11.5l-8 8l51 102h42z" />
<glyph unicode="&#xb9;" horiz-adv-x="284" d="M105 463q3 18 3 36v220h-59q-7 15 -6 37q32 12 65.5 19t71.5 10l7 -7v-267q0 -13 0.5 -25t1.5 -23q17 -1 31.5 -3.5t28.5 -6.5q1 -11 -0.5 -20.5t-3.5 -19.5q-7 1 -18.5 1.5t-25 0.5h-27.5h-27q-32 0 -54.5 -1t-45.5 -1q-3 10 -4 20t-1 20q16 1 31.5 3.5t31.5 6.5z" />
<glyph unicode="&#xba;" horiz-adv-x="344" d="M176 628q38 0 65.5 -11t45.5 -31t26.5 -47t8.5 -58q0 -28 -10.5 -56t-30 -50.5t-48 -36.5t-65.5 -14q-74 0 -110 41t-36 106q0 28 10.5 56t30 50.5t48.5 36.5t65 14zM179 377q9 0 21 2t17 7q12 13 19.5 33.5t7.5 45.5q0 18 -4 37t-13 35.5t-24 27t-37 10.5q-9 0 -21 -2 t-17 -7q-12 -13 -19.5 -33.5t-7.5 -45.5q0 -18 4 -37t13 -35.5t24 -27t37 -10.5z" />
<glyph unicode="&#xbb;" horiz-adv-x="579" d="M201 243l-145 186q14 25 44 37l199 -198q5 -26 -6 -52l-195 -193q-13 5 -21.5 11.5t-13.5 19.5zM422 243l-145 186q14 25 44 37l199 -198q5 -26 -6 -52l-195 -193q-13 5 -21.5 11.5t-13.5 19.5z" />
<glyph unicode="&#xbc;" horiz-adv-x="916" d="M152 382q3 18 3 36v220h-59q-7 15 -6 37q32 12 65.5 19t71.5 10l7 -7v-267q0 -13 0.5 -25t1.5 -23q17 -1 31.5 -3.5t28.5 -6.5q1 -11 -0.5 -20.5t-3.5 -19.5q-7 1 -18.5 1.5t-25 0.5h-27.5h-27q-32 0 -54.5 -1t-45.5 -1q-3 10 -4 20t-1 20q16 1 31.5 3.5t31.5 6.5z M637 697q18 -4 30 -12.5t21 -20.5l-435 -685q-16 5 -28.5 12t-22.5 20zM738 30v94h-146q-7 12 -9.5 25.5t-2.5 28.5l163 217q40 0 71 -14v-206l67 -4q2 -14 1 -24.5t-4 -22.5h-64v-86q-16 -8 -34 -11.5t-35 -3.5zM638 174h100v130z" />
<glyph unicode="&#xbd;" horiz-adv-x="916" d="M152 382q3 18 3 36v220h-59q-7 15 -6 37q32 12 65.5 19t71.5 10l7 -7v-267q0 -13 0.5 -25t1.5 -23q17 -1 31.5 -3.5t28.5 -6.5q1 -11 -0.5 -20.5t-3.5 -19.5q-7 1 -18.5 1.5t-25 0.5h-27.5h-27q-32 0 -54.5 -1t-45.5 -1q-3 10 -4 20t-1 20q16 1 31.5 3.5t31.5 6.5z M637 697q18 -4 30 -12.5t21 -20.5l-435 -685q-16 5 -28.5 12t-22.5 20zM731 399q27 0 50 -9t39 -23t25 -32t9 -36q0 -26 -11 -50.5t-30 -46.5t-43 -42t-51 -37l-43 -27h187q4 -14 4 -30t-4 -30l-7 -7q-15 1 -35 1.5t-41 0.5h-41.5h-38.5h-100q-5 14 -7.5 31t-2.5 35 q39 26 72 50t57 46.5t38 43t14 39.5q0 28 -16.5 46.5t-44.5 18.5q-8 0 -18 -1t-18 -3q-5 -18 -7 -37t-3 -38q-13 -3 -24.5 -3.5t-23.5 3.5q-7 24 -10.5 49.5t-3.5 58.5q59 29 129 29z" />
<glyph unicode="&#xbe;" horiz-adv-x="916" d="M303 619q0 -27 -16 -48t-45 -34q41 -10 59 -33t18 -50q0 -26 -12 -49t-33 -40.5t-49 -28t-60 -10.5q-29 0 -56.5 5t-54.5 14q0 34 2 60t7 50q11 3 22.5 3.5t23.5 -0.5q3 -18 6.5 -35.5t9.5 -34.5q8 -2 19 -3t22 -1q17 0 32.5 4t20.5 7q11 8 14 20t3 26q0 23 -19.5 37.5 t-46.5 14.5h-12t-11 -1l-7 7q-1 14 1 25.5t7 25.5q36 1 54 17.5t18 33.5t-14.5 30t-40.5 13q-22 0 -38 -3q-5 -15 -7 -31t-3 -33q-13 -2 -24.5 -2.5t-23.5 2.5q-7 21 -10.5 44.5t-3.5 51.5q61 29 131 29q24 0 45.5 -6.5t37 -18t25 -26.5t9.5 -32zM637 697q18 -4 30 -12.5 t21 -20.5l-435 -685q-16 5 -28.5 12t-22.5 20zM738 30v94h-146q-7 12 -9.5 25.5t-2.5 28.5l163 217q40 0 71 -14v-206l67 -4q2 -14 1 -24.5t-4 -22.5h-64v-86q-16 -8 -34 -11.5t-35 -3.5zM638 174h100v130z" />
<glyph unicode="&#xbf;" horiz-adv-x="398" d="M292 -32q28 10 52 4q9 -38 13 -74.5t4 -74.5q-24 -14 -67 -26t-90 -12q-44 0 -77 13t-55.5 36t-33.5 54.5t-11 68.5q0 50 18.5 85t43 61t49 45.5t37.5 39.5q4 6 6 17.5t3 25t1 27v23.5q13 11 34 14.5t39 -1.5q6 -23 10.5 -50.5t4.5 -56.5q0 -25 -25 -47t-55 -45.5 t-55 -50.5t-25 -61q0 -25 8.5 -47t23.5 -38.5t35.5 -26t44.5 -9.5q26 0 46 3q8 26 13 50t8 53zM280 423q0 -24 -18 -40.5t-44 -16.5t-43.5 16.5t-17.5 40.5t17.5 42.5t43.5 18.5t44 -18.5t18 -42.5z" />
<glyph unicode="&#xc0;" horiz-adv-x="677" d="M441 221q-40 2 -81.5 3t-76.5 1h-73l-53 -159l88 -19q1 -26 -6 -48q-11 1 -26.5 1.5t-31 0.5h-30h-23.5q-25 0 -54 -1t-61 -1q-5 12 -6.5 24t-1.5 24q20 2 40 7t40 12l205 595q20 8 41.5 11t46.5 3l215 -609q20 -2 38.5 -7t35.5 -12q1 -26 -6 -48q-11 1 -27 1.5 t-33.5 0.5h-34.5h-29q-33 0 -64 -1t-63 -1q-5 12 -6.5 24t-1.5 24l94 19zM230 286h189l-81 230l-5 73h-1zM416 768q-3 -10 -8.5 -20.5t-13.5 -18.5l-211 95l-5 20q9 18 22.5 31.5t36.5 26.5z" />
<glyph unicode="&#xc1;" horiz-adv-x="677" d="M441 221q-40 2 -81.5 3t-76.5 1h-73l-53 -159l88 -19q1 -26 -6 -48q-11 1 -26.5 1.5t-31 0.5h-30h-23.5q-25 0 -54 -1t-61 -1q-5 12 -6.5 24t-1.5 24q20 2 40 7t40 12l205 595q20 8 41.5 11t46.5 3l215 -609q20 -2 38.5 -7t35.5 -12q1 -26 -6 -48q-11 1 -27 1.5 t-33.5 0.5h-34.5h-29q-33 0 -64 -1t-63 -1q-5 12 -6.5 24t-1.5 24l94 19zM230 286h189l-81 230l-5 73h-1zM449 897q29 -17 51 -57l-3 -20l-213 -93q-8 7 -13 18t-8 22z" />
<glyph unicode="&#xc2;" horiz-adv-x="677" d="M441 221q-40 2 -81.5 3t-76.5 1h-73l-53 -159l88 -19q1 -26 -6 -48q-11 1 -26.5 1.5t-31 0.5h-30h-23.5q-25 0 -54 -1t-61 -1q-5 12 -6.5 24t-1.5 24q20 2 40 7t40 12l205 595q20 8 41.5 11t46.5 3l215 -609q20 -2 38.5 -7t35.5 -12q1 -26 -6 -48q-11 1 -27 1.5 t-33.5 0.5h-34.5h-29q-33 0 -64 -1t-63 -1q-5 12 -6.5 24t-1.5 24l94 19zM230 286h189l-81 230l-5 73h-1zM340 812l-133 -93q-19 12 -27 34l128 134q30 6 63 6l137 -135q-11 -24 -33 -39z" />
<glyph unicode="&#xc3;" horiz-adv-x="677" d="M441 221q-40 2 -81.5 3t-76.5 1h-73l-53 -159l88 -19q1 -26 -6 -48q-11 1 -26.5 1.5t-31 0.5h-30h-23.5q-25 0 -54 -1t-61 -1q-5 12 -6.5 24t-1.5 24q20 2 40 7t40 12l205 595q20 8 41.5 11t46.5 3l215 -609q20 -2 38.5 -7t35.5 -12q1 -26 -6 -48q-11 1 -27 1.5 t-33.5 0.5h-34.5h-29q-33 0 -64 -1t-63 -1q-5 12 -6.5 24t-1.5 24l94 19zM230 286h189l-81 230l-5 73h-1zM194 744q-25 7 -33 27q23 44 58 72t65 28q19 0 37 -10t34.5 -22.5t32.5 -22.5t32 -10q11 0 31 14.5t39 39.5q25 -7 33 -27q-23 -44 -58 -72t-65 -28q-20 0 -37.5 10 t-34 22.5t-32.5 22.5t-32 10q-11 0 -31 -14.5t-39 -39.5z" />
<glyph unicode="&#xc4;" horiz-adv-x="677" d="M441 221q-40 2 -81.5 3t-76.5 1h-73l-53 -159l88 -19q1 -26 -6 -48q-11 1 -26.5 1.5t-31 0.5h-30h-23.5q-25 0 -54 -1t-61 -1q-5 12 -6.5 24t-1.5 24q20 2 40 7t40 12l205 595q20 8 41.5 11t46.5 3l215 -609q20 -2 38.5 -7t35.5 -12q1 -26 -6 -48q-11 1 -27 1.5 t-33.5 0.5h-34.5h-29q-33 0 -64 -1t-63 -1q-5 12 -6.5 24t-1.5 24l94 19zM230 286h189l-81 230l-5 73h-1zM247 743q-18 0 -33.5 12.5t-15.5 30.5q0 23 16 44t42 21q17 0 32.5 -12.5t15.5 -32.5q0 -23 -16.5 -42.5t-40.5 -20.5zM430 743q-17 0 -32.5 12.5t-15.5 30.5 q0 11 4.5 22.5t12 21t18 15.5t22.5 6q19 0 34 -12.5t15 -32.5q0 -23 -16 -42.5t-42 -20.5z" />
<glyph unicode="&#xc5;" horiz-adv-x="677" d="M441 221q-40 2 -81.5 3t-76.5 1h-73l-53 -159l88 -19q1 -26 -6 -48q-11 1 -26.5 1.5t-31 0.5h-30h-23.5q-25 0 -54 -1t-61 -1q-5 12 -6.5 24t-1.5 24q20 2 40 7t40 12l205 595q20 8 41.5 11t46.5 3l215 -609q20 -2 38.5 -7t35.5 -12q1 -26 -6 -48q-11 1 -27 1.5 t-33.5 0.5h-34.5h-29q-33 0 -64 -1t-63 -1q-5 12 -6.5 24t-1.5 24l94 19zM230 286h189l-81 230l-5 73h-1zM344 764q11 0 20.5 3.5t13.5 6.5q5 4 9 13t4 23q0 20 -14.5 35.5t-34.5 15.5q-11 0 -20.5 -3t-13.5 -6q-5 -4 -9 -13t-4 -23q0 -19 14.5 -35.5t34.5 -16.5zM338 713 q-46 0 -73 24.5t-27 73.5q0 18 9 36.5t24.5 32.5t35.5 23t41 9q46 0 73 -24t27 -74q0 -18 -9 -36t-24.5 -32.5t-35.5 -23.5t-41 -9z" />
<glyph unicode="&#xc6;" horiz-adv-x="885" d="M244 47q1 -26 -6 -48q-11 1 -26.5 1.5t-31 0.5h-30h-23.5q-25 0 -54 -1t-61 -1q-5 12 -6.5 24t-1.5 24q20 2 40 7t40 12l247 541l-86 16q0 12 1.5 24t6.5 24q32 0 63 -1t64 -1h193h58h62.5t61 0.5t52.5 1.5l8 -8q3 -84 -9 -168q-31 -9 -53 0q-2 28 -5.5 56t-10.5 54h-218 v-248l200 4l8 -8q-1 -17 -3 -33t-7 -30l-198 3v-228h230q11 30 19.5 60t16.5 62q25 5 53 -4q0 -45 -2.5 -88t-8.5 -88l-8 -8q-23 1 -52.5 1.5t-61 0.5h-62.5h-58h-106q-33 0 -64 -1t-63 -1q-5 12 -6.5 24t-1.5 24q22 2 43.5 7t43.5 12q3 14 4 29.5t1 31.5v167h-176 l-104 -228zM289 357h147v247h-34z" />
<glyph unicode="&#xc7;" horiz-adv-x="606" d="M462 607q-20 3 -50.5 4.5t-61.5 1.5q-14 0 -33.5 -2.5t-38.5 -7t-35.5 -11t-25.5 -13.5q-14 -14 -28.5 -34t-26 -46.5t-19 -60t-7.5 -72.5q0 -62 13 -117.5t41.5 -98.5t74.5 -68t113 -25q25 0 52 2.5t45 6.5q6 33 9 63t5 59q24 10 53 4q8 -45 11.5 -88.5t3.5 -84.5 q-45 -14 -96 -24t-109 -10l-12 -28q50 -2 74.5 -23t24.5 -54q0 -23 -13.5 -44.5t-37 -40t-54 -32t-64.5 -19.5q-11 10 -11 29q13 6 30 15t32 21t25.5 26t10.5 31q0 19 -18 32.5t-56 11.5l-8 8l34 69q-67 7 -116.5 36t-82.5 74t-49 103t-16 123t21 130t62 116.5t101 83.5 t139 32q61 0 104 -7.5t79 -19.5q2 -84 -23 -165q-33 -6 -51 4q-3 56 -15 110z" />
<glyph unicode="&#xc8;" horiz-adv-x="583" d="M270 669h57.5h63t61.5 0.5t53 1.5l8 -8q3 -84 -9 -168q-27 -9 -53 0q-2 28 -5.5 56t-10.5 54h-223v-228l205 4l8 -8q-2 -37 -10 -62l-203 4v-250h235q11 30 19.5 60t16.5 62q25 5 53 -4q0 -45 -2.5 -88t-8.5 -88l-8 -8q-23 1 -53 1.5t-61.5 0.5h-63h-57.5h-115 q-33 0 -64 -1t-63 -1q-5 12 -6.5 24t-1.5 24q22 2 43.5 7t43.5 12q3 14 4 29.5t1 31.5v339q0 45 -1.5 77.5t-3.5 60.5q-22 7 -43.5 12t-43.5 7q0 12 1.5 24t6.5 24q32 0 63 -1t64 -1h103zM365 768q-3 -10 -8.5 -20.5t-13.5 -18.5l-211 95l-5 20q9 18 22.5 31.5t36.5 26.5z " />
<glyph unicode="&#xc9;" horiz-adv-x="583" d="M270 669h57.5h63t61.5 0.5t53 1.5l8 -8q3 -84 -9 -168q-27 -9 -53 0q-2 28 -5.5 56t-10.5 54h-223v-228l205 4l8 -8q-2 -37 -10 -62l-203 4v-250h235q11 30 19.5 60t16.5 62q25 5 53 -4q0 -45 -2.5 -88t-8.5 -88l-8 -8q-23 1 -53 1.5t-61.5 0.5h-63h-57.5h-115 q-33 0 -64 -1t-63 -1q-5 12 -6.5 24t-1.5 24q22 2 43.5 7t43.5 12q3 14 4 29.5t1 31.5v339q0 45 -1.5 77.5t-3.5 60.5q-22 7 -43.5 12t-43.5 7q0 12 1.5 24t6.5 24q32 0 63 -1t64 -1h103zM398 897q29 -17 51 -57l-3 -20l-213 -93q-8 7 -13 18t-8 22z" />
<glyph unicode="&#xca;" horiz-adv-x="583" d="M270 669h57.5h63t61.5 0.5t53 1.5l8 -8q3 -84 -9 -168q-27 -9 -53 0q-2 28 -5.5 56t-10.5 54h-223v-228l205 4l8 -8q-2 -37 -10 -62l-203 4v-250h235q11 30 19.5 60t16.5 62q25 5 53 -4q0 -45 -2.5 -88t-8.5 -88l-8 -8q-23 1 -53 1.5t-61.5 0.5h-63h-57.5h-115 q-33 0 -64 -1t-63 -1q-5 12 -6.5 24t-1.5 24q22 2 43.5 7t43.5 12q3 14 4 29.5t1 31.5v339q0 45 -1.5 77.5t-3.5 60.5q-22 7 -43.5 12t-43.5 7q0 12 1.5 24t6.5 24q32 0 63 -1t64 -1h103zM289 812l-133 -93q-19 12 -27 34l128 134q30 6 63 6l137 -135q-11 -24 -33 -39z" />
<glyph unicode="&#xcb;" horiz-adv-x="583" d="M270 669h57.5h63t61.5 0.5t53 1.5l8 -8q3 -84 -9 -168q-27 -9 -53 0q-2 28 -5.5 56t-10.5 54h-223v-228l205 4l8 -8q-2 -37 -10 -62l-203 4v-250h235q11 30 19.5 60t16.5 62q25 5 53 -4q0 -45 -2.5 -88t-8.5 -88l-8 -8q-23 1 -53 1.5t-61.5 0.5h-63h-57.5h-115 q-33 0 -64 -1t-63 -1q-5 12 -6.5 24t-1.5 24q22 2 43.5 7t43.5 12q3 14 4 29.5t1 31.5v339q0 45 -1.5 77.5t-3.5 60.5q-22 7 -43.5 12t-43.5 7q0 12 1.5 24t6.5 24q32 0 63 -1t64 -1h103zM196 743q-18 0 -33.5 12.5t-15.5 30.5q0 23 16 44t42 21q17 0 32.5 -12.5t15.5 -32.5 q0 -23 -16.5 -42.5t-40.5 -20.5zM379 743q-17 0 -32.5 12.5t-15.5 30.5q0 11 4.5 22.5t12 21t18 15.5t22.5 6q19 0 34 -12.5t15 -32.5q0 -23 -16 -42.5t-42 -20.5z" />
<glyph unicode="&#xcc;" horiz-adv-x="334" d="M119 604q-22 7 -43.5 12t-43.5 7q0 12 1.5 24t6.5 24q32 0 63 -1t64 -1h29h34.5t33.5 0.5t27 1.5q7 -23 6 -48q-18 -7 -38 -12t-43 -7q-2 -28 -3 -60.5t-1 -77.5v-317q0 -22 1 -42.5t3 -40.5q23 -2 43 -7t38 -12q1 -26 -6 -48q-11 1 -27 1.5t-33.5 0.5h-34.5h-29 q-33 0 -64 -1t-63 -1q-5 12 -6.5 24t-1.5 24q22 2 43.5 7t43.5 12q3 14 4 29.5t1 31.5v339q0 45 -1.5 77.5t-3.5 60.5zM241 768q-3 -10 -8.5 -20.5t-13.5 -18.5l-211 95l-5 20q9 18 22.5 31.5t36.5 26.5z" />
<glyph unicode="&#xcd;" horiz-adv-x="334" d="M119 604q-22 7 -43.5 12t-43.5 7q0 12 1.5 24t6.5 24q32 0 63 -1t64 -1h29h34.5t33.5 0.5t27 1.5q7 -23 6 -48q-18 -7 -38 -12t-43 -7q-2 -28 -3 -60.5t-1 -77.5v-317q0 -22 1 -42.5t3 -40.5q23 -2 43 -7t38 -12q1 -26 -6 -48q-11 1 -27 1.5t-33.5 0.5h-34.5h-29 q-33 0 -64 -1t-63 -1q-5 12 -6.5 24t-1.5 24q22 2 43.5 7t43.5 12q3 14 4 29.5t1 31.5v339q0 45 -1.5 77.5t-3.5 60.5zM274 897q29 -17 51 -57l-3 -20l-213 -93q-8 7 -13 18t-8 22z" />
<glyph unicode="&#xce;" horiz-adv-x="334" d="M119 604q-22 7 -43.5 12t-43.5 7q0 12 1.5 24t6.5 24q32 0 63 -1t64 -1h29h34.5t33.5 0.5t27 1.5q7 -23 6 -48q-18 -7 -38 -12t-43 -7q-2 -28 -3 -60.5t-1 -77.5v-317q0 -22 1 -42.5t3 -40.5q23 -2 43 -7t38 -12q1 -26 -6 -48q-11 1 -27 1.5t-33.5 0.5h-34.5h-29 q-33 0 -64 -1t-63 -1q-5 12 -6.5 24t-1.5 24q22 2 43.5 7t43.5 12q3 14 4 29.5t1 31.5v339q0 45 -1.5 77.5t-3.5 60.5zM165 812l-133 -93q-19 12 -27 34l128 134q30 6 63 6l137 -135q-11 -24 -33 -39z" />
<glyph unicode="&#xcf;" horiz-adv-x="334" d="M119 604q-22 7 -43.5 12t-43.5 7q0 12 1.5 24t6.5 24q32 0 63 -1t64 -1h29h34.5t33.5 0.5t27 1.5q7 -23 6 -48q-18 -7 -38 -12t-43 -7q-2 -28 -3 -60.5t-1 -77.5v-317q0 -22 1 -42.5t3 -40.5q23 -2 43 -7t38 -12q1 -26 -6 -48q-11 1 -27 1.5t-33.5 0.5h-34.5h-29 q-33 0 -64 -1t-63 -1q-5 12 -6.5 24t-1.5 24q22 2 43.5 7t43.5 12q3 14 4 29.5t1 31.5v339q0 45 -1.5 77.5t-3.5 60.5zM72 743q-18 0 -33.5 12.5t-15.5 30.5q0 23 16 44t42 21q17 0 32.5 -12.5t15.5 -32.5q0 -23 -16.5 -42.5t-40.5 -20.5zM255 743q-17 0 -32.5 12.5 t-15.5 30.5q0 11 4.5 22.5t12 21t18 15.5t22.5 6q19 0 34 -12.5t15 -32.5q0 -23 -16 -42.5t-42 -20.5z" />
<glyph unicode="&#xd0;" horiz-adv-x="666" d="M170 1q-33 0 -64 -1t-63 -1q-5 12 -6.5 24t-1.5 24q22 2 43.5 7t43.5 12q3 14 4 29.5t1 31.5v181h-89q-3 16 -3.5 32.5t3.5 33.5h89v92q0 45 -1.5 77.5t-3.5 60.5q-22 7 -43.5 12t-43.5 7q0 12 1.5 24t6.5 24q32 0 63 -1t64 -1q54 0 96.5 2t78.5 2q67 0 118.5 -24.5 t86.5 -68.5t53 -104.5t18 -131.5q0 -65 -20 -127.5t-58.5 -111t-94 -78.5t-127.5 -30q-31 0 -68 2t-83 2zM215 308v-244h90q19 0 40 2.5t40.5 6t34.5 8.5t22 11q16 13 32 31.5t28.5 44t20 59t7.5 75.5q0 56 -12 111t-38 98.5t-66.5 70t-97.5 26.5q-26 0 -52 -1t-49 -2v-231 h132q6 -33 0 -66h-132z" />
<glyph unicode="&#xd1;" horiz-adv-x="741" d="M634 9q-45 -12 -94 -14l-315 520l-29 90h-1v-456q0 -22 1 -42.5t3 -40.5q23 -2 43 -7t38 -12q1 -26 -6 -48q-11 1 -26.5 1.5t-32 0.5h-31.5h-25q-27 0 -57 -1t-62 -1q-5 12 -6.5 24t-1.5 24q22 2 43.5 7t43.5 12q3 14 4 29.5t1 31.5v339q0 45 -1.5 77.5t-3.5 60.5 q-22 7 -43.5 12t-43.5 7q0 12 1.5 24t6.5 24q32 0 62 -1t57 -1q22 0 45 -1t41 -3l290 -481l27 -90h1v372q0 45 -1.5 77.5t-3.5 60.5q-22 7 -43.5 12t-43.5 7q0 12 1.5 24t6.5 24q32 0 62 -1t57 -1h25h31.5t32 0.5t26.5 1.5q7 -23 6 -48q-18 -7 -38 -12t-43 -7 q-2 -28 -3 -60.5t-1 -77.5v-457v0zM226 744q-25 7 -33 27q23 44 58 72t65 28q19 0 37 -10t34.5 -22.5t32.5 -22.5t32 -10q11 0 31 14.5t39 39.5q25 -7 33 -27q-23 -44 -58 -72t-65 -28q-20 0 -37.5 10t-34 22.5t-32.5 22.5t-32 10q-11 0 -31 -14.5t-39 -39.5z" />
<glyph unicode="&#xd2;" horiz-adv-x="690" d="M336 -18q-71 0 -125.5 26.5t-91.5 72.5t-55.5 108t-18.5 134q0 65 21.5 130t61.5 117.5t97 85t129 32.5q70 0 124.5 -26.5t91.5 -72t56 -108t19 -134.5q0 -65 -21.5 -130.5t-61.5 -117.5t-97 -84.5t-129 -32.5zM364 54q12 0 27.5 2.5t31.5 7t29.5 11t20.5 13.5 q14 13 28.5 34t26 48t19 60.5t7.5 73.5q0 62 -13 118.5t-40.5 99.5t-70.5 68.5t-104 25.5q-12 0 -27.5 -2.5t-31.5 -7t-29.5 -11t-20.5 -13.5q-14 -14 -28.5 -34.5t-26 -47.5t-19 -60.5t-7.5 -73.5q0 -62 13 -118.5t40.5 -99.5t70.5 -68.5t104 -25.5zM427 768 q-3 -10 -8.5 -20.5t-13.5 -18.5l-211 95l-5 20q9 18 22.5 31.5t36.5 26.5z" />
<glyph unicode="&#xd3;" horiz-adv-x="690" d="M336 -18q-71 0 -125.5 26.5t-91.5 72.5t-55.5 108t-18.5 134q0 65 21.5 130t61.5 117.5t97 85t129 32.5q70 0 124.5 -26.5t91.5 -72t56 -108t19 -134.5q0 -65 -21.5 -130.5t-61.5 -117.5t-97 -84.5t-129 -32.5zM364 54q12 0 27.5 2.5t31.5 7t29.5 11t20.5 13.5 q14 13 28.5 34t26 48t19 60.5t7.5 73.5q0 62 -13 118.5t-40.5 99.5t-70.5 68.5t-104 25.5q-12 0 -27.5 -2.5t-31.5 -7t-29.5 -11t-20.5 -13.5q-14 -14 -28.5 -34.5t-26 -47.5t-19 -60.5t-7.5 -73.5q0 -62 13 -118.5t40.5 -99.5t70.5 -68.5t104 -25.5zM460 897q29 -17 51 -57 l-3 -20l-213 -93q-8 7 -13 18t-8 22z" />
<glyph unicode="&#xd4;" horiz-adv-x="690" d="M336 -18q-71 0 -125.5 26.5t-91.5 72.5t-55.5 108t-18.5 134q0 65 21.5 130t61.5 117.5t97 85t129 32.5q70 0 124.5 -26.5t91.5 -72t56 -108t19 -134.5q0 -65 -21.5 -130.5t-61.5 -117.5t-97 -84.5t-129 -32.5zM364 54q12 0 27.5 2.5t31.5 7t29.5 11t20.5 13.5 q14 13 28.5 34t26 48t19 60.5t7.5 73.5q0 62 -13 118.5t-40.5 99.5t-70.5 68.5t-104 25.5q-12 0 -27.5 -2.5t-31.5 -7t-29.5 -11t-20.5 -13.5q-14 -14 -28.5 -34.5t-26 -47.5t-19 -60.5t-7.5 -73.5q0 -62 13 -118.5t40.5 -99.5t70.5 -68.5t104 -25.5zM351 812l-133 -93 q-19 12 -27 34l128 134q30 6 63 6l137 -135q-11 -24 -33 -39z" />
<glyph unicode="&#xd5;" horiz-adv-x="690" d="M336 -18q-71 0 -125.5 26.5t-91.5 72.5t-55.5 108t-18.5 134q0 65 21.5 130t61.5 117.5t97 85t129 32.5q70 0 124.5 -26.5t91.5 -72t56 -108t19 -134.5q0 -65 -21.5 -130.5t-61.5 -117.5t-97 -84.5t-129 -32.5zM364 54q12 0 27.5 2.5t31.5 7t29.5 11t20.5 13.5 q14 13 28.5 34t26 48t19 60.5t7.5 73.5q0 62 -13 118.5t-40.5 99.5t-70.5 68.5t-104 25.5q-12 0 -27.5 -2.5t-31.5 -7t-29.5 -11t-20.5 -13.5q-14 -14 -28.5 -34.5t-26 -47.5t-19 -60.5t-7.5 -73.5q0 -62 13 -118.5t40.5 -99.5t70.5 -68.5t104 -25.5zM205 744q-25 7 -33 27 q23 44 58 72t65 28q19 0 37 -10t34.5 -22.5t32.5 -22.5t32 -10q11 0 31 14.5t39 39.5q25 -7 33 -27q-23 -44 -58 -72t-65 -28q-20 0 -37.5 10t-34 22.5t-32.5 22.5t-32 10q-11 0 -31 -14.5t-39 -39.5z" />
<glyph unicode="&#xd6;" horiz-adv-x="690" d="M336 -18q-71 0 -125.5 26.5t-91.5 72.5t-55.5 108t-18.5 134q0 65 21.5 130t61.5 117.5t97 85t129 32.5q70 0 124.5 -26.5t91.5 -72t56 -108t19 -134.5q0 -65 -21.5 -130.5t-61.5 -117.5t-97 -84.5t-129 -32.5zM364 54q12 0 27.5 2.5t31.5 7t29.5 11t20.5 13.5 q14 13 28.5 34t26 48t19 60.5t7.5 73.5q0 62 -13 118.5t-40.5 99.5t-70.5 68.5t-104 25.5q-12 0 -27.5 -2.5t-31.5 -7t-29.5 -11t-20.5 -13.5q-14 -14 -28.5 -34.5t-26 -47.5t-19 -60.5t-7.5 -73.5q0 -62 13 -118.5t40.5 -99.5t70.5 -68.5t104 -25.5zM258 743 q-18 0 -33.5 12.5t-15.5 30.5q0 23 16 44t42 21q17 0 32.5 -12.5t15.5 -32.5q0 -23 -16.5 -42.5t-40.5 -20.5zM441 743q-17 0 -32.5 12.5t-15.5 30.5q0 11 4.5 22.5t12 21t18 15.5t22.5 6q19 0 34 -12.5t15 -32.5q0 -23 -16 -42.5t-42 -20.5z" />
<glyph unicode="&#xd7;" horiz-adv-x="560" d="M279 303l133 133q15 -9 26 -20.5t21 -25.5l-133 -133l132 -132q-20 -29 -47 -46l-132 131l-131 -131q-15 9 -26 21t-20 26l131 131l-132 132q17 28 46 47z" />
<glyph unicode="&#xd8;" horiz-adv-x="690" d="M149 48q-52 47 -78 118t-26 157q0 65 21.5 130t61.5 117.5t97 85t129 32.5q77 0 136 -32l39 73q32 -4 52 -27l-43 -80q53 -46 80 -117.5t27 -157.5q0 -65 -21.5 -130.5t-61.5 -117.5t-97 -84.5t-129 -32.5q-40 0 -74 8.5t-63 23.5l-41 -74q-17 4 -30 10.5t-21 17.5z M364 54q12 0 27.5 2.5t31.5 7t29.5 11t20.5 13.5q14 13 28.5 34t26 48t19 60.5t7.5 73.5q0 69 -15.5 130t-50.5 105l-244 -450q24 -17 54 -26t66 -9zM136 366q0 -69 15.5 -129.5t48.5 -104.5l243 450q-23 16 -52.5 25t-64.5 9q-12 0 -27.5 -2.5t-31.5 -7t-29.5 -11 t-20.5 -13.5q-14 -14 -28.5 -34.5t-26 -47.5t-19 -60.5t-7.5 -73.5z" />
<glyph unicode="&#xd9;" horiz-adv-x="695" d="M599 247q0 -58 -15.5 -106.5t-48.5 -84t-83.5 -55t-120.5 -19.5q-113 0 -171 58.5t-58 193.5v232q0 45 -1.5 77.5t-3.5 60.5q-22 7 -43.5 12t-43.5 7q0 12 1.5 24t6.5 24q32 0 63 -1t64 -1h29h34t33 0.5t27 1.5q7 -23 6 -48q-18 -7 -38 -12t-43 -7q-2 -28 -2.5 -60.5 t-0.5 -77.5v-201q0 -55 8.5 -94.5t28.5 -65.5t54 -38.5t84 -12.5q42 0 76.5 11.5t45.5 23.5q14 15 23 38.5t13.5 49t4.5 58.5v231q0 45 -1.5 77.5t-3.5 60.5q-22 7 -43.5 12t-43.5 7q0 12 1.5 24t6.5 24q32 0 63 -1t64 -1h53t54 2q7 -23 6 -48q-18 -7 -38 -12t-43 -7 q-2 -28 -3 -60.5t-1 -77.5v-219zM431 768q-3 -10 -8.5 -20.5t-13.5 -18.5l-211 95l-5 20q9 18 22.5 31.5t36.5 26.5z" />
<glyph unicode="&#xda;" horiz-adv-x="695" d="M599 247q0 -58 -15.5 -106.5t-48.5 -84t-83.5 -55t-120.5 -19.5q-113 0 -171 58.5t-58 193.5v232q0 45 -1.5 77.5t-3.5 60.5q-22 7 -43.5 12t-43.5 7q0 12 1.5 24t6.5 24q32 0 63 -1t64 -1h29h34t33 0.5t27 1.5q7 -23 6 -48q-18 -7 -38 -12t-43 -7q-2 -28 -2.5 -60.5 t-0.5 -77.5v-201q0 -55 8.5 -94.5t28.5 -65.5t54 -38.5t84 -12.5q42 0 76.5 11.5t45.5 23.5q14 15 23 38.5t13.5 49t4.5 58.5v231q0 45 -1.5 77.5t-3.5 60.5q-22 7 -43.5 12t-43.5 7q0 12 1.5 24t6.5 24q32 0 63 -1t64 -1h53t54 2q7 -23 6 -48q-18 -7 -38 -12t-43 -7 q-2 -28 -3 -60.5t-1 -77.5v-219zM464 897q29 -17 51 -57l-3 -20l-213 -93q-8 7 -13 18t-8 22z" />
<glyph unicode="&#xdb;" horiz-adv-x="695" d="M599 247q0 -58 -15.5 -106.5t-48.5 -84t-83.5 -55t-120.5 -19.5q-113 0 -171 58.5t-58 193.5v232q0 45 -1.5 77.5t-3.5 60.5q-22 7 -43.5 12t-43.5 7q0 12 1.5 24t6.5 24q32 0 63 -1t64 -1h29h34t33 0.5t27 1.5q7 -23 6 -48q-18 -7 -38 -12t-43 -7q-2 -28 -2.5 -60.5 t-0.5 -77.5v-201q0 -55 8.5 -94.5t28.5 -65.5t54 -38.5t84 -12.5q42 0 76.5 11.5t45.5 23.5q14 15 23 38.5t13.5 49t4.5 58.5v231q0 45 -1.5 77.5t-3.5 60.5q-22 7 -43.5 12t-43.5 7q0 12 1.5 24t6.5 24q32 0 63 -1t64 -1h53t54 2q7 -23 6 -48q-18 -7 -38 -12t-43 -7 q-2 -28 -3 -60.5t-1 -77.5v-219zM355 812l-133 -93q-19 12 -27 34l128 134q30 6 63 6l137 -135q-11 -24 -33 -39z" />
<glyph unicode="&#xdc;" horiz-adv-x="695" d="M599 247q0 -58 -15.5 -106.5t-48.5 -84t-83.5 -55t-120.5 -19.5q-113 0 -171 58.5t-58 193.5v232q0 45 -1.5 77.5t-3.5 60.5q-22 7 -43.5 12t-43.5 7q0 12 1.5 24t6.5 24q32 0 63 -1t64 -1h29h34t33 0.5t27 1.5q7 -23 6 -48q-18 -7 -38 -12t-43 -7q-2 -28 -2.5 -60.5 t-0.5 -77.5v-201q0 -55 8.5 -94.5t28.5 -65.5t54 -38.5t84 -12.5q42 0 76.5 11.5t45.5 23.5q14 15 23 38.5t13.5 49t4.5 58.5v231q0 45 -1.5 77.5t-3.5 60.5q-22 7 -43.5 12t-43.5 7q0 12 1.5 24t6.5 24q32 0 63 -1t64 -1h53t54 2q7 -23 6 -48q-18 -7 -38 -12t-43 -7 q-2 -28 -3 -60.5t-1 -77.5v-219zM262 743q-18 0 -33.5 12.5t-15.5 30.5q0 23 16 44t42 21q17 0 32.5 -12.5t15.5 -32.5q0 -23 -16.5 -42.5t-40.5 -20.5zM445 743q-17 0 -32.5 12.5t-15.5 30.5q0 11 4.5 22.5t12 21t18 15.5t22.5 6q19 0 34 -12.5t15 -32.5q0 -23 -16 -42.5 t-42 -20.5z" />
<glyph unicode="&#xdd;" horiz-adv-x="650" d="M373 249v-100q0 -22 1 -42.5t3 -40.5q28 -2 53 -7t48 -12q2 -27 -7 -48q-12 1 -30.5 1.5t-39 0.5h-40h-33.5q-38 0 -73 -1t-73 -1q-5 12 -7 24t-2 24q27 2 53.5 7t53.5 12q3 14 4 29.5t1 31.5v109l-200 368q-20 7 -40 12t-40 7q0 12 1.5 24t6.5 24q32 0 64 -1t68 -1h31.5 h35t33.5 0.5t27 1.5q7 -23 6 -48l-88 -19l150 -279l152 279l-94 19q0 12 1.5 24t6.5 24q32 0 61 -1t55 -1h23.5h30.5t31.5 0.5t26.5 1.5q7 -23 6 -48q-17 -7 -35.5 -12t-38.5 -7zM446 897q29 -17 51 -57l-3 -20l-213 -93q-8 7 -13 18t-8 22z" />
<glyph unicode="&#xde;" horiz-adv-x="563" d="M536 363q0 -39 -19 -79.5t-50.5 -73.5t-72 -54.5t-82.5 -21.5q-33 0 -56.5 1t-43.5 5v-74q32 -2 57 -7t48 -12q2 -27 -7 -48q-12 1 -30.5 1.5t-39 0.5h-40h-33.5q-33 0 -64 -1t-63 -1q-5 12 -6.5 24t-1.5 24q22 2 43.5 7t43.5 12q3 14 4 29.5t1 31.5v339q0 45 -1.5 77.5 t-3.5 60.5q-22 7 -43.5 12t-43.5 7q0 12 1.5 24t6.5 24q32 0 63 -1t64 -1h33.5h40t39 0.5t30.5 1.5q9 -21 7 -48q-23 -7 -48.5 -11.5t-56.5 -6.5v-66q36 4 73 5.5t69 1.5q50 0 84.5 -15t56.5 -40t31.5 -58.5t9.5 -69.5zM327 481q-26 0 -56 -1.5t-59 -5.5v-269q19 -2 40.5 -3 t47.5 -1q18 0 36 3.5t32 8t23.5 9t11.5 6.5q17 17 29.5 45t12.5 63q0 24 -6 50t-20 47t-36.5 34.5t-55.5 13.5z" />
<glyph unicode="&#xdf;" horiz-adv-x="980" d="M53 23q2 37 6.5 69.5t13.5 64.5q26 7 54 -4q1 -20 3.5 -42t7.5 -46q21 -7 46.5 -10.5t58.5 -3.5q28 0 50 7t26 10q26 20 26 65q0 27 -25 45.5t-59 30.5l-61 22q-23 8 -46.5 19t-43.5 26.5t-32.5 36t-12.5 49.5q0 39 17.5 66.5t45.5 45t62 25t67 7.5q38 0 83.5 -7 t80.5 -20q-1 -35 -5 -63.5t-12 -54.5q-31 -8 -52 3q-2 18 -4.5 36t-7.5 35q-20 5 -42.5 7.5t-48.5 2.5t-47.5 -4.5t-25.5 -6.5q-10 -7 -16 -19t-6 -29q0 -15 8 -27t20 -21t27 -16t30 -12l69 -25q23 -8 45.5 -19.5t40.5 -26.5t29 -35.5t11 -46.5q0 -35 -13 -65.5t-38 -53.5 t-61 -36t-82 -13q-56 0 -105.5 9t-81.5 25zM543 23q2 37 6.5 69.5t13.5 64.5q26 7 54 -4q1 -20 3.5 -42t7.5 -46q21 -7 46.5 -10.5t58.5 -3.5q28 0 50 7t26 10q26 20 26 65q0 27 -25 45.5t-59 30.5l-61 22q-23 8 -46.5 19t-43.5 26.5t-32.5 36t-12.5 49.5q0 39 17.5 66.5 t45.5 45t62 25t67 7.5q38 0 83.5 -7t80.5 -20q-1 -35 -5 -63.5t-12 -54.5q-31 -8 -52 3q-2 18 -4.5 36t-7.5 35q-20 5 -42.5 7.5t-48.5 2.5t-47.5 -4.5t-25.5 -6.5q-10 -7 -16 -19t-6 -29q0 -15 8 -27t20 -21t27 -16t30 -12l69 -25q23 -8 45.5 -19.5t40.5 -26.5t29 -35.5 t11 -46.5q0 -35 -13 -65.5t-38 -53.5t-61 -36t-82 -13q-56 0 -105.5 9t-81.5 25z" />
<glyph unicode="&#xe0;" horiz-adv-x="611" d="M388 153q-33 2 -67.5 3t-63.5 1h-61l-38 -100l73 -13q0 -12 -1 -23t-4 -22q-10 1 -23.5 1.5t-27 0.5h-26.5h-22q-23 0 -47 -1t-49 -1q-7 21 -7 45q17 2 34 5.5t34 8.5l169 430q36 11 83 11l177 -441q17 -2 32.5 -5.5t29.5 -8.5q2 -25 -5 -45q-9 1 -22.5 1.5t-28.5 0.5 h-30h-27q-30 0 -58 -1t-55 -1q-7 21 -7 45l78 13zM217 210h148l-61 147l-4 64h-1zM164 721l5 19q20 11 40.5 15.5t42.5 5.5l117 -184q-12 -21 -40 -26z" />
<glyph unicode="&#xe1;" horiz-adv-x="611" d="M388 153q-33 2 -67.5 3t-63.5 1h-61l-38 -100l73 -13q0 -12 -1 -23t-4 -22q-10 1 -23.5 1.5t-27 0.5h-26.5h-22q-23 0 -47 -1t-49 -1q-7 21 -7 45q17 2 34 5.5t34 8.5l169 430q36 11 83 11l177 -441q17 -2 32.5 -5.5t29.5 -8.5q2 -25 -5 -45q-9 1 -22.5 1.5t-28.5 0.5 h-30h-27q-30 0 -58 -1t-55 -1q-7 21 -7 45l78 13zM217 210h148l-61 147l-4 64h-1zM355 742q25 7 49.5 9.5t49.5 2.5l8 -23l-179 -184q-25 6 -38 28z" />
<glyph unicode="&#xe2;" horiz-adv-x="611" d="M388 153q-33 2 -67.5 3t-63.5 1h-61l-38 -100l73 -13q0 -12 -1 -23t-4 -22q-10 1 -23.5 1.5t-27 0.5h-26.5h-22q-23 0 -47 -1t-49 -1q-7 21 -7 45q17 2 34 5.5t34 8.5l169 430q36 11 83 11l177 -441q17 -2 32.5 -5.5t29.5 -8.5q2 -25 -5 -45q-9 1 -22.5 1.5t-28.5 0.5 h-30h-27q-30 0 -58 -1t-55 -1q-7 21 -7 45l78 13zM217 210h148l-61 147l-4 64h-1zM304 667l-111 -123q-11 3 -19.5 10.5t-13.5 17.5l110 173q31 9 66 7l122 -177q-9 -22 -36 -31z" />
<glyph unicode="&#xe3;" horiz-adv-x="611" d="M388 153q-33 2 -67.5 3t-63.5 1h-61l-38 -100l73 -13q0 -12 -1 -23t-4 -22q-10 1 -23.5 1.5t-27 0.5h-26.5h-22q-23 0 -47 -1t-49 -1q-7 21 -7 45q17 2 34 5.5t34 8.5l169 430q36 11 83 11l177 -441q17 -2 32.5 -5.5t29.5 -8.5q2 -25 -5 -45q-9 1 -22.5 1.5t-28.5 0.5 h-30h-27q-30 0 -58 -1t-55 -1q-7 21 -7 45l78 13zM217 210h148l-61 147l-4 64h-1zM150 577q-26 7 -34 28q24 45 60 74t67 29q21 0 38.5 -10.5t34 -23t33 -23t36.5 -10.5q12 0 32.5 15t40.5 41q23 -6 35 -26q-12 -23 -28 -42t-33 -33t-35 -22t-34 -8q-20 0 -38 10.5t-34.5 23 t-33 23t-34.5 10.5q-12 0 -32.5 -15t-40.5 -41z" />
<glyph unicode="&#xe4;" horiz-adv-x="611" d="M388 153q-33 2 -67.5 3t-63.5 1h-61l-38 -100l73 -13q0 -12 -1 -23t-4 -22q-10 1 -23.5 1.5t-27 0.5h-26.5h-22q-23 0 -47 -1t-49 -1q-7 21 -7 45q17 2 34 5.5t34 8.5l169 430q36 11 83 11l177 -441q17 -2 32.5 -5.5t29.5 -8.5q2 -25 -5 -45q-9 1 -22.5 1.5t-28.5 0.5 h-30h-27q-30 0 -58 -1t-55 -1q-7 21 -7 45l78 13zM217 210h148l-61 147l-4 64h-1zM209 579q-19 0 -34.5 13t-15.5 32q0 12 4.5 23.5t12 21.5t18.5 16t24 6q18 0 34 -13.5t16 -33.5q0 -24 -17 -44t-42 -21zM390 579q-17 0 -33.5 13t-16.5 32q0 12 4.5 23.5t12.5 21.5t19 16 t23 6q20 0 35 -13.5t15 -33.5q0 -24 -16.5 -44t-42.5 -21z" />
<glyph unicode="&#xe5;" horiz-adv-x="611" d="M388 153q-33 2 -67.5 3t-63.5 1h-61l-38 -100l73 -13q0 -12 -1 -23t-4 -22q-10 1 -23.5 1.5t-27 0.5h-26.5h-22q-23 0 -47 -1t-49 -1q-7 21 -7 45q17 2 34 5.5t34 8.5l169 430q36 11 83 11l177 -441q17 -2 32.5 -5.5t29.5 -8.5q2 -25 -5 -45q-9 1 -22.5 1.5t-28.5 0.5 h-30h-27q-30 0 -58 -1t-55 -1q-7 21 -7 45l78 13zM217 210h148l-61 147l-4 64h-1zM305 614q11 0 20 3.5t13 6.5q5 4 9 12.5t4 22.5q0 20 -14 35t-34 15q-11 0 -20 -3t-13 -6q-5 -4 -9 -12.5t-4 -22.5q0 -19 14 -35t34 -16zM299 561q-47 0 -74 24.5t-27 74.5q0 18 9 36.5 t24.5 33t35.5 23.5t42 9q47 0 74 -24t27 -75q0 -18 -9 -36t-24.5 -33t-35.5 -24t-42 -9z" />
<glyph unicode="&#xe6;" horiz-adv-x="779" d="M229 44q1 -23 -5 -45q-10 1 -23.5 1.5t-27 0.5h-26.5h-22q-23 0 -47 -1t-49 -1q-7 21 -7 45q17 2 34 5.5t34 8.5l193 379l-76 15q0 11 1.5 22t5.5 22q27 0 52.5 -1t53.5 -1h186h48h52.5t51 0.5t44.5 1.5l8 -8q1 -71 -9 -132q-31 -7 -54 0q-1 20 -4.5 40.5t-8.5 40.5h-171 v-170l161 3l8 -8q-1 -14 -3 -27.5t-6 -24.5l-160 2v-154h182q8 23 15.5 45.5t13.5 45.5q14 2 27 1t27 -5q0 -32 -2 -66t-7 -72l-8 -8q-19 1 -43.5 1.5t-51 0.5h-52.5h-48h-93q-31 0 -58.5 -1t-53.5 -1q-7 21 -7 45q34 3 72 14q4 19 4 45v110h-144l-80 -156zM264 267h116v168 h-30z" />
<glyph unicode="&#xe7;" horiz-adv-x="542" d="M400 436q-16 2 -39 3t-49 1q-13 0 -28.5 -1.5t-30.5 -4.5t-27.5 -6.5t-18.5 -7.5q-10 -7 -21.5 -20t-21 -32.5t-15.5 -44t-6 -53.5q0 -44 10.5 -83.5t33 -68.5t59 -46t88.5 -17q20 0 41.5 2t35.5 4q5 25 7.5 46.5t4.5 43.5q25 8 54 4q7 -33 9.5 -67t2.5 -72 q-37 -11 -80.5 -19t-92.5 -8l-14 -32q50 -2 74.5 -23t24.5 -54q0 -23 -13.5 -44.5t-37 -40t-54 -32t-64.5 -19.5q-11 10 -11 29q13 6 30 15t32 21t25.5 26t10.5 31q0 19 -18 32.5t-56 11.5l-8 8l36 74q-56 6 -97 27t-68 54t-40.5 75.5t-13.5 90.5t17.5 95.5t52 85.5t85.5 62 t119 24q53 0 89 -5.5t66 -15.5q0 -77 -19 -134q-31 -4 -51 4q-3 43 -13 81z" />
<glyph unicode="&#xe8;" horiz-adv-x="525" d="M252 494h48h52.5t51.5 0.5t44 1.5l8 -8q0 -37 -1.5 -69t-6.5 -63q-29 -8 -54 0q-2 20 -5 40.5t-8 40.5h-176v-155l164 2l8 -8q-1 -26 -8 -51l-164 2v-169h186q18 46 30 91q14 2 26.5 1t26.5 -5q0 -32 -2 -66t-7 -72l-8 -8q-19 1 -44 1.5t-51 0.5h-52.5h-48.5h-98 q-32 0 -59 -1t-54 -1q-7 21 -7 45q34 3 72 14q3 11 4 22t1 22v234q0 33 -1.5 57t-3.5 44q-38 11 -72 14q0 24 7 45q27 0 54 -1t59 -1h89zM118 721l5 19q20 11 40.5 15.5t42.5 5.5l117 -184q-12 -21 -40 -26z" />
<glyph unicode="&#xe9;" horiz-adv-x="525" d="M252 494h48h52.5t51.5 0.5t44 1.5l8 -8q0 -37 -1.5 -69t-6.5 -63q-29 -8 -54 0q-2 20 -5 40.5t-8 40.5h-176v-155l164 2l8 -8q-1 -26 -8 -51l-164 2v-169h186q18 46 30 91q14 2 26.5 1t26.5 -5q0 -32 -2 -66t-7 -72l-8 -8q-19 1 -44 1.5t-51 0.5h-52.5h-48.5h-98 q-32 0 -59 -1t-54 -1q-7 21 -7 45q34 3 72 14q3 11 4 22t1 22v234q0 33 -1.5 57t-3.5 44q-38 11 -72 14q0 24 7 45q27 0 54 -1t59 -1h89zM309 742q25 7 49.5 9.5t49.5 2.5l8 -23l-179 -184q-25 6 -38 28z" />
<glyph unicode="&#xea;" horiz-adv-x="525" d="M252 494h48h52.5t51.5 0.5t44 1.5l8 -8q0 -37 -1.5 -69t-6.5 -63q-29 -8 -54 0q-2 20 -5 40.5t-8 40.5h-176v-155l164 2l8 -8q-1 -26 -8 -51l-164 2v-169h186q18 46 30 91q14 2 26.5 1t26.5 -5q0 -32 -2 -66t-7 -72l-8 -8q-19 1 -44 1.5t-51 0.5h-52.5h-48.5h-98 q-32 0 -59 -1t-54 -1q-7 21 -7 45q34 3 72 14q3 11 4 22t1 22v234q0 33 -1.5 57t-3.5 44q-38 11 -72 14q0 24 7 45q27 0 54 -1t59 -1h89zM258 667l-111 -123q-11 3 -19.5 10.5t-13.5 17.5l110 173q31 9 66 7l122 -177q-9 -22 -36 -31z" />
<glyph unicode="&#xeb;" horiz-adv-x="525" d="M252 494h48h52.5t51.5 0.5t44 1.5l8 -8q0 -37 -1.5 -69t-6.5 -63q-29 -8 -54 0q-2 20 -5 40.5t-8 40.5h-176v-155l164 2l8 -8q-1 -26 -8 -51l-164 2v-169h186q18 46 30 91q14 2 26.5 1t26.5 -5q0 -32 -2 -66t-7 -72l-8 -8q-19 1 -44 1.5t-51 0.5h-52.5h-48.5h-98 q-32 0 -59 -1t-54 -1q-7 21 -7 45q34 3 72 14q3 11 4 22t1 22v234q0 33 -1.5 57t-3.5 44q-38 11 -72 14q0 24 7 45q27 0 54 -1t59 -1h89zM163 579q-19 0 -34.5 13t-15.5 32q0 12 4.5 23.5t12 21.5t18.5 16t24 6q18 0 34 -13.5t16 -33.5q0 -24 -17 -44t-42 -21zM344 579 q-17 0 -33.5 13t-16.5 32q0 12 4.5 23.5t12.5 21.5t19 16t23 6q20 0 35 -13.5t15 -33.5q0 -24 -16.5 -44t-42.5 -21z" />
<glyph unicode="&#xec;" horiz-adv-x="324" d="M115 437q-38 11 -72 14q0 24 7 45q27 0 54 -1t58 -1h27h30t28.5 0.5t23.5 1.5q3 -11 4 -22t1 -23q-15 -5 -32 -8.5t-35 -5.5q-2 -20 -3 -44t-1 -57v-218q0 -16 1 -31t3 -29q18 -2 35 -5.5t32 -8.5q0 -12 -1 -23t-4 -22q-10 1 -23.5 1.5t-28.5 0.5h-30h-27q-31 0 -58 -1 t-54 -1q-7 21 -7 45q34 3 72 14q3 11 4 22t1 22v234q0 33 -1.5 57t-3.5 44zM19 721l5 19q20 11 40.5 15.5t42.5 5.5l117 -184q-12 -21 -40 -26z" />
<glyph unicode="&#xed;" horiz-adv-x="324" d="M115 437q-38 11 -72 14q0 24 7 45q27 0 54 -1t58 -1h27h30t28.5 0.5t23.5 1.5q3 -11 4 -22t1 -23q-15 -5 -32 -8.5t-35 -5.5q-2 -20 -3 -44t-1 -57v-218q0 -16 1 -31t3 -29q18 -2 35 -5.5t32 -8.5q0 -12 -1 -23t-4 -22q-10 1 -23.5 1.5t-28.5 0.5h-30h-27q-31 0 -58 -1 t-54 -1q-7 21 -7 45q34 3 72 14q3 11 4 22t1 22v234q0 33 -1.5 57t-3.5 44zM210 742q25 7 49.5 9.5t49.5 2.5l8 -23l-179 -184q-25 6 -38 28z" />
<glyph unicode="&#xee;" horiz-adv-x="324" d="M115 437q-38 11 -72 14q0 24 7 45q27 0 54 -1t58 -1h27h30t28.5 0.5t23.5 1.5q3 -11 4 -22t1 -23q-15 -5 -32 -8.5t-35 -5.5q-2 -20 -3 -44t-1 -57v-218q0 -16 1 -31t3 -29q18 -2 35 -5.5t32 -8.5q0 -12 -1 -23t-4 -22q-10 1 -23.5 1.5t-28.5 0.5h-30h-27q-31 0 -58 -1 t-54 -1q-7 21 -7 45q34 3 72 14q3 11 4 22t1 22v234q0 33 -1.5 57t-3.5 44zM159 667l-111 -123q-11 3 -19.5 10.5t-13.5 17.5l110 173q31 9 66 7l122 -177q-9 -22 -36 -31z" />
<glyph unicode="&#xef;" horiz-adv-x="324" d="M115 437q-38 11 -72 14q0 24 7 45q27 0 54 -1t58 -1h27h30t28.5 0.5t23.5 1.5q3 -11 4 -22t1 -23q-15 -5 -32 -8.5t-35 -5.5q-2 -20 -3 -44t-1 -57v-218q0 -16 1 -31t3 -29q18 -2 35 -5.5t32 -8.5q0 -12 -1 -23t-4 -22q-10 1 -23.5 1.5t-28.5 0.5h-30h-27q-31 0 -58 -1 t-54 -1q-7 21 -7 45q34 3 72 14q3 11 4 22t1 22v234q0 33 -1.5 57t-3.5 44zM75 579q-19 0 -34.5 13t-15.5 32q0 12 4.5 23.5t12 21.5t18.5 16t24 6q18 0 34 -13.5t16 -33.5q0 -24 -17 -44t-42 -21zM234 579q-17 0 -33.5 13t-16.5 32q0 12 4.5 23.5t12.5 21.5t19 16t23 6 q20 0 35 -13.5t15 -33.5q0 -24 -16.5 -44t-42.5 -21z" />
<glyph unicode="&#xf0;" horiz-adv-x="600" d="M164 1q-31 0 -58 -1t-54 -1q-7 21 -7 45q34 3 72 14q3 11 4 22t1 22v129h-74q-3 14 -3.5 28t3.5 28h74v49q0 33 -1.5 57t-3.5 44q-38 11 -72 14q0 24 7 45q27 0 54 -1t58 -1q43 0 81 2t71 2q55 0 98 -18.5t72.5 -51t44.5 -77t15 -97.5q0 -48 -17.5 -94t-50 -82.5 t-79.5 -58.5t-107 -22q-27 0 -58.5 2t-69.5 2zM207 231v-174h74q15 0 31.5 1.5t31.5 4.5t27 6.5t18 7.5q26 18 47 52.5t21 94.5q0 40 -10 78.5t-31 69t-53 49t-76 18.5q-20 0 -40.5 -0.5t-39.5 -1.5v-150h121q6 -28 0 -56h-121z" />
<glyph unicode="&#xf1;" horiz-adv-x="656" d="M549 8q-20 -5 -44.5 -8t-47.5 -4l-247 356l-22 73h-2v-306q0 -33 3 -61q19 -2 36 -5.5t32 -8.5q0 -12 -1 -23t-4 -22q-10 1 -23.5 1.5t-27.5 0.5h-27h-22q-24 0 -50 -1t-52 -1q-7 21 -7 45q34 3 72 14q3 11 4 22t1 22v234q0 33 -1.5 57t-3.5 44q-38 11 -72 14q0 24 7 45 q27 0 53 -1t51 -1q20 0 40 -0.5t37 -2.5l229 -334l22 -73h1v252q0 32 -1 56.5t-3 44.5q-38 11 -72 14q0 24 7 45q26 0 52.5 -1t50.5 -1h22h26.5t26.5 0.5t23 1.5q3 -11 4 -22t1 -23q-15 -5 -32 -8.5t-36 -5.5q-2 -20 -2.5 -44.5t-0.5 -56.5v-328v0zM177 577q-26 7 -34 28 q24 45 60 74t67 29q21 0 38.5 -10.5t34 -23t33 -23t36.5 -10.5q12 0 32.5 15t40.5 41q23 -6 35 -26q-12 -23 -28 -42t-33 -33t-35 -22t-34 -8q-20 0 -38 10.5t-34.5 23t-33 23t-34.5 10.5q-12 0 -32.5 -15t-40.5 -41z" />
<glyph unicode="&#xf2;" horiz-adv-x="614" d="M299 -14q-60 0 -106 19.5t-76.5 54t-46.5 80.5t-16 99q0 48 18 96t51.5 87t82 63t108.5 24t105.5 -19.5t77 -53.5t47.5 -80.5t16 -99.5q0 -48 -18 -96t-52 -87t-82.5 -63t-108.5 -24zM322 52q10 0 23 2t25.5 5.5t23 7.5t15.5 9q21 19 41.5 56.5t20.5 93.5q0 43 -10 82 t-32 69t-56 48t-82 18q-10 0 -23 -2t-25 -5.5t-22.5 -8t-15.5 -8.5q-22 -19 -42 -56.5t-20 -92.5q0 -43 10 -82.5t32 -69.5t55.5 -48t81.5 -18zM167 721l5 19q20 11 40.5 15.5t42.5 5.5l117 -184q-12 -21 -40 -26z" />
<glyph unicode="&#xf3;" horiz-adv-x="614" d="M299 -14q-60 0 -106 19.5t-76.5 54t-46.5 80.5t-16 99q0 48 18 96t51.5 87t82 63t108.5 24t105.5 -19.5t77 -53.5t47.5 -80.5t16 -99.5q0 -48 -18 -96t-52 -87t-82.5 -63t-108.5 -24zM322 52q10 0 23 2t25.5 5.5t23 7.5t15.5 9q21 19 41.5 56.5t20.5 93.5q0 43 -10 82 t-32 69t-56 48t-82 18q-10 0 -23 -2t-25 -5.5t-22.5 -8t-15.5 -8.5q-22 -19 -42 -56.5t-20 -92.5q0 -43 10 -82.5t32 -69.5t55.5 -48t81.5 -18zM358 742q25 7 49.5 9.5t49.5 2.5l8 -23l-179 -184q-25 6 -38 28z" />
<glyph unicode="&#xf4;" horiz-adv-x="614" d="M299 -14q-60 0 -106 19.5t-76.5 54t-46.5 80.5t-16 99q0 48 18 96t51.5 87t82 63t108.5 24t105.5 -19.5t77 -53.5t47.5 -80.5t16 -99.5q0 -48 -18 -96t-52 -87t-82.5 -63t-108.5 -24zM322 52q10 0 23 2t25.5 5.5t23 7.5t15.5 9q21 19 41.5 56.5t20.5 93.5q0 43 -10 82 t-32 69t-56 48t-82 18q-10 0 -23 -2t-25 -5.5t-22.5 -8t-15.5 -8.5q-22 -19 -42 -56.5t-20 -92.5q0 -43 10 -82.5t32 -69.5t55.5 -48t81.5 -18zM307 667l-111 -123q-11 3 -19.5 10.5t-13.5 17.5l110 173q31 9 66 7l122 -177q-9 -22 -36 -31z" />
<glyph unicode="&#xf5;" horiz-adv-x="614" d="M299 -14q-60 0 -106 19.5t-76.5 54t-46.5 80.5t-16 99q0 48 18 96t51.5 87t82 63t108.5 24t105.5 -19.5t77 -53.5t47.5 -80.5t16 -99.5q0 -48 -18 -96t-52 -87t-82.5 -63t-108.5 -24zM322 52q10 0 23 2t25.5 5.5t23 7.5t15.5 9q21 19 41.5 56.5t20.5 93.5q0 43 -10 82 t-32 69t-56 48t-82 18q-10 0 -23 -2t-25 -5.5t-22.5 -8t-15.5 -8.5q-22 -19 -42 -56.5t-20 -92.5q0 -43 10 -82.5t32 -69.5t55.5 -48t81.5 -18zM153 577q-26 7 -34 28q24 45 60 74t67 29q21 0 38.5 -10.5t34 -23t33 -23t36.5 -10.5q12 0 32.5 15t40.5 41q23 -6 35 -26 q-12 -23 -28 -42t-33 -33t-35 -22t-34 -8q-20 0 -38 10.5t-34.5 23t-33 23t-34.5 10.5q-12 0 -32.5 -15t-40.5 -41z" />
<glyph unicode="&#xf6;" horiz-adv-x="614" d="M299 -14q-60 0 -106 19.5t-76.5 54t-46.5 80.5t-16 99q0 48 18 96t51.5 87t82 63t108.5 24t105.5 -19.5t77 -53.5t47.5 -80.5t16 -99.5q0 -48 -18 -96t-52 -87t-82.5 -63t-108.5 -24zM322 52q10 0 23 2t25.5 5.5t23 7.5t15.5 9q21 19 41.5 56.5t20.5 93.5q0 43 -10 82 t-32 69t-56 48t-82 18q-10 0 -23 -2t-25 -5.5t-22.5 -8t-15.5 -8.5q-22 -19 -42 -56.5t-20 -92.5q0 -43 10 -82.5t32 -69.5t55.5 -48t81.5 -18zM212 579q-19 0 -34.5 13t-15.5 32q0 12 4.5 23.5t12 21.5t18.5 16t24 6q18 0 34 -13.5t16 -33.5q0 -24 -17 -44t-42 -21z M393 579q-17 0 -33.5 13t-16.5 32q0 12 4.5 23.5t12.5 21.5t19 16t23 6q20 0 35 -13.5t15 -33.5q0 -24 -16.5 -44t-42.5 -21z" />
<glyph unicode="&#xf7;" horiz-adv-x="560" d="M228 103q0 20 15.5 34t37.5 14q21 0 36 -14t15 -34q0 -21 -15 -36t-36 -15q-22 0 -37.5 15t-15.5 36zM228 413q0 20 15.5 33.5t37.5 13.5q21 0 36 -13.5t15 -33.5q0 -22 -15 -37t-36 -15q-22 0 -37.5 15t-15.5 37zM74 225q-4 17 -3.5 33t3.5 33h412q7 -34 0 -66h-412z " />
<glyph unicode="&#xf8;" horiz-adv-x="614" d="M142 36q-44 35 -66 87.5t-22 115.5q0 48 18 96t51.5 87t82 63t108.5 24q61 0 111 -22l35 59q15 -2 26 -8t20 -17l-36 -61q45 -35 67.5 -88t22.5 -116q0 -48 -18 -96t-52 -87t-82.5 -63t-108.5 -24q-32 0 -60 5.5t-51 15.5l-37 -58q-30 6 -45 26zM322 52q10 0 23 2 t25.5 5.5t23 7.5t15.5 9q21 19 41.5 56.5t20.5 93.5q0 47 -12 89t-38 72l-190 -312q38 -23 91 -23zM143 270q0 -46 11.5 -87.5t36.5 -72.5l188 312q-18 10 -40 15.5t-48 5.5q-10 0 -23 -2t-25 -5.5t-22.5 -8t-15.5 -8.5q-22 -19 -42 -56.5t-20 -92.5z" />
<glyph unicode="&#xf9;" horiz-adv-x="619" d="M520 192q0 -44 -13 -81.5t-40 -65.5t-69.5 -43.5t-101.5 -15.5q-94 0 -143.5 43.5t-49.5 143.5v163q0 33 -1 57t-3 44q-38 11 -72 14q0 11 1 22.5t5 22.5q27 0 54.5 -1t57.5 -1h27h30t28.5 0.5t23.5 1.5q6 -22 5 -45q-15 -5 -31.5 -8.5t-35.5 -5.5q-2 -20 -2.5 -44 t-0.5 -57v-134q0 -78 30 -114t107 -36q33 0 60.5 8.5t35.5 16.5q8 7 20 31t12 71v157q0 33 -1 57t-3 44q-38 11 -72 14q0 24 7 45q26 0 52 -1t53 -1h47.5t47.5 2q7 -19 5 -45q-15 -5 -31.5 -8.5t-35.5 -5.5q-2 -20 -2.5 -44t-0.5 -57v-144zM180 721l5 19q20 11 40.5 15.5 t42.5 5.5l117 -184q-12 -21 -40 -26z" />
<glyph unicode="&#xfa;" horiz-adv-x="619" d="M520 192q0 -44 -13 -81.5t-40 -65.5t-69.5 -43.5t-101.5 -15.5q-94 0 -143.5 43.5t-49.5 143.5v163q0 33 -1 57t-3 44q-38 11 -72 14q0 11 1 22.5t5 22.5q27 0 54.5 -1t57.5 -1h27h30t28.5 0.5t23.5 1.5q6 -22 5 -45q-15 -5 -31.5 -8.5t-35.5 -5.5q-2 -20 -2.5 -44 t-0.5 -57v-134q0 -78 30 -114t107 -36q33 0 60.5 8.5t35.5 16.5q8 7 20 31t12 71v157q0 33 -1 57t-3 44q-38 11 -72 14q0 24 7 45q26 0 52 -1t53 -1h47.5t47.5 2q7 -19 5 -45q-15 -5 -31.5 -8.5t-35.5 -5.5q-2 -20 -2.5 -44t-0.5 -57v-144zM371 742q25 7 49.5 9.5t49.5 2.5 l8 -23l-179 -184q-25 6 -38 28z" />
<glyph unicode="&#xfb;" horiz-adv-x="619" d="M520 192q0 -44 -13 -81.5t-40 -65.5t-69.5 -43.5t-101.5 -15.5q-94 0 -143.5 43.5t-49.5 143.5v163q0 33 -1 57t-3 44q-38 11 -72 14q0 11 1 22.5t5 22.5q27 0 54.5 -1t57.5 -1h27h30t28.5 0.5t23.5 1.5q6 -22 5 -45q-15 -5 -31.5 -8.5t-35.5 -5.5q-2 -20 -2.5 -44 t-0.5 -57v-134q0 -78 30 -114t107 -36q33 0 60.5 8.5t35.5 16.5q8 7 20 31t12 71v157q0 33 -1 57t-3 44q-38 11 -72 14q0 24 7 45q26 0 52 -1t53 -1h47.5t47.5 2q7 -19 5 -45q-15 -5 -31.5 -8.5t-35.5 -5.5q-2 -20 -2.5 -44t-0.5 -57v-144zM320 667l-111 -123 q-11 3 -19.5 10.5t-13.5 17.5l110 173q31 9 66 7l122 -177q-9 -22 -36 -31z" />
<glyph unicode="&#xfc;" horiz-adv-x="619" d="M520 192q0 -44 -13 -81.5t-40 -65.5t-69.5 -43.5t-101.5 -15.5q-94 0 -143.5 43.5t-49.5 143.5v163q0 33 -1 57t-3 44q-38 11 -72 14q0 11 1 22.5t5 22.5q27 0 54.5 -1t57.5 -1h27h30t28.5 0.5t23.5 1.5q6 -22 5 -45q-15 -5 -31.5 -8.5t-35.5 -5.5q-2 -20 -2.5 -44 t-0.5 -57v-134q0 -78 30 -114t107 -36q33 0 60.5 8.5t35.5 16.5q8 7 20 31t12 71v157q0 33 -1 57t-3 44q-38 11 -72 14q0 24 7 45q26 0 52 -1t53 -1h47.5t47.5 2q7 -19 5 -45q-15 -5 -31.5 -8.5t-35.5 -5.5q-2 -20 -2.5 -44t-0.5 -57v-144zM225 579q-19 0 -34.5 13t-15.5 32 q0 12 4.5 23.5t12 21.5t18.5 16t24 6q18 0 34 -13.5t16 -33.5q0 -24 -17 -44t-42 -21zM406 579q-17 0 -33.5 13t-16.5 32q0 12 4.5 23.5t12.5 21.5t19 16t23 6q20 0 35 -13.5t15 -33.5q0 -24 -16.5 -44t-42.5 -21z" />
<glyph unicode="&#xfd;" horiz-adv-x="585" d="M338 182v-63q0 -16 1 -31.5t3 -29.5q45 -3 86 -14q0 -12 -1 -23t-5 -22q-11 1 -27 1.5t-33.5 0.5h-35h-31.5q-36 0 -67.5 -1t-62.5 -1q-8 20 -8 45q23 2 46 5.5t46 8.5q4 19 4 45v66l-162 268q-17 5 -33.5 8.5t-33.5 5.5q0 11 1 22t5 23q28 0 56 -1t61 -1h60t53 2 q6 -20 4 -45l-71 -13l116 -188l116 188l-76 13q0 22 6 45q26 0 51 -1t50 -1h48t48 2q6 -22 5 -45q-14 -5 -29.5 -8.5t-32.5 -5.5zM356 742q25 7 49.5 9.5t49.5 2.5l8 -23l-179 -184q-25 6 -38 28z" />
<glyph unicode="&#xfe;" horiz-adv-x="503" d="M115 447q-38 11 -72 14q0 24 7 45q27 0 54 -1t58 -1h31.5h35t33.5 0.5t27 1.5q4 -11 5 -22t1 -23l-90 -14v-46q31 4 61 5.5t56 1.5q42 0 71.5 -11.5t48 -31t26.5 -44.5t8 -53q0 -30 -16 -60.5t-42.5 -55t-60.5 -40.5t-70 -16q-44 0 -82 7v-55l90 -14q0 -12 -1 -23t-5 -22 q-11 1 -27 1.5t-33.5 0.5h-35h-31.5q-31 0 -58 -1t-54 -1q-7 21 -7 45q34 3 72 14q3 11 4 22t1 22v254q0 33 -1.5 57t-3.5 44zM294 350q-20 0 -44.5 -1.5t-44.5 -3.5v-186q28 -3 67 -3q30 0 54.5 7.5t28.5 10.5q14 12 23.5 31.5t9.5 44.5q0 16 -5 34t-16 32.5t-29 24 t-44 9.5z" />
<glyph unicode="&#xff;" horiz-adv-x="585" d="M338 182v-63q0 -16 1 -31.5t3 -29.5q45 -3 86 -14q0 -12 -1 -23t-5 -22q-11 1 -27 1.5t-33.5 0.5h-35h-31.5q-36 0 -67.5 -1t-62.5 -1q-8 20 -8 45q23 2 46 5.5t46 8.5q4 19 4 45v66l-162 268q-17 5 -33.5 8.5t-33.5 5.5q0 11 1 22t5 23q28 0 56 -1t61 -1h60t53 2 q6 -20 4 -45l-71 -13l116 -188l116 188l-76 13q0 22 6 45q26 0 51 -1t50 -1h48t48 2q6 -22 5 -45q-14 -5 -29.5 -8.5t-32.5 -5.5zM210 579q-19 0 -34.5 13t-15.5 32q0 12 4.5 23.5t12 21.5t18.5 16t24 6q18 0 34 -13.5t16 -33.5q0 -24 -17 -44t-42 -21zM391 579 q-17 0 -33.5 13t-16.5 32q0 12 4.5 23.5t12.5 21.5t19 16t23 6q20 0 35 -13.5t15 -33.5q0 -24 -16.5 -44t-42.5 -21z" />
<glyph unicode="&#x100;" horiz-adv-x="677" d="M441 221q-40 2 -81.5 3t-76.5 1h-73l-53 -159l88 -19q1 -26 -6 -48q-11 1 -26.5 1.5t-31 0.5h-30h-23.5q-25 0 -54 -1t-61 -1q-5 12 -6.5 24t-1.5 24q20 2 40 7t40 12l205 595q20 8 41.5 11t46.5 3l215 -609q20 -2 38.5 -7t35.5 -12q1 -26 -6 -48q-11 1 -27 1.5 t-33.5 0.5h-34.5h-29q-33 0 -64 -1t-63 -1q-5 12 -6.5 24t-1.5 24l94 19zM230 286h189l-81 230l-5 73h-1zM484 809q12 -33 0 -65h-283q-5 16 -5 32.5t5 32.5h283z" />
<glyph unicode="&#x101;" horiz-adv-x="611" d="M388 153q-33 2 -67.5 3t-63.5 1h-61l-38 -100l73 -13q0 -12 -1 -23t-4 -22q-10 1 -23.5 1.5t-27 0.5h-26.5h-22q-23 0 -47 -1t-49 -1q-7 21 -7 45q17 2 34 5.5t34 8.5l169 430q36 11 83 11l177 -441q17 -2 32.5 -5.5t29.5 -8.5q2 -25 -5 -45q-9 1 -22.5 1.5t-28.5 0.5 h-30h-27q-30 0 -58 -1t-55 -1q-7 21 -7 45l78 13zM217 210h148l-61 147l-4 64h-1zM441 642q12 -34 0 -67h-275q-5 17 -5 33.5t5 33.5h275z" />
<glyph unicode="&#x102;" horiz-adv-x="677" d="M441 221q-40 2 -81.5 3t-76.5 1h-73l-53 -159l88 -19q1 -26 -6 -48q-11 1 -26.5 1.5t-31 0.5h-30h-23.5q-25 0 -54 -1t-61 -1q-5 12 -6.5 24t-1.5 24q20 2 40 7t40 12l205 595q20 8 41.5 11t46.5 3l215 -609q20 -2 38.5 -7t35.5 -12q1 -26 -6 -48q-11 1 -27 1.5 t-33.5 0.5h-34.5h-29q-33 0 -64 -1t-63 -1q-5 12 -6.5 24t-1.5 24l94 19zM230 286h189l-81 230l-5 73h-1zM335 735q-32 0 -57.5 10.5t-44 25.5t-31 32.5t-17.5 32.5q7 20 33 28q21 -22 54 -40t73 -18q43 0 73 18.5t50 39.5q27 -7 31 -28q-10 -19 -25 -37t-35 -32.5t-46 -23 t-58 -8.5z" />
<glyph unicode="&#x103;" horiz-adv-x="611" d="M388 153q-33 2 -67.5 3t-63.5 1h-61l-38 -100l73 -13q0 -12 -1 -23t-4 -22q-10 1 -23.5 1.5t-27 0.5h-26.5h-22q-23 0 -47 -1t-49 -1q-7 21 -7 45q17 2 34 5.5t34 8.5l169 430q36 11 83 11l177 -441q17 -2 32.5 -5.5t29.5 -8.5q2 -25 -5 -45q-9 1 -22.5 1.5t-28.5 0.5 h-30h-27q-30 0 -58 -1t-55 -1q-7 21 -7 45l78 13zM217 210h148l-61 147l-4 64h-1zM297 569q-32 0 -57.5 12t-44.5 30t-31.5 38t-17.5 37q7 20 33 28q21 -27 54 -49t73 -22q43 0 73 22.5t50 48.5q27 -7 31 -28q-5 -16 -19.5 -36t-35.5 -38t-48.5 -30.5t-59.5 -12.5z" />
<glyph unicode="&#x104;" horiz-adv-x="676" d="M209 225l-53 -159l88 -19q1 -26 -6 -48q-11 1 -26.5 1.5t-31 0.5h-30h-23.5q-25 0 -54 -1t-61 -1q-5 12 -6.5 24t-1.5 24q20 2 40 7t40 12l205 595q20 8 41.5 11t46.5 3l215 -609q20 -2 38.5 -7t35.5 -12q1 -26 -6 -48q-5 1 -12 1h-15q-57 -26 -87 -58t-30 -55 q0 -18 11.5 -28t28.5 -10q14 0 27 2.5t31 7.5q13 -18 13 -41q-29 -17 -55.5 -25t-53.5 -8q-36 0 -60 20.5t-24 49.5q0 38 32 75t114 69v2h-44q-33 0 -64 -1t-63 -1q-5 12 -6.5 24t-1.5 24l94 19l-55 155q-40 2 -81.5 3t-76.5 1h-73zM229 286h189l-81 230l-5 73h-1z" />
<glyph unicode="&#x105;" horiz-adv-x="611" d="M388 153q-33 2 -67.5 3t-63.5 1h-61l-38 -100l73 -13q0 -12 -1 -23t-4 -22q-10 1 -23.5 1.5t-27 0.5h-26.5h-22q-23 0 -47 -1t-49 -1q-7 21 -7 45q17 2 34 5.5t34 8.5l169 430q36 11 83 11l177 -441q17 -2 32.5 -5.5t29.5 -8.5q2 -25 -5 -45q-5 1 -12 1h-15 q-58 -26 -88 -58t-30 -55q0 -18 11.5 -28t28.5 -10q14 0 27 2.5t31 7.5q13 -18 13 -41q-29 -17 -55.5 -25t-53.5 -8q-36 0 -60 20.5t-24 49.5q0 38 32 75t114 69v2h-27q-30 0 -58 -1t-55 -1q-7 21 -7 45l78 13zM217 210h148l-61 147l-4 64h-1z" />
<glyph unicode="&#x106;" horiz-adv-x="606" d="M462 607q-20 3 -50.5 4.5t-61.5 1.5q-14 0 -33.5 -2.5t-38.5 -7t-35.5 -11t-25.5 -13.5q-14 -14 -28.5 -34t-26 -46.5t-19 -60t-7.5 -72.5q0 -62 13 -117.5t41.5 -98.5t74.5 -68t113 -25q25 0 52 2.5t45 6.5q6 33 9 63t5 59q24 10 53 4q8 -45 11.5 -88.5t3.5 -84.5 q-45 -14 -96.5 -24t-109.5 -10q-77 0 -134.5 26.5t-95.5 72.5t-57 107.5t-19 131.5q0 65 21 130t62 116.5t101 83.5t139 32q61 0 104 -7.5t79 -19.5q2 -84 -23 -165q-33 -6 -51 4q-3 56 -15 110zM457 897q29 -17 51 -57l-3 -20l-213 -93q-8 7 -13 18t-8 22z" />
<glyph unicode="&#x107;" horiz-adv-x="542" d="M400 436q-16 2 -39 3t-49 1q-13 0 -28.5 -1.5t-30.5 -4.5t-27.5 -6.5t-18.5 -7.5q-10 -7 -21.5 -20t-21 -32.5t-15.5 -44t-6 -53.5q0 -44 10.5 -83.5t33 -68.5t59 -46t88.5 -17q20 0 41.5 2t35.5 4q5 25 7.5 46.5t4.5 43.5q25 8 54 4q7 -33 9.5 -67t2.5 -72 q-37 -11 -81 -19t-94 -8q-66 0 -115 19.5t-81 53.5t-48 79.5t-16 97.5q0 48 17.5 95.5t52 85.5t85.5 62t119 24q53 0 89 -5.5t66 -15.5q0 -77 -19 -134q-31 -4 -51 4q-3 43 -13 81zM365 742q25 7 49.5 9.5t49.5 2.5l8 -23l-179 -184q-25 6 -38 28z" />
<glyph unicode="&#x108;" horiz-adv-x="606" d="M462 607q-20 3 -50.5 4.5t-61.5 1.5q-14 0 -33.5 -2.5t-38.5 -7t-35.5 -11t-25.5 -13.5q-14 -14 -28.5 -34t-26 -46.5t-19 -60t-7.5 -72.5q0 -62 13 -117.5t41.5 -98.5t74.5 -68t113 -25q25 0 52 2.5t45 6.5q6 33 9 63t5 59q24 10 53 4q8 -45 11.5 -88.5t3.5 -84.5 q-45 -14 -96.5 -24t-109.5 -10q-77 0 -134.5 26.5t-95.5 72.5t-57 107.5t-19 131.5q0 65 21 130t62 116.5t101 83.5t139 32q61 0 104 -7.5t79 -19.5q2 -84 -23 -165q-33 -6 -51 4q-3 56 -15 110zM348 812l-133 -93q-19 12 -27 34l128 134q30 6 63 6l137 -135 q-11 -24 -33 -39z" />
<glyph unicode="&#x109;" horiz-adv-x="542" d="M400 436q-16 2 -39 3t-49 1q-13 0 -28.5 -1.5t-30.5 -4.5t-27.5 -6.5t-18.5 -7.5q-10 -7 -21.5 -20t-21 -32.5t-15.5 -44t-6 -53.5q0 -44 10.5 -83.5t33 -68.5t59 -46t88.5 -17q20 0 41.5 2t35.5 4q5 25 7.5 46.5t4.5 43.5q25 8 54 4q7 -33 9.5 -67t2.5 -72 q-37 -11 -81 -19t-94 -8q-66 0 -115 19.5t-81 53.5t-48 79.5t-16 97.5q0 48 17.5 95.5t52 85.5t85.5 62t119 24q53 0 89 -5.5t66 -15.5q0 -77 -19 -134q-31 -4 -51 4q-3 43 -13 81zM314 667l-111 -123q-11 3 -19.5 10.5t-13.5 17.5l110 173q31 9 66 7l122 -177 q-9 -22 -36 -31z" />
<glyph unicode="&#x10a;" horiz-adv-x="606" d="M462 607q-20 3 -50.5 4.5t-61.5 1.5q-14 0 -33.5 -2.5t-38.5 -7t-35.5 -11t-25.5 -13.5q-14 -14 -28.5 -34t-26 -46.5t-19 -60t-7.5 -72.5q0 -62 13 -117.5t41.5 -98.5t74.5 -68t113 -25q25 0 52 2.5t45 6.5q6 33 9 63t5 59q24 10 53 4q8 -45 11.5 -88.5t3.5 -84.5 q-45 -14 -96.5 -24t-109.5 -10q-77 0 -134.5 26.5t-95.5 72.5t-57 107.5t-19 131.5q0 65 21 130t62 116.5t101 83.5t139 32q61 0 104 -7.5t79 -19.5q2 -84 -23 -165q-33 -6 -51 4q-3 56 -15 110zM347 740q-19 0 -36.5 14t-17.5 35q0 12 5 24.5t13.5 23t20 17t24.5 6.5 q20 0 37 -14t17 -36q0 -12 -5 -24.5t-13 -22.5t-20 -16.5t-25 -6.5z" />
<glyph unicode="&#x10b;" horiz-adv-x="542" d="M400 436q-16 2 -39 3t-49 1q-13 0 -28.5 -1.5t-30.5 -4.5t-27.5 -6.5t-18.5 -7.5q-10 -7 -21.5 -20t-21 -32.5t-15.5 -44t-6 -53.5q0 -44 10.5 -83.5t33 -68.5t59 -46t88.5 -17q20 0 41.5 2t35.5 4q5 25 7.5 46.5t4.5 43.5q25 8 54 4q7 -33 9.5 -67t2.5 -72 q-37 -11 -81 -19t-94 -8q-66 0 -115 19.5t-81 53.5t-48 79.5t-16 97.5q0 48 17.5 95.5t52 85.5t85.5 62t119 24q53 0 89 -5.5t66 -15.5q0 -77 -19 -134q-31 -4 -51 4q-3 43 -13 81zM310 586q-10 0 -20.5 4t-19.5 11.5t-14.5 17.5t-5.5 21q0 13 5.5 27t15 25.5t22 18.5 t26.5 7q23 0 41.5 -16t18.5 -39q0 -14 -5.5 -27.5t-14.5 -24.5t-21.5 -18t-27.5 -7z" />
<glyph unicode="&#x10c;" horiz-adv-x="606" d="M462 607q-20 3 -50.5 4.5t-61.5 1.5q-14 0 -33.5 -2.5t-38.5 -7t-35.5 -11t-25.5 -13.5q-14 -14 -28.5 -34t-26 -46.5t-19 -60t-7.5 -72.5q0 -62 13 -117.5t41.5 -98.5t74.5 -68t113 -25q25 0 52 2.5t45 6.5q6 33 9 63t5 59q24 10 53 4q8 -45 11.5 -88.5t3.5 -84.5 q-45 -14 -96.5 -24t-109.5 -10q-77 0 -134.5 26.5t-95.5 72.5t-57 107.5t-19 131.5q0 65 21 130t62 116.5t101 83.5t139 32q61 0 104 -7.5t79 -19.5q2 -84 -23 -165q-33 -6 -51 4q-3 56 -15 110zM187 861q10 24 33 39l135 -93l133 93q19 -12 27 -34l-128 -134q-30 -6 -63 -6 l-137 135v0z" />
<glyph unicode="&#x10d;" horiz-adv-x="542" d="M400 436q-16 2 -39 3t-49 1q-13 0 -28.5 -1.5t-30.5 -4.5t-27.5 -6.5t-18.5 -7.5q-10 -7 -21.5 -20t-21 -32.5t-15.5 -44t-6 -53.5q0 -44 10.5 -83.5t33 -68.5t59 -46t88.5 -17q20 0 41.5 2t35.5 4q5 25 7.5 46.5t4.5 43.5q25 8 54 4q7 -33 9.5 -67t2.5 -72 q-37 -11 -81 -19t-94 -8q-66 0 -115 19.5t-81 53.5t-48 79.5t-16 97.5q0 48 17.5 95.5t52 85.5t85.5 62t119 24q53 0 89 -5.5t66 -15.5q0 -77 -19 -134q-31 -4 -51 4q-3 43 -13 81zM167 735q9 22 36 31l118 -123l111 123q11 -3 19.5 -10.5t13.5 -17.5l-110 -173 q-31 -9 -66 -7l-122 177v0z" />
<glyph unicode="&#x10e;" horiz-adv-x="663" d="M167 1q-33 0 -64 -1t-63 -1q-5 12 -6.5 24t-1.5 24q22 2 43.5 7t43.5 12q3 14 4 29.5t1 31.5v339q0 45 -1.5 77.5t-3.5 60.5q-22 7 -43.5 12t-43.5 7q0 12 1.5 24t6.5 24q32 0 63 -1t64 -1q54 0 96.5 2t78.5 2q67 0 118.5 -24.5t86.5 -68.5t53 -104.5t18 -131.5 q0 -65 -20 -127.5t-58.5 -111t-94 -78.5t-127.5 -30q-31 0 -68 2t-83 2zM313 608q-26 0 -52 -1t-49 -2v-541h90q19 0 40 2.5t40.5 6t34.5 8.5t22 11q16 13 32 31.5t28.5 44t20 59t7.5 75.5q0 56 -12 111t-38 98.5t-66.5 70t-97.5 26.5zM146 861q10 24 33 39l135 -93l133 93 q19 -12 27 -34l-128 -134q-30 -6 -63 -6l-137 135v0z" />
<glyph unicode="&#x10f;" horiz-adv-x="598" d="M162 1q-31 0 -58 -1t-54 -1q-7 21 -7 45q34 3 72 14q3 11 4 22t1 22v234q0 33 -1.5 57t-3.5 44q-38 11 -72 14q0 24 7 45q27 0 54 -1t58 -1q43 0 81 2t71 2q55 0 98 -18.5t72.5 -51t44.5 -77t15 -97.5q0 -48 -17.5 -94t-50 -82.5t-79.5 -58.5t-107 -22q-27 0 -58.5 2 t-69.5 2zM285 439q-20 0 -40.5 -0.5t-39.5 -1.5v-380h74q15 0 31.5 1.5t31.5 4.5t27 6.5t18 7.5q26 18 47 52.5t21 94.5q0 40 -10 78.5t-31 69t-53 49t-76 18.5zM134 735q9 22 36 31l118 -123l111 123q11 -3 19.5 -10.5t13.5 -17.5l-110 -173q-31 -9 -66 -7l-122 177v0z" />
<glyph unicode="&#x110;" horiz-adv-x="666" d="M170 1q-33 0 -64 -1t-63 -1q-5 12 -6.5 24t-1.5 24q22 2 43.5 7t43.5 12q3 14 4 29.5t1 31.5v181h-89q-3 16 -3.5 32.5t3.5 33.5h89v92q0 45 -1.5 77.5t-3.5 60.5q-22 7 -43.5 12t-43.5 7q0 12 1.5 24t6.5 24q32 0 63 -1t64 -1q54 0 96.5 2t78.5 2q67 0 118.5 -24.5 t86.5 -68.5t53 -104.5t18 -131.5q0 -65 -20 -127.5t-58.5 -111t-94 -78.5t-127.5 -30q-31 0 -68 2t-83 2zM215 308v-244h90q19 0 40 2.5t40.5 6t34.5 8.5t22 11q16 13 32 31.5t28.5 44t20 59t7.5 75.5q0 56 -12 111t-38 98.5t-66.5 70t-97.5 26.5q-26 0 -52 -1t-49 -2v-231 h132q6 -33 0 -66h-132z" />
<glyph unicode="&#x111;" horiz-adv-x="600" d="M164 1q-31 0 -58 -1t-54 -1q-7 21 -7 45q34 3 72 14q3 11 4 22t1 22v129h-74q-3 14 -3.5 28t3.5 28h74v49q0 33 -1.5 57t-3.5 44q-38 11 -72 14q0 24 7 45q27 0 54 -1t58 -1q43 0 81 2t71 2q55 0 98 -18.5t72.5 -51t44.5 -77t15 -97.5q0 -48 -17.5 -94t-50 -82.5 t-79.5 -58.5t-107 -22q-27 0 -58.5 2t-69.5 2zM207 231v-174h74q15 0 31.5 1.5t31.5 4.5t27 6.5t18 7.5q26 18 47 52.5t21 94.5q0 40 -10 78.5t-31 69t-53 49t-76 18.5q-20 0 -40.5 -0.5t-39.5 -1.5v-150h121q6 -28 0 -56h-121z" />
<glyph unicode="&#x112;" horiz-adv-x="583" d="M270 669h57.5h63t61.5 0.5t53 1.5l8 -8q3 -84 -9 -168q-27 -9 -53 0q-2 28 -5.5 56t-10.5 54h-223v-228l205 4l8 -8q-2 -37 -10 -62l-203 4v-250h235q11 30 19.5 60t16.5 62q25 5 53 -4q0 -45 -2.5 -88t-8.5 -88l-8 -8q-23 1 -53 1.5t-61.5 0.5h-63h-57.5h-115 q-33 0 -64 -1t-63 -1q-5 12 -6.5 24t-1.5 24q22 2 43.5 7t43.5 12q3 14 4 29.5t1 31.5v339q0 45 -1.5 77.5t-3.5 60.5q-22 7 -43.5 12t-43.5 7q0 12 1.5 24t6.5 24q32 0 63 -1t64 -1h103zM433 809q12 -33 0 -65h-283q-5 16 -5 32.5t5 32.5h283z" />
<glyph unicode="&#x113;" horiz-adv-x="525" d="M252 494h48h52.5t51.5 0.5t44 1.5l8 -8q0 -37 -1.5 -69t-6.5 -63q-29 -8 -54 0q-2 20 -5 40.5t-8 40.5h-176v-155l164 2l8 -8q-1 -26 -8 -51l-164 2v-169h186q18 46 30 91q14 2 26.5 1t26.5 -5q0 -32 -2 -66t-7 -72l-8 -8q-19 1 -44 1.5t-51 0.5h-52.5h-48.5h-98 q-32 0 -59 -1t-54 -1q-7 21 -7 45q34 3 72 14q3 11 4 22t1 22v234q0 33 -1.5 57t-3.5 44q-38 11 -72 14q0 24 7 45q27 0 54 -1t59 -1h89zM395 642q12 -34 0 -67h-275q-5 17 -5 33.5t5 33.5h275z" />
<glyph unicode="&#x114;" horiz-adv-x="583" d="M270 669h57.5h63t61.5 0.5t53 1.5l8 -8q3 -84 -9 -168q-27 -9 -53 0q-2 28 -5.5 56t-10.5 54h-223v-228l205 4l8 -8q-2 -37 -10 -62l-203 4v-250h235q11 30 19.5 60t16.5 62q25 5 53 -4q0 -45 -2.5 -88t-8.5 -88l-8 -8q-23 1 -53 1.5t-61.5 0.5h-63h-57.5h-115 q-33 0 -64 -1t-63 -1q-5 12 -6.5 24t-1.5 24q22 2 43.5 7t43.5 12q3 14 4 29.5t1 31.5v339q0 45 -1.5 77.5t-3.5 60.5q-22 7 -43.5 12t-43.5 7q0 12 1.5 24t6.5 24q32 0 63 -1t64 -1h103zM284 735q-32 0 -57.5 10.5t-44 25.5t-31 32.5t-17.5 32.5q7 20 33 28q21 -22 54 -40 t73 -18q43 0 73 18.5t50 39.5q27 -7 31 -28q-10 -19 -25 -37t-35 -32.5t-46 -23t-58 -8.5z" />
<glyph unicode="&#x115;" horiz-adv-x="525" d="M252 494h48h52.5t51.5 0.5t44 1.5l8 -8q0 -37 -1.5 -69t-6.5 -63q-29 -8 -54 0q-2 20 -5 40.5t-8 40.5h-176v-155l164 2l8 -8q-1 -26 -8 -51l-164 2v-169h186q18 46 30 91q14 2 26.5 1t26.5 -5q0 -32 -2 -66t-7 -72l-8 -8q-19 1 -44 1.5t-51 0.5h-52.5h-48.5h-98 q-32 0 -59 -1t-54 -1q-7 21 -7 45q34 3 72 14q3 11 4 22t1 22v234q0 33 -1.5 57t-3.5 44q-38 11 -72 14q0 24 7 45q27 0 54 -1t59 -1h89zM251 569q-32 0 -57.5 12t-44.5 30t-31.5 38t-17.5 37q7 20 33 28q21 -27 54 -49t73 -22q43 0 73 22.5t50 48.5q27 -7 31 -28 q-5 -16 -19.5 -36t-35.5 -38t-48.5 -30.5t-59.5 -12.5z" />
<glyph unicode="&#x116;" horiz-adv-x="583" d="M270 669h57.5h63t61.5 0.5t53 1.5l8 -8q3 -84 -9 -168q-27 -9 -53 0q-2 28 -5.5 56t-10.5 54h-223v-228l205 4l8 -8q-2 -37 -10 -62l-203 4v-250h235q11 30 19.5 60t16.5 62q25 5 53 -4q0 -45 -2.5 -88t-8.5 -88l-8 -8q-23 1 -53 1.5t-61.5 0.5h-63h-57.5h-115 q-33 0 -64 -1t-63 -1q-5 12 -6.5 24t-1.5 24q22 2 43.5 7t43.5 12q3 14 4 29.5t1 31.5v339q0 45 -1.5 77.5t-3.5 60.5q-22 7 -43.5 12t-43.5 7q0 12 1.5 24t6.5 24q32 0 63 -1t64 -1h103zM288 740q-19 0 -36.5 14t-17.5 35q0 12 5 24.5t13.5 23t20 17t24.5 6.5q20 0 37 -14 t17 -36q0 -12 -5 -24.5t-13 -22.5t-20 -16.5t-25 -6.5z" />
<glyph unicode="&#x117;" horiz-adv-x="525" d="M252 494h48h52.5t51.5 0.5t44 1.5l8 -8q0 -37 -1.5 -69t-6.5 -63q-29 -8 -54 0q-2 20 -5 40.5t-8 40.5h-176v-155l164 2l8 -8q-1 -26 -8 -51l-164 2v-169h186q18 46 30 91q14 2 26.5 1t26.5 -5q0 -32 -2 -66t-7 -72l-8 -8q-19 1 -44 1.5t-51 0.5h-52.5h-48.5h-98 q-32 0 -59 -1t-54 -1q-7 21 -7 45q34 3 72 14q3 11 4 22t1 22v234q0 33 -1.5 57t-3.5 44q-38 11 -72 14q0 24 7 45q27 0 54 -1t59 -1h89zM254 586q-10 0 -20.5 4t-19.5 11.5t-14.5 17.5t-5.5 21q0 13 5.5 27t15 25.5t22 18.5t26.5 7q23 0 41.5 -16t18.5 -39 q0 -14 -5.5 -27.5t-14.5 -24.5t-21.5 -18t-27.5 -7z" />
<glyph unicode="&#x118;" horiz-adv-x="583" d="M425 373q-2 -37 -10 -62l-203 4v-250h235q11 30 19.5 60t16.5 62q25 5 53 -4q0 -45 -2.5 -88t-8.5 -88l-8 -8q-58 -26 -88.5 -57.5t-30.5 -54.5q0 -18 11.5 -28t28.5 -10q14 0 27 2.5t31 7.5q13 -18 13 -41q-29 -17 -55.5 -25t-53.5 -8q-36 0 -60 20.5t-24 49.5 q0 38 32 75t114 69v2h-295q-33 0 -64 -1t-63 -1q-5 12 -6.5 24t-1.5 24q22 2 43.5 7t43.5 12q3 14 4 29.5t1 31.5v339q0 45 -1.5 77.5t-3.5 60.5q-22 7 -43.5 12t-43.5 7q0 12 1.5 24t6.5 24q32 0 63 -1t64 -1h103h57.5h63t61.5 0.5t53 1.5l8 -8q3 -84 -9 -168q-27 -9 -53 0 q-2 28 -5.5 56t-10.5 54h-223v-228l205 4z" />
<glyph unicode="&#x119;" horiz-adv-x="525" d="M377 276q-1 -26 -8 -51q-84 3 -164 3v-170h186q18 46 30 91q14 2 26.5 1t26.5 -5q0 -32 -2 -66t-7 -72l-8 -8q-58 -26 -88.5 -57.5t-30.5 -54.5q0 -18 11.5 -28t28.5 -10q14 0 27 2.5t31 7.5q13 -18 13 -41q-29 -17 -55.5 -25t-53.5 -8q-36 0 -60 20.5t-24 49.5 q0 38 32 75t114 69v1q-35 1 -72.5 1h-68.5h-98q-32 0 -59 -1t-54 -1q-7 21 -7 45q34 3 72 14q3 11 4 22t1 22v234q0 33 -1.5 57t-3.5 44q-38 11 -72 14q0 24 7 45q27 0 54 -1t59 -1h89h48h52.5t51.5 0.5t44 1.5l8 -8q0 -37 -1.5 -69t-6.5 -63q-29 -8 -54 0q-2 20 -5 40.5 t-8 40.5h-176v-155h81.5t82.5 2z" />
<glyph unicode="&#x11a;" horiz-adv-x="583" d="M270 669h57.5h63t61.5 0.5t53 1.5l8 -8q3 -84 -9 -168q-27 -9 -53 0q-2 28 -5.5 56t-10.5 54h-223v-228l205 4l8 -8q-2 -37 -10 -62l-203 4v-250h235q11 30 19.5 60t16.5 62q25 5 53 -4q0 -45 -2.5 -88t-8.5 -88l-8 -8q-23 1 -53 1.5t-61.5 0.5h-63h-57.5h-115 q-33 0 -64 -1t-63 -1q-5 12 -6.5 24t-1.5 24q22 2 43.5 7t43.5 12q3 14 4 29.5t1 31.5v339q0 45 -1.5 77.5t-3.5 60.5q-22 7 -43.5 12t-43.5 7q0 12 1.5 24t6.5 24q32 0 63 -1t64 -1h103zM128 861q10 24 33 39l135 -93l133 93q19 -12 27 -34l-128 -134q-30 -6 -63 -6 l-137 135v0z" />
<glyph unicode="&#x11b;" horiz-adv-x="525" d="M252 494h48h52.5t51.5 0.5t44 1.5l8 -8q0 -37 -1.5 -69t-6.5 -63q-29 -8 -54 0q-2 20 -5 40.5t-8 40.5h-176v-155l164 2l8 -8q-1 -26 -8 -51l-164 2v-169h186q18 46 30 91q14 2 26.5 1t26.5 -5q0 -32 -2 -66t-7 -72l-8 -8q-19 1 -44 1.5t-51 0.5h-52.5h-48.5h-98 q-32 0 -59 -1t-54 -1q-7 21 -7 45q34 3 72 14q3 11 4 22t1 22v234q0 33 -1.5 57t-3.5 44q-38 11 -72 14q0 24 7 45q27 0 54 -1t59 -1h89zM111 735q9 22 36 31l118 -123l111 123q11 -3 19.5 -10.5t13.5 -17.5l-110 -173q-31 -9 -66 -7l-122 177v0z" />
<glyph unicode="&#x11c;" horiz-adv-x="659" d="M136 366q0 -62 13 -117.5t41.5 -98.5t74.5 -68t113 -25q43 0 96 12v32q0 45 -1.5 77.5t-3.5 60.5q-21 6 -44.5 11t-48.5 7q0 12 1.5 24t6.5 24q31 0 60.5 -1t55.5 -1h29h34.5t33.5 0.5t27 1.5q7 -23 6 -48q-15 -7 -32 -12t-37 -7q-1 -10 -1.5 -28t-1 -40.5t-0.5 -48.5 v-51v-30q-19 -9 -44 -18.5t-53.5 -17.5t-60 -13.5t-64.5 -5.5q-72 0 -126.5 26.5t-91 72.5t-55 107.5t-18.5 131.5q0 65 21 130t62 116.5t103 83.5t145 32q64 0 108 -7.5t80 -19.5q2 -84 -23 -165q-33 -6 -51 4q-3 56 -15 110q-25 3 -57 4.5t-68 1.5q-14 0 -33.5 -2.5 t-38.5 -7t-35.5 -11t-25.5 -13.5q-14 -14 -28.5 -34t-26 -46.5t-19 -60t-7.5 -72.5zM350 812l-133 -93q-19 12 -27 34l128 134q30 6 63 6l137 -135q-11 -24 -33 -39z" />
<glyph unicode="&#x11d;" horiz-adv-x="594" d="M143 270q0 -45 10.5 -84.5t33.5 -69.5t59.5 -47.5t88.5 -17.5q33 0 74 6v17q0 32 -1 56.5t-3 45.5q-19 5 -39 8t-40 5q0 11 1 22.5t6 22.5q26 0 51.5 -1t54.5 -1h27h30t28.5 0.5t22.5 1.5q3 -11 4 -22t1 -23q-13 -5 -27.5 -8.5t-30.5 -5.5q-2 -17 -2.5 -48t-0.5 -66v-31 q-33 -13 -85 -27t-109 -14q-60 0 -105.5 19.5t-76 53.5t-46 79.5t-15.5 97.5q0 48 17.5 95.5t52.5 85.5t87.5 62t123.5 24q54 0 90.5 -5.5t67.5 -15.5q0 -74 -19 -131q-32 -5 -53 4q-2 42 -12 81q-19 2 -43 3.5t-52 1.5q-14 0 -29.5 -2t-30.5 -5t-27.5 -7t-18.5 -8 q-10 -7 -21.5 -20t-21 -32.5t-16 -44.5t-6.5 -55zM314 667l-111 -123q-11 3 -19.5 10.5t-13.5 17.5l110 173q31 9 66 7l122 -177q-9 -22 -36 -31z" />
<glyph unicode="&#x11e;" horiz-adv-x="659" d="M136 366q0 -62 13 -117.5t41.5 -98.5t74.5 -68t113 -25q43 0 96 12v32q0 45 -1.5 77.5t-3.5 60.5q-21 6 -44.5 11t-48.5 7q0 12 1.5 24t6.5 24q31 0 60.5 -1t55.5 -1h29h34.5t33.5 0.5t27 1.5q7 -23 6 -48q-15 -7 -32 -12t-37 -7q-1 -10 -1.5 -28t-1 -40.5t-0.5 -48.5 v-51v-30q-19 -9 -44 -18.5t-53.5 -17.5t-60 -13.5t-64.5 -5.5q-72 0 -126.5 26.5t-91 72.5t-55 107.5t-18.5 131.5q0 65 21 130t62 116.5t103 83.5t145 32q64 0 108 -7.5t80 -19.5q2 -84 -23 -165q-33 -6 -51 4q-3 56 -15 110q-25 3 -57 4.5t-68 1.5q-14 0 -33.5 -2.5 t-38.5 -7t-35.5 -11t-25.5 -13.5q-14 -14 -28.5 -34t-26 -46.5t-19 -60t-7.5 -72.5zM345 735q-32 0 -57.5 10.5t-44 25.5t-31 32.5t-17.5 32.5q7 20 33 28q21 -22 54 -40t73 -18q43 0 73 18.5t50 39.5q27 -7 31 -28q-10 -19 -25 -37t-35 -32.5t-46 -23t-58 -8.5z" />
<glyph unicode="&#x11f;" horiz-adv-x="594" d="M143 270q0 -45 10.5 -84.5t33.5 -69.5t59.5 -47.5t88.5 -17.5q33 0 74 6v17q0 32 -1 56.5t-3 45.5q-19 5 -39 8t-40 5q0 11 1 22.5t6 22.5q26 0 51.5 -1t54.5 -1h27h30t28.5 0.5t22.5 1.5q3 -11 4 -22t1 -23q-13 -5 -27.5 -8.5t-30.5 -5.5q-2 -17 -2.5 -48t-0.5 -66v-31 q-33 -13 -85 -27t-109 -14q-60 0 -105.5 19.5t-76 53.5t-46 79.5t-15.5 97.5q0 48 17.5 95.5t52.5 85.5t87.5 62t123.5 24q54 0 90.5 -5.5t67.5 -15.5q0 -74 -19 -131q-32 -5 -53 4q-2 42 -12 81q-19 2 -43 3.5t-52 1.5q-14 0 -29.5 -2t-30.5 -5t-27.5 -7t-18.5 -8 q-10 -7 -21.5 -20t-21 -32.5t-16 -44.5t-6.5 -55zM310 569q-32 0 -57.5 12t-44.5 30t-31.5 38t-17.5 37q7 20 33 28q21 -27 54 -49t73 -22q43 0 73 22.5t50 48.5q27 -7 31 -28q-5 -16 -19.5 -36t-35.5 -38t-48.5 -30.5t-59.5 -12.5z" />
<glyph unicode="&#x120;" horiz-adv-x="659" d="M136 366q0 -62 13 -117.5t41.5 -98.5t74.5 -68t113 -25q43 0 96 12v32q0 45 -1.5 77.5t-3.5 60.5q-21 6 -44.5 11t-48.5 7q0 12 1.5 24t6.5 24q31 0 60.5 -1t55.5 -1h29h34.5t33.5 0.5t27 1.5q7 -23 6 -48q-15 -7 -32 -12t-37 -7q-1 -10 -1.5 -28t-1 -40.5t-0.5 -48.5 v-51v-30q-19 -9 -44 -18.5t-53.5 -17.5t-60 -13.5t-64.5 -5.5q-72 0 -126.5 26.5t-91 72.5t-55 107.5t-18.5 131.5q0 65 21 130t62 116.5t103 83.5t145 32q64 0 108 -7.5t80 -19.5q2 -84 -23 -165q-33 -6 -51 4q-3 56 -15 110q-25 3 -57 4.5t-68 1.5q-14 0 -33.5 -2.5 t-38.5 -7t-35.5 -11t-25.5 -13.5q-14 -14 -28.5 -34t-26 -46.5t-19 -60t-7.5 -72.5zM349 740q-19 0 -36.5 14t-17.5 35q0 12 5 24.5t13.5 23t20 17t24.5 6.5q20 0 37 -14t17 -36q0 -12 -5 -24.5t-13 -22.5t-20 -16.5t-25 -6.5z" />
<glyph unicode="&#x121;" horiz-adv-x="594" d="M143 270q0 -45 10.5 -84.5t33.5 -69.5t59.5 -47.5t88.5 -17.5q33 0 74 6v17q0 32 -1 56.5t-3 45.5q-19 5 -39 8t-40 5q0 11 1 22.5t6 22.5q26 0 51.5 -1t54.5 -1h27h30t28.5 0.5t22.5 1.5q3 -11 4 -22t1 -23q-13 -5 -27.5 -8.5t-30.5 -5.5q-2 -17 -2.5 -48t-0.5 -66v-31 q-33 -13 -85 -27t-109 -14q-60 0 -105.5 19.5t-76 53.5t-46 79.5t-15.5 97.5q0 48 17.5 95.5t52.5 85.5t87.5 62t123.5 24q54 0 90.5 -5.5t67.5 -15.5q0 -74 -19 -131q-32 -5 -53 4q-2 42 -12 81q-19 2 -43 3.5t-52 1.5q-14 0 -29.5 -2t-30.5 -5t-27.5 -7t-18.5 -8 q-10 -7 -21.5 -20t-21 -32.5t-16 -44.5t-6.5 -55zM310 586q-10 0 -20.5 4t-19.5 11.5t-14.5 17.5t-5.5 21q0 13 5.5 27t15 25.5t22 18.5t26.5 7q23 0 41.5 -16t18.5 -39q0 -14 -5.5 -27.5t-14.5 -24.5t-21.5 -18t-27.5 -7z" />
<glyph unicode="&#x122;" horiz-adv-x="659" d="M136 366q0 -62 13 -117.5t41.5 -98.5t74.5 -68t113 -25q43 0 96 12v32q0 45 -1.5 77.5t-3.5 60.5q-21 6 -44.5 11t-48.5 7q0 12 1.5 24t6.5 24q31 0 60.5 -1t55.5 -1h29h34.5t33.5 0.5t27 1.5q7 -23 6 -48q-15 -7 -32 -12t-37 -7q-1 -10 -1.5 -28t-1 -40.5t-0.5 -48.5 v-51v-30q-19 -9 -44 -18.5t-53.5 -17.5t-60 -13.5t-64.5 -5.5q-72 0 -126.5 26.5t-91 72.5t-55 107.5t-18.5 131.5q0 65 21 130t62 116.5t103 83.5t145 32q64 0 108 -7.5t80 -19.5q2 -84 -23 -165q-33 -6 -51 4q-3 56 -15 110q-25 3 -57 4.5t-68 1.5q-14 0 -33.5 -2.5 t-38.5 -7t-35.5 -11t-25.5 -13.5q-14 -14 -28.5 -34t-26 -46.5t-19 -60t-7.5 -72.5zM284 -91q11 11 29 20.5t38 11.5q25 -20 35 -42t10 -45q0 -36 -21.5 -72.5t-69.5 -66.5q-18 8 -22 23q20 27 26 50t6 43q0 19 -8.5 38.5t-22.5 39.5z" />
<glyph unicode="&#x123;" horiz-adv-x="594" d="M143 270q0 -45 10.5 -84.5t33.5 -69.5t59.5 -47.5t88.5 -17.5q33 0 74 6v17q0 32 -1 56.5t-3 45.5q-19 5 -39 8t-40 5q0 11 1 22.5t6 22.5q26 0 51.5 -1t54.5 -1h27h30t28.5 0.5t22.5 1.5q3 -11 4 -22t1 -23q-13 -5 -27.5 -8.5t-30.5 -5.5q-2 -17 -2.5 -48t-0.5 -66v-31 q-33 -13 -85 -27t-109 -14q-60 0 -105.5 19.5t-76 53.5t-46 79.5t-15.5 97.5q0 48 17.5 95.5t52.5 85.5t87.5 62t123.5 24q54 0 90.5 -5.5t67.5 -15.5q0 -74 -19 -131q-32 -5 -53 4q-2 42 -12 81q-19 2 -43 3.5t-52 1.5q-14 0 -29.5 -2t-30.5 -5t-27.5 -7t-18.5 -8 q-10 -7 -21.5 -20t-21 -32.5t-16 -44.5t-6.5 -55zM241 -91q11 11 29 20.5t38 11.5q25 -20 35 -42t10 -45q0 -36 -21.5 -72.5t-69.5 -66.5q-18 8 -22 23q20 27 26 50t6 43q0 19 -8.5 38.5t-22.5 39.5z" />
<glyph unicode="&#x124;" horiz-adv-x="754" d="M539 604q-22 7 -43.5 12t-43.5 7q0 12 1.5 24t6.5 24q32 0 63 -1t64 -1h29h34.5t33.5 0.5t27 1.5q7 -23 6 -48q-18 -7 -38 -12t-43 -7q-3 -33 -3.5 -74t-0.5 -99v-282q0 -22 1 -42.5t3 -40.5q23 -2 43 -7t38 -12q1 -26 -6 -48q-11 1 -27 1.5t-33.5 0.5h-34.5h-29 q-33 0 -64 -1t-63 -1q-5 12 -6.5 24t-1.5 24q22 2 43.5 7t43.5 12q4 23 4.5 47.5t0.5 47.5v154q-53 2 -104 3.5t-102 1.5h-126v-171q0 -22 1 -42.5t3 -40.5q23 -2 43 -7t38 -12q1 -26 -6 -48q-11 1 -27 1.5t-33.5 0.5h-34.5h-29q-33 0 -64 -1t-63 -1q-5 12 -6.5 24t-1.5 24 q22 2 43.5 7t43.5 12q4 23 4.5 47.5t0.5 47.5v305q0 45 -1.5 77.5t-3.5 60.5q-22 7 -43.5 12t-43.5 7q0 12 1.5 24t6.5 24q32 0 63 -1t64 -1h29h34.5t33.5 0.5t27 1.5q7 -23 6 -48q-18 -7 -38 -12t-43 -7q-3 -33 -3.5 -74t-0.5 -99v-49h332v84q0 45 -1.5 77.5t-3.5 60.5z M373 812l-133 -93q-19 12 -27 34l128 134q30 6 63 6l137 -135q-11 -24 -33 -39z" />
<glyph unicode="&#x125;" horiz-adv-x="671" d="M462 437q-38 11 -72 14q0 24 7 45q27 0 54 -1t58 -1h27h30t28.5 0.5t23.5 1.5q3 -11 4 -22t1 -23q-15 -5 -32 -8.5t-35 -5.5q-2 -20 -3 -44t-1 -57v-218q0 -16 1 -31t3 -29q18 -2 35 -5.5t32 -8.5q0 -12 -1 -23t-4 -22q-10 1 -23.5 1.5t-28.5 0.5h-30h-27q-31 0 -58 -1 t-54 -1q-7 21 -7 45q34 3 72 14q3 11 4 22t1 22v124q-43 2 -85 3t-82 1h-95v-112q0 -16 1 -31t3 -29q18 -2 35 -5.5t32 -8.5q0 -12 -1 -23t-4 -22q-10 1 -23.5 1.5t-28.5 0.5h-30h-27q-31 0 -58 -1t-54 -1q-7 21 -7 45q34 3 72 14q3 11 4 22t1 22v234q0 33 -1.5 57t-3.5 44 q-38 11 -72 14q0 24 7 45q27 0 54 -1t58 -1h27h30t28.5 0.5t23.5 1.5q3 -11 4 -22t1 -23q-15 -5 -32 -8.5t-35 -5.5q-2 -20 -3 -44t-1 -57v-50h262v50q0 33 -1.5 57t-3.5 44zM333 667l-111 -123q-11 3 -19.5 10.5t-13.5 17.5l110 173q31 9 66 7l122 -177q-9 -22 -36 -31z " />
<glyph unicode="&#x126;" horiz-adv-x="758" d="M541 604q-22 7 -43.5 12t-43.5 7q0 12 1.5 24t6.5 24q32 0 63 -1t64 -1h29h34.5t33.5 0.5t27 1.5q7 -23 6 -48q-18 -7 -38 -12t-43 -7q-2 -17 -2.5 -36t-1.5 -41h82q6 -31 0 -62h-82v-34v-282q0 -22 1 -42.5t3 -40.5q23 -2 43 -7t38 -12q1 -26 -6 -48q-11 1 -27 1.5 t-33.5 0.5h-34.5h-29q-33 0 -64 -1t-63 -1q-5 12 -6.5 24t-1.5 24q22 2 43.5 7t43.5 12q4 23 4.5 47.5t0.5 47.5v154q-53 2 -104 3.5t-102 1.5h-126v-171q0 -22 1 -42.5t3 -40.5q23 -2 43 -7t38 -12q1 -26 -6 -48q-11 1 -27 1.5t-33.5 0.5h-34.5h-29q-33 0 -64 -1t-63 -1 q-5 12 -6.5 24t-1.5 24q22 2 43.5 7t43.5 12q4 23 4.5 47.5t0.5 47.5v304h-89q-3 15 -3.5 30t3.5 32h88q-1 22 -1.5 41t-2.5 36q-22 7 -43.5 12t-43.5 7q0 12 1.5 24t6.5 24q32 0 63 -1t64 -1h29h34.5t33.5 0.5t27 1.5q7 -23 6 -48q-18 -7 -38 -12t-43 -7q-2 -17 -2.5 -36 t-1.5 -41h331q-1 22 -1.5 41t-2.5 36zM214 382h332v83h-332v-34v-49z" />
<glyph unicode="&#x127;" horiz-adv-x="675" d="M464 437q-38 11 -72 14q0 24 7 45q27 0 54 -1t58 -1h27h30t28.5 0.5t23.5 1.5q3 -11 4 -22t1 -23q-15 -5 -32 -8.5t-35 -5.5q-2 -11 -2.5 -22.5t-1.5 -25.5h67q3 -14 3.5 -27.5t-3.5 -27.5h-67v-216q0 -16 1 -31t3 -29q18 -2 35 -5.5t32 -8.5q0 -12 -1 -23t-4 -22 q-10 1 -23.5 1.5t-28.5 0.5h-30h-27q-31 0 -58 -1t-54 -1q-7 21 -7 45q34 3 72 14q3 11 4 22t1 22v114q-43 2 -85 3t-82 1h-95v-102q0 -16 1 -31t3 -29q18 -2 35 -5.5t32 -8.5q0 -12 -1 -23t-4 -22q-10 1 -23.5 1.5t-28.5 0.5h-30h-27q-31 0 -58 -1t-54 -1q-7 21 -7 45 q34 3 72 14q3 11 4 22t1 22v232h-73q-4 14 -4.5 27.5t4.5 27.5h72l-4 48q-38 11 -72 14q0 24 7 45q27 0 54 -1t58 -1h27h30t28.5 0.5t23.5 1.5q3 -11 4 -22t1 -23q-15 -5 -32 -8.5t-35 -5.5q-2 -11 -2.5 -22.5t-1.5 -25.5h261zM207 276h262v58h-262v-58z" />
<glyph unicode="&#x128;" horiz-adv-x="334" d="M119 604q-22 7 -43.5 12t-43.5 7q0 12 1.5 24t6.5 24q32 0 63 -1t64 -1h29h34.5t33.5 0.5t27 1.5q7 -23 6 -48q-18 -7 -38 -12t-43 -7q-2 -28 -3 -60.5t-1 -77.5v-317q0 -22 1 -42.5t3 -40.5q23 -2 43 -7t38 -12q1 -26 -6 -48q-11 1 -27 1.5t-33.5 0.5h-34.5h-29 q-33 0 -64 -1t-63 -1q-5 12 -6.5 24t-1.5 24q22 2 43.5 7t43.5 12q3 14 4 29.5t1 31.5v339q0 45 -1.5 77.5t-3.5 60.5zM19 744q-25 7 -33 27q23 44 58 72t65 28q19 0 37 -10t34.5 -22.5t32.5 -22.5t32 -10q11 0 31 14.5t39 39.5q25 -7 33 -27q-23 -44 -58 -72t-65 -28 q-20 0 -37.5 10t-34 22.5t-32.5 22.5t-32 10q-11 0 -31 -14.5t-39 -39.5z" />
<glyph unicode="&#x129;" horiz-adv-x="324" d="M115 437q-38 11 -72 14q0 24 7 45q27 0 54 -1t58 -1h27h30t28.5 0.5t23.5 1.5q3 -11 4 -22t1 -23q-15 -5 -32 -8.5t-35 -5.5q-2 -20 -3 -44t-1 -57v-218q0 -16 1 -31t3 -29q18 -2 35 -5.5t32 -8.5q0 -12 -1 -23t-4 -22q-10 1 -23.5 1.5t-28.5 0.5h-30h-27q-31 0 -58 -1 t-54 -1q-7 21 -7 45q34 3 72 14q3 11 4 22t1 22v234q0 33 -1.5 57t-3.5 44zM5 577q-26 7 -34 28q24 45 60 74t67 29q21 0 38.5 -10.5t34 -23t33 -23t36.5 -10.5q12 0 32.5 15t40.5 41q23 -6 35 -26q-12 -23 -28 -42t-33 -33t-35 -22t-34 -8q-20 0 -38 10.5t-34.5 23t-33 23 t-34.5 10.5q-12 0 -32.5 -15t-40.5 -41z" />
<glyph unicode="&#x12a;" horiz-adv-x="334" d="M119 604q-22 7 -43.5 12t-43.5 7q0 12 1.5 24t6.5 24q32 0 63 -1t64 -1h29h34.5t33.5 0.5t27 1.5q7 -23 6 -48q-18 -7 -38 -12t-43 -7q-2 -28 -3 -60.5t-1 -77.5v-317q0 -22 1 -42.5t3 -40.5q23 -2 43 -7t38 -12q1 -26 -6 -48q-11 1 -27 1.5t-33.5 0.5h-34.5h-29 q-33 0 -64 -1t-63 -1q-5 12 -6.5 24t-1.5 24q22 2 43.5 7t43.5 12q3 14 4 29.5t1 31.5v339q0 45 -1.5 77.5t-3.5 60.5zM309 809q12 -33 0 -65h-283q-5 16 -5 32.5t5 32.5h283z" />
<glyph unicode="&#x12b;" horiz-adv-x="324" d="M115 437q-38 11 -72 14q0 24 7 45q27 0 54 -1t58 -1h27h30t28.5 0.5t23.5 1.5q3 -11 4 -22t1 -23q-15 -5 -32 -8.5t-35 -5.5q-2 -20 -3 -44t-1 -57v-218q0 -16 1 -31t3 -29q18 -2 35 -5.5t32 -8.5q0 -12 -1 -23t-4 -22q-10 1 -23.5 1.5t-28.5 0.5h-30h-27q-31 0 -58 -1 t-54 -1q-7 21 -7 45q34 3 72 14q3 11 4 22t1 22v234q0 33 -1.5 57t-3.5 44zM296 642q12 -34 0 -67h-275q-5 17 -5 33.5t5 33.5h275z" />
<glyph unicode="&#x12c;" horiz-adv-x="334" d="M119 604q-22 7 -43.5 12t-43.5 7q0 12 1.5 24t6.5 24q32 0 63 -1t64 -1h29h34.5t33.5 0.5t27 1.5q7 -23 6 -48q-18 -7 -38 -12t-43 -7q-2 -28 -3 -60.5t-1 -77.5v-317q0 -22 1 -42.5t3 -40.5q23 -2 43 -7t38 -12q1 -26 -6 -48q-11 1 -27 1.5t-33.5 0.5h-34.5h-29 q-33 0 -64 -1t-63 -1q-5 12 -6.5 24t-1.5 24q22 2 43.5 7t43.5 12q3 14 4 29.5t1 31.5v339q0 45 -1.5 77.5t-3.5 60.5zM160 735q-32 0 -57.5 10.5t-44 25.5t-31 32.5t-17.5 32.5q7 20 33 28q21 -22 54 -40t73 -18q43 0 73 18.5t50 39.5q27 -7 31 -28q-10 -19 -25 -37 t-35 -32.5t-46 -23t-58 -8.5z" />
<glyph unicode="&#x12d;" horiz-adv-x="324" d="M115 437q-38 11 -72 14q0 24 7 45q27 0 54 -1t58 -1h27h30t28.5 0.5t23.5 1.5q3 -11 4 -22t1 -23q-15 -5 -32 -8.5t-35 -5.5q-2 -20 -3 -44t-1 -57v-218q0 -16 1 -31t3 -29q18 -2 35 -5.5t32 -8.5q0 -12 -1 -23t-4 -22q-10 1 -23.5 1.5t-28.5 0.5h-30h-27q-31 0 -58 -1 t-54 -1q-7 21 -7 45q34 3 72 14q3 11 4 22t1 22v234q0 33 -1.5 57t-3.5 44zM152 569q-32 0 -57.5 12t-44.5 30t-31.5 38t-17.5 37q7 20 33 28q21 -27 54 -49t73 -22q43 0 73 22.5t50 48.5q27 -7 31 -28q-5 -16 -19.5 -36t-35.5 -38t-48.5 -30.5t-59.5 -12.5z" />
<glyph unicode="&#x12e;" horiz-adv-x="334" d="M119 604q-22 7 -43.5 12t-43.5 7q0 12 1.5 24t6.5 24q32 0 63 -1t64 -1h29h34.5t33.5 0.5t27 1.5q7 -23 6 -48q-18 -7 -38 -12t-43 -7q-2 -28 -3 -60.5t-1 -77.5v-317q0 -22 1 -42.5t3 -40.5q23 -2 43 -7t38 -12q1 -26 -6 -48q-11 1 -25.5 1.5t-30.5 0.5q-49 -31 -69 -61 t-20 -53q0 -18 11.5 -28t28.5 -10q14 0 27 2.5t31 7.5q13 -18 13 -41q-29 -17 -55.5 -25t-53.5 -8q-36 0 -60 20.5t-24 49.5q0 38 26 74t92 71v1q-33 0 -71.5 -1t-70.5 -1q-5 12 -6.5 24t-1.5 24q22 2 43.5 7t43.5 12q3 14 4 29.5t1 31.5v339q0 45 -1.5 77.5t-3.5 60.5z" />
<glyph unicode="&#x12f;" horiz-adv-x="324" d="M115 437q-38 11 -72 14q0 24 7 45q27 0 54 -1t58 -1h27h30t28.5 0.5t23.5 1.5q3 -11 4 -22t1 -23q-15 -5 -32 -8.5t-35 -5.5q-2 -20 -3 -44t-1 -57v-218q0 -16 1 -31t3 -29q18 -2 35 -5.5t32 -8.5q0 -12 -1 -23t-4 -22l-42 2q-50 -29 -69.5 -55t-19.5 -50q0 -22 11.5 -34 t28.5 -12q14 0 27 2.5t31 7.5q13 -18 13 -41q-29 -17 -55.5 -25t-53.5 -8q-36 0 -60 24t-24 57q0 17 6 35t19.5 35.5t35.5 33.5t54 29v1h-11q-31 0 -58 -1t-54 -1q-7 21 -7 45q34 3 72 14q3 11 4 22t1 22v234q0 33 -1.5 57t-3.5 44z" />
<glyph unicode="&#x130;" horiz-adv-x="334" d="M119 604q-22 7 -43.5 12t-43.5 7q0 12 1.5 24t6.5 24q32 0 63 -1t64 -1h29h34.5t33.5 0.5t27 1.5q7 -23 6 -48q-18 -7 -38 -12t-43 -7q-2 -28 -3 -60.5t-1 -77.5v-317q0 -22 1 -42.5t3 -40.5q23 -2 43 -7t38 -12q1 -26 -6 -48q-11 1 -27 1.5t-33.5 0.5h-34.5h-29 q-33 0 -64 -1t-63 -1q-5 12 -6.5 24t-1.5 24q22 2 43.5 7t43.5 12q3 14 4 29.5t1 31.5v339q0 45 -1.5 77.5t-3.5 60.5zM164 740q-19 0 -36.5 14t-17.5 35q0 12 5 24.5t13.5 23t20 17t24.5 6.5q20 0 37 -14t17 -36q0 -12 -5 -24.5t-13 -22.5t-20 -16.5t-25 -6.5z" />
<glyph unicode="&#x131;" horiz-adv-x="324" d="M115 437q-38 11 -72 14q0 24 7 45q27 0 54 -1t58 -1h27h30t28.5 0.5t23.5 1.5q3 -11 4 -22t1 -23q-15 -5 -32 -8.5t-35 -5.5q-2 -20 -3 -44t-1 -57v-218q0 -16 1 -31t3 -29q18 -2 35 -5.5t32 -8.5q0 -12 -1 -23t-4 -22q-10 1 -23.5 1.5t-28.5 0.5h-30h-27q-31 0 -58 -1 t-54 -1q-7 21 -7 45q34 3 72 14q3 11 4 22t1 22v234q0 33 -1.5 57t-3.5 44z" />
<glyph unicode="&#x132;" horiz-adv-x="640" d="M119 604q-22 7 -43.5 12t-43.5 7q0 12 1.5 24t6.5 24q32 0 63 -1t64 -1h29h34.5t33.5 0.5t27 1.5q7 -23 6 -48q-18 -7 -38 -12t-43 -7q-2 -28 -3 -60.5t-1 -77.5v-317q0 -22 1 -42.5t3 -40.5q23 -2 43 -7t38 -12q1 -26 -6 -48q-11 1 -27 1.5t-33.5 0.5h-34.5h-29 q-33 0 -64 -1t-63 -1q-5 12 -6.5 24t-1.5 24q22 2 43.5 7t43.5 12q3 14 4 29.5t1 31.5v339q0 45 -1.5 77.5t-3.5 60.5zM533 27q0 -60 -16 -103t-45.5 -72t-71 -45t-93.5 -22q-17 17 -17 51q39 15 68 33t48.5 43t29 58t9.5 77v419q0 45 -1.5 77.5t-3.5 60.5q-22 7 -43.5 12 t-43.5 7q0 12 1.5 24t6.5 24q32 0 63 -1t64 -1h29h34.5t33.5 0.5t27 1.5q7 -23 6 -48q-18 -7 -38 -12t-43 -7q-2 -28 -3 -60.5t-1 -77.5v-439z" />
<glyph unicode="&#x133;" horiz-adv-x="625" d="M115 437q-38 11 -72 14q0 24 7 45q27 0 54 -1t58 -1h27h30t28.5 0.5t23.5 1.5q3 -11 4 -22t1 -23q-15 -5 -32 -8.5t-35 -5.5q-2 -20 -3 -44t-1 -57v-218q0 -16 1 -31t3 -29q18 -2 35 -5.5t32 -8.5q0 -12 -1 -23t-4 -22q-10 1 -23.5 1.5t-28.5 0.5h-30h-27q-31 0 -58 -1 t-54 -1q-7 21 -7 45q34 3 72 14q3 11 4 22t1 22v234q0 33 -1.5 57t-3.5 44zM518 25q0 -90 -54 -133.5t-145 -50.5q-16 16 -15 44q64 21 96.5 55.5t32.5 96.5v299q0 32 -1 56.5t-3 44.5q-38 11 -72 14q0 24 7 45q26 0 53.5 -1t58.5 -1h26.5h29.5t28.5 0.5t23.5 1.5 q3 -11 4 -22t1 -23q-15 -5 -32 -8.5t-36 -5.5q-2 -20 -2.5 -44.5t-0.5 -56.5v-311z" />
<glyph unicode="&#x134;" horiz-adv-x="306" d="M199 27q0 -60 -16 -103t-45.5 -72t-71 -45t-93.5 -22q-17 17 -17 51q39 15 68 33t48.5 43t29 58t9.5 77v419q0 45 -1.5 77.5t-3.5 60.5q-22 7 -43.5 12t-43.5 7q0 12 1.5 24t6.5 24q32 0 63 -1t64 -1h29h34.5t33.5 0.5t27 1.5q7 -23 6 -48q-18 -7 -38 -12t-43 -7 q-2 -28 -3 -60.5t-1 -77.5v-439zM152 812l-133 -93q-19 12 -27 34l128 134q30 6 63 6l137 -135q-11 -24 -33 -39z" />
<glyph unicode="&#x135;" horiz-adv-x="301" d="M194 25q0 -90 -54 -133.5t-145 -50.5q-16 16 -15 44q64 21 96.5 55.5t32.5 96.5v299q0 32 -1 56.5t-3 44.5q-38 11 -72 14q0 24 7 45q26 0 53.5 -1t58.5 -1h26.5h29.5t28.5 0.5t23.5 1.5q3 -11 4 -22t1 -23q-15 -5 -32 -8.5t-36 -5.5q-2 -20 -2.5 -44.5t-0.5 -56.5v-311z M151 667l-111 -123q-11 3 -19.5 10.5t-13.5 17.5l110 173q31 9 66 7l122 -177q-9 -22 -36 -31z" />
<glyph unicode="&#x136;" horiz-adv-x="659" d="M347 391l220 -325q24 -3 46 -7.5t41 -11.5q0 -12 -1.5 -26t-5.5 -22q-26 1 -56 1h-59h-36l-218 321l-66 -67v-105q0 -22 1 -42.5t3 -40.5q23 -2 43 -7t38 -12q1 -26 -6 -48q-11 1 -27 1.5t-33.5 0.5h-34.5h-29q-33 0 -64 -1t-63 -1q-5 12 -6.5 24t-1.5 24q22 2 43.5 7 t43.5 12q4 23 4.5 47.5t0.5 47.5v305q0 45 -1.5 77.5t-3.5 60.5q-22 7 -43.5 12t-43.5 7q0 12 1.5 24t6.5 24q32 0 63 -1t64 -1h29h34.5t33.5 0.5t27 1.5q7 -23 6 -48q-18 -7 -38 -12t-43 -7q-3 -33 -3.5 -74t-0.5 -99v-89l258 262l-93 18q0 13 1.5 25t6.5 24q32 0 61.5 -1 t56.5 -1h25.5h33t34.5 0.5t29 1.5q7 -23 6 -48q-17 -7 -35.5 -12t-38.5 -7zM313 -91q11 11 29 20.5t38 11.5q25 -20 35 -42t10 -45q0 -36 -21.5 -72.5t-69.5 -66.5q-18 8 -22 23q20 27 26 50t6 43q0 19 -8.5 38.5t-22.5 39.5z" />
<glyph unicode="&#x137;" horiz-adv-x="598" d="M328 289l175 -231q19 -2 37 -5.5t33 -8.5q0 -11 -1 -23.5t-4 -21.5q-23 1 -48.5 1h-50.5h-36l-172 227l-56 -51v-58q0 -16 1 -31t3 -29q18 -2 35 -5.5t32 -8.5q0 -12 -1 -23t-4 -22q-10 1 -23.5 1.5t-28.5 0.5h-30h-27q-31 0 -58 -1t-54 -1q-7 21 -7 45q34 3 72 14 q3 11 4 22t1 22v234q0 33 -1.5 57t-3.5 44q-38 11 -72 14q0 24 7 45q27 0 54 -1t58 -1h27h30t28.5 0.5t23.5 1.5q3 -11 4 -22t1 -23q-15 -5 -32 -8.5t-35 -5.5q-2 -20 -3 -44t-1 -57v-84l203 186l-72 13q0 24 7 45q27 0 52.5 -1t50.5 -1h23.5h28t28.5 0.5t24 1.5 q6 -22 5 -45q-15 -5 -30.5 -8.5t-33.5 -5.5zM272 -91q11 11 29 20.5t38 11.5q25 -20 35 -42t10 -45q0 -36 -21.5 -72.5t-69.5 -66.5q-18 8 -22 23q20 27 26 50t6 43q0 19 -8.5 38.5t-22.5 39.5z" />
<glyph unicode="&#x138;" horiz-adv-x="598" d="M330 291q32 -54 67 -104.5t80 -101.5q14 -16 31.5 -23t31.5 -7q11 0 18 0.5t13 1.5q17 -18 11 -45q-25 -10 -54 -14.5t-57 -4.5q-16 0 -29.5 6.5t-25.5 17t-23 23t-20 25.5q-31 42 -56 83t-49 86l-63 -58v-58q0 -16 1 -31t3 -29q18 -2 35 -5.5t32 -8.5q0 -12 -1 -23 t-4 -22q-10 1 -23.5 1.5t-28.5 0.5h-30h-27q-31 0 -58 -1t-54 -1q-7 21 -7 45q34 3 72 14q3 11 4 22t1 22v234q0 33 -1.5 57t-3.5 44q-38 11 -72 14q0 24 7 45q27 0 54 -1t58 -1h27h30t28.5 0.5t23.5 1.5q3 -11 4 -22t1 -23q-15 -5 -32 -8.5t-35 -5.5q-2 -20 -3 -44t-1 -57 v-84l203 186l-72 13q0 24 7 45q27 0 52.5 -1t50.5 -1h23.5h28t28.5 0.5t24 1.5q6 -22 5 -45q-15 -5 -30.5 -8.5t-33.5 -5.5z" />
<glyph unicode="&#x139;" horiz-adv-x="551" d="M212 65h235q11 33 19.5 66t16.5 68q25 5 53 -4q0 -48 -2.5 -94t-8.5 -94l-8 -8q-23 1 -53 1.5t-61.5 0.5h-63h-57.5h-115q-33 0 -64 -1t-63 -1q-5 12 -6.5 24t-1.5 24q22 2 43.5 7t43.5 12q3 14 4 29.5t1 31.5v339q0 45 -1.5 77.5t-3.5 60.5q-22 7 -43.5 12t-43.5 7 q0 12 1.5 24t6.5 24q35 0 68.5 -1t69.5 -1h31h37t36 0.5t28 1.5q9 -21 7 -48q-23 -7 -48 -12t-53 -7q-2 -28 -3 -60.5t-1 -77.5v-401zM282 897q29 -17 51 -57l-3 -20l-213 -93q-8 7 -13 18t-8 22z" />
<glyph unicode="&#x13a;" horiz-adv-x="502" d="M205 58h186q10 26 17 51.5t13 52.5q14 2 26.5 1t26.5 -5q0 -36 -1.5 -72.5t-6.5 -78.5l-8 -8q-20 1 -45 1.5t-51.5 0.5h-52.5h-48h-99q-31 0 -58 -1t-54 -1q-7 21 -7 45q34 3 72 14q3 11 4 22t1 22v234q0 33 -1.5 57t-3.5 44q-38 11 -72 14q0 24 7 45q29 0 57.5 -1 t60.5 -1h30h33.5t31.5 0.5t26 1.5q7 -21 6 -45q-40 -11 -86 -14q-2 -20 -3 -44.5t-1 -56.5v-278zM214 742q25 7 49.5 9.5t49.5 2.5l8 -23l-179 -184q-25 6 -38 28z" />
<glyph unicode="&#x13b;" horiz-adv-x="551" d="M212 65h235q11 33 19.5 66t16.5 68q25 5 53 -4q0 -48 -2.5 -94t-8.5 -94l-8 -8q-23 1 -53 1.5t-61.5 0.5h-63h-57.5h-115q-33 0 -64 -1t-63 -1q-5 12 -6.5 24t-1.5 24q22 2 43.5 7t43.5 12q3 14 4 29.5t1 31.5v339q0 45 -1.5 77.5t-3.5 60.5q-22 7 -43.5 12t-43.5 7 q0 12 1.5 24t6.5 24q35 0 68.5 -1t69.5 -1h31h37t36 0.5t28 1.5q9 -21 7 -48q-23 -7 -48 -12t-53 -7q-2 -28 -3 -60.5t-1 -77.5v-401zM237 -91q11 11 29 20.5t38 11.5q25 -20 35 -42t10 -45q0 -36 -21.5 -72.5t-69.5 -66.5q-18 8 -22 23q20 27 26 50t6 43q0 19 -8.5 38.5 t-22.5 39.5z" />
<glyph unicode="&#x13c;" horiz-adv-x="502" d="M205 58h186q10 26 17 51.5t13 52.5q14 2 26.5 1t26.5 -5q0 -36 -1.5 -72.5t-6.5 -78.5l-8 -8q-20 1 -45 1.5t-51.5 0.5h-52.5h-48h-99q-31 0 -58 -1t-54 -1q-7 21 -7 45q34 3 72 14q3 11 4 22t1 22v234q0 33 -1.5 57t-3.5 44q-38 11 -72 14q0 24 7 45q29 0 57.5 -1 t60.5 -1h30h33.5t31.5 0.5t26 1.5q7 -21 6 -45q-40 -11 -86 -14q-2 -20 -3 -44.5t-1 -56.5v-278zM213 -91q11 11 29 20.5t38 11.5q25 -20 35 -42t10 -45q0 -36 -21.5 -72.5t-69.5 -66.5q-18 8 -22 23q20 27 26 50t6 43q0 19 -8.5 38.5t-22.5 39.5z" />
<glyph unicode="&#x13d;" horiz-adv-x="551" d="M212 65h235q11 33 19.5 66t16.5 68q25 5 53 -4q0 -48 -2.5 -94t-8.5 -94l-8 -8q-23 1 -53 1.5t-61.5 0.5h-63h-57.5h-115q-33 0 -64 -1t-63 -1q-5 12 -6.5 24t-1.5 24q22 2 43.5 7t43.5 12q3 14 4 29.5t1 31.5v339q0 45 -1.5 77.5t-3.5 60.5q-22 7 -43.5 12t-43.5 7 q0 12 1.5 24t6.5 24q35 0 68.5 -1t69.5 -1h31h37t36 0.5t28 1.5q9 -21 7 -48q-23 -7 -48 -12t-53 -7q-2 -28 -3 -60.5t-1 -77.5v-401zM365 704q23 3 42.5 -0.5t36.5 -16.5l-47 -210q-11 -2 -21.5 -1t-21.5 6l3 214z" />
<glyph unicode="&#x13e;" horiz-adv-x="502" d="M205 58h186q10 26 17 51.5t13 52.5q14 2 26.5 1t26.5 -5q0 -36 -1.5 -72.5t-6.5 -78.5l-8 -8q-20 1 -45 1.5t-51.5 0.5h-52.5h-48h-99q-31 0 -58 -1t-54 -1q-7 21 -7 45q34 3 72 14q3 11 4 22t1 22v234q0 33 -1.5 57t-3.5 44q-38 11 -72 14q0 24 7 45q29 0 57.5 -1 t60.5 -1h30h33.5t31.5 0.5t26 1.5q7 -21 6 -45q-40 -11 -86 -14q-2 -20 -3 -44.5t-1 -56.5v-278zM349 541q23 3 42.5 -0.5t36.5 -16.5l-47 -210q-11 -2 -21.5 -1t-21.5 6l3 214z" />
<glyph unicode="&#x13f;" horiz-adv-x="551" d="M212 65h235q11 33 19.5 66t16.5 68q25 5 53 -4q0 -48 -2.5 -94t-8.5 -94l-8 -8q-23 1 -53 1.5t-61.5 0.5h-63h-57.5h-115q-33 0 -64 -1t-63 -1q-5 12 -6.5 24t-1.5 24q22 2 43.5 7t43.5 12q3 14 4 29.5t1 31.5v339q0 45 -1.5 77.5t-3.5 60.5q-22 7 -43.5 12t-43.5 7 q0 12 1.5 24t6.5 24q35 0 68.5 -1t69.5 -1h31h37t36 0.5t28 1.5q9 -21 7 -48q-23 -7 -48 -12t-53 -7q-2 -28 -3 -60.5t-1 -77.5v-401zM439 307q-10 0 -20.5 4t-19.5 11.5t-14.5 17.5t-5.5 21q0 13 5.5 27t15 25.5t22 18.5t26.5 7q23 0 41.5 -16t18.5 -39q0 -14 -5.5 -27.5 t-14.5 -24.5t-21.5 -18t-27.5 -7z" />
<glyph unicode="&#x140;" horiz-adv-x="502" d="M205 58h186q10 26 17 51.5t13 52.5q14 2 26.5 1t26.5 -5q0 -36 -1.5 -72.5t-6.5 -78.5l-8 -8q-20 1 -45 1.5t-51.5 0.5h-52.5h-48h-99q-31 0 -58 -1t-54 -1q-7 21 -7 45q34 3 72 14q3 11 4 22t1 22v234q0 33 -1.5 57t-3.5 44q-38 11 -72 14q0 24 7 45q29 0 57.5 -1 t60.5 -1h30h33.5t31.5 0.5t26 1.5q7 -21 6 -45q-40 -11 -86 -14q-2 -20 -3 -44.5t-1 -56.5v-278zM409 243q-10 0 -20.5 4t-19.5 11.5t-14.5 17.5t-5.5 21q0 13 5.5 27t15 25.5t22 18.5t26.5 7q23 0 41.5 -16t18.5 -39q0 -14 -5.5 -27t-14.5 -24t-21.5 -18t-27.5 -8z" />
<glyph unicode="&#x141;" horiz-adv-x="556" d="M217 384l166 106q13 -13 20 -26t12 -27l-198 -118v-254h235q11 33 19.5 66t16.5 68q25 5 53 -4q0 -48 -2.5 -94t-8.5 -94l-8 -8q-23 1 -53 1.5t-61.5 0.5h-63h-57.5h-115q-33 0 -64 -1t-63 -1q-5 12 -6.5 24t-1.5 24q22 2 43.5 7t43.5 12q3 14 4 29.5t1 31.5v137l-87 -55 q-22 18 -33 52l120 69v136q0 45 -1.5 77.5t-3.5 60.5q-22 7 -43.5 12t-43.5 7q0 12 1.5 24t6.5 24q35 0 68.5 -1t69.5 -1h31h37t36 0.5t28 1.5q9 -21 7 -48q-23 -7 -48 -12t-53 -7q-2 -28 -3 -60.5t-1 -77.5v-82z" />
<glyph unicode="&#x142;" horiz-adv-x="507" d="M210 284l123 82q24 -24 32 -54l-155 -95v-159h186q10 26 17 51.5t13 52.5q14 2 26.5 1t26.5 -5q0 -36 -1.5 -72.5t-6.5 -78.5l-8 -8q-20 1 -45 1.5t-51.5 0.5h-52.5h-48h-99q-31 0 -58 -1t-54 -1q-7 21 -7 45q34 3 72 14q3 11 4 22t1 22v60l-55 -36q-22 20 -32 55l87 50 v105q0 33 -1.5 57t-3.5 44q-38 11 -72 14q0 24 7 45q29 0 57.5 -1t60.5 -1h30h33.5t31.5 0.5t26 1.5q7 -21 6 -45q-40 -11 -86 -14q-2 -20 -3 -44.5t-1 -56.5v-52z" />
<glyph unicode="&#x143;" horiz-adv-x="741" d="M634 9q-45 -12 -94 -14l-315 520l-29 90h-1v-456q0 -22 1 -42.5t3 -40.5q23 -2 43 -7t38 -12q1 -26 -6 -48q-11 1 -26.5 1.5t-32 0.5h-31.5h-25q-27 0 -57 -1t-62 -1q-5 12 -6.5 24t-1.5 24q22 2 43.5 7t43.5 12q3 14 4 29.5t1 31.5v339q0 45 -1.5 77.5t-3.5 60.5 q-22 7 -43.5 12t-43.5 7q0 12 1.5 24t6.5 24q32 0 62 -1t57 -1q22 0 45 -1t41 -3l290 -481l27 -90h1v372q0 45 -1.5 77.5t-3.5 60.5q-22 7 -43.5 12t-43.5 7q0 12 1.5 24t6.5 24q32 0 62 -1t57 -1h25h31.5t32 0.5t26.5 1.5q7 -23 6 -48q-18 -7 -38 -12t-43 -7 q-2 -28 -3 -60.5t-1 -77.5v-457v0zM481 897q29 -17 51 -57l-3 -20l-213 -93q-8 7 -13 18t-8 22z" />
<glyph unicode="&#x144;" horiz-adv-x="656" d="M549 8q-20 -5 -44.5 -8t-47.5 -4l-247 356l-22 73h-2v-306q0 -33 3 -61q19 -2 36 -5.5t32 -8.5q0 -12 -1 -23t-4 -22q-10 1 -23.5 1.5t-27.5 0.5h-27h-22q-24 0 -50 -1t-52 -1q-7 21 -7 45q34 3 72 14q3 11 4 22t1 22v234q0 33 -1.5 57t-3.5 44q-38 11 -72 14q0 24 7 45 q27 0 53 -1t51 -1q20 0 40 -0.5t37 -2.5l229 -334l22 -73h1v252q0 32 -1 56.5t-3 44.5q-38 11 -72 14q0 24 7 45q26 0 52.5 -1t50.5 -1h22h26.5t26.5 0.5t23 1.5q3 -11 4 -22t1 -23q-15 -5 -32 -8.5t-36 -5.5q-2 -20 -2.5 -44.5t-0.5 -56.5v-328v0zM382 742q25 7 49.5 9.5 t49.5 2.5l8 -23l-179 -184q-25 6 -38 28z" />
<glyph unicode="&#x145;" horiz-adv-x="741" d="M634 9q-45 -12 -94 -14l-315 520l-29 90h-1v-456q0 -22 1 -42.5t3 -40.5q23 -2 43 -7t38 -12q1 -26 -6 -48q-11 1 -26.5 1.5t-32 0.5h-31.5h-25q-27 0 -57 -1t-62 -1q-5 12 -6.5 24t-1.5 24q22 2 43.5 7t43.5 12q3 14 4 29.5t1 31.5v339q0 45 -1.5 77.5t-3.5 60.5 q-22 7 -43.5 12t-43.5 7q0 12 1.5 24t6.5 24q32 0 62 -1t57 -1q22 0 45 -1t41 -3l290 -481l27 -90h1v372q0 45 -1.5 77.5t-3.5 60.5q-22 7 -43.5 12t-43.5 7q0 12 1.5 24t6.5 24q32 0 62 -1t57 -1h25h31.5t32 0.5t26.5 1.5q7 -23 6 -48q-18 -7 -38 -12t-43 -7 q-2 -28 -3 -60.5t-1 -77.5v-457v0zM329 -91q11 11 29 20.5t38 11.5q25 -20 35 -42t10 -45q0 -36 -21.5 -72.5t-69.5 -66.5q-18 8 -22 23q20 27 26 50t6 43q0 19 -8.5 38.5t-22.5 39.5z" />
<glyph unicode="&#x146;" horiz-adv-x="656" d="M549 8q-20 -5 -44.5 -8t-47.5 -4l-247 356l-22 73h-2v-306q0 -33 3 -61q19 -2 36 -5.5t32 -8.5q0 -12 -1 -23t-4 -22q-10 1 -23.5 1.5t-27.5 0.5h-27h-22q-24 0 -50 -1t-52 -1q-7 21 -7 45q34 3 72 14q3 11 4 22t1 22v234q0 33 -1.5 57t-3.5 44q-38 11 -72 14q0 24 7 45 q27 0 53 -1t51 -1q20 0 40 -0.5t37 -2.5l229 -334l22 -73h1v252q0 32 -1 56.5t-3 44.5q-38 11 -72 14q0 24 7 45q26 0 52.5 -1t50.5 -1h22h26.5t26.5 0.5t23 1.5q3 -11 4 -22t1 -23q-15 -5 -32 -8.5t-36 -5.5q-2 -20 -2.5 -44.5t-0.5 -56.5v-328v0zM273 -91q11 11 29 20.5 t38 11.5q25 -20 35 -42t10 -45q0 -36 -21.5 -72.5t-69.5 -66.5q-18 8 -22 23q20 27 26 50t6 43q0 19 -8.5 38.5t-22.5 39.5z" />
<glyph unicode="&#x147;" horiz-adv-x="741" d="M634 9q-45 -12 -94 -14l-315 520l-29 90h-1v-456q0 -22 1 -42.5t3 -40.5q23 -2 43 -7t38 -12q1 -26 -6 -48q-11 1 -26.5 1.5t-32 0.5h-31.5h-25q-27 0 -57 -1t-62 -1q-5 12 -6.5 24t-1.5 24q22 2 43.5 7t43.5 12q3 14 4 29.5t1 31.5v339q0 45 -1.5 77.5t-3.5 60.5 q-22 7 -43.5 12t-43.5 7q0 12 1.5 24t6.5 24q32 0 62 -1t57 -1q22 0 45 -1t41 -3l290 -481l27 -90h1v372q0 45 -1.5 77.5t-3.5 60.5q-22 7 -43.5 12t-43.5 7q0 12 1.5 24t6.5 24q32 0 62 -1t57 -1h25h31.5t32 0.5t26.5 1.5q7 -23 6 -48q-18 -7 -38 -12t-43 -7 q-2 -28 -3 -60.5t-1 -77.5v-457v0zM211 861q10 24 33 39l135 -93l133 93q19 -12 27 -34l-128 -134q-30 -6 -63 -6l-137 135v0z" />
<glyph unicode="&#x148;" horiz-adv-x="656" d="M549 8q-20 -5 -44.5 -8t-47.5 -4l-247 356l-22 73h-2v-306q0 -33 3 -61q19 -2 36 -5.5t32 -8.5q0 -12 -1 -23t-4 -22q-10 1 -23.5 1.5t-27.5 0.5h-27h-22q-24 0 -50 -1t-52 -1q-7 21 -7 45q34 3 72 14q3 11 4 22t1 22v234q0 33 -1.5 57t-3.5 44q-38 11 -72 14q0 24 7 45 q27 0 53 -1t51 -1q20 0 40 -0.5t37 -2.5l229 -334l22 -73h1v252q0 32 -1 56.5t-3 44.5q-38 11 -72 14q0 24 7 45q26 0 52.5 -1t50.5 -1h22h26.5t26.5 0.5t23 1.5q3 -11 4 -22t1 -23q-15 -5 -32 -8.5t-36 -5.5q-2 -20 -2.5 -44.5t-0.5 -56.5v-328v0zM184 735q9 22 36 31 l118 -123l111 123q11 -3 19.5 -10.5t13.5 -17.5l-110 -173q-31 -9 -66 -7l-122 177v0z" />
<glyph unicode="&#x149;" horiz-adv-x="690" d="M11 647q2 24 20 38.5t41 14.5q28 0 45 -17t17 -47q0 -21 -11 -43.5t-29 -43t-40 -37.5t-44 -27q-9 4 -15 10t-7 16q21 18 39 44.5t18 49.5q0 14 -7.5 25t-26.5 17zM583 8q-20 -5 -44.5 -8t-47.5 -4l-247 356l-22 73h-2v-306q0 -33 3 -61q19 -2 36 -5.5t32 -8.5 q0 -12 -1 -23t-4 -22q-10 1 -23.5 1.5t-27.5 0.5h-27h-22q-24 0 -50 -1t-52 -1q-7 21 -7 45q34 3 72 14q3 11 4 22t1 22v234q0 33 -1.5 57t-3.5 44q-38 11 -72 14q0 24 7 45q27 0 53 -1t51 -1q20 0 40 -0.5t37 -2.5l229 -334l22 -73h1v252q0 32 -1 56.5t-3 44.5 q-38 11 -72 14q0 24 7 45q26 0 52.5 -1t50.5 -1h22h26.5t26.5 0.5t23 1.5q3 -11 4 -22t1 -23q-15 -5 -32 -8.5t-36 -5.5q-2 -20 -2.5 -44.5t-0.5 -56.5v-328z" />
<glyph unicode="&#x14a;" horiz-adv-x="741" d="M536 -156q6 8 15.5 48t11.5 108h-26l-312 515l-29 90h-1v-456q0 -22 1 -42.5t3 -40.5q23 -2 43 -7t38 -12q1 -26 -6 -48q-11 1 -26.5 1.5t-32 0.5h-31.5h-25q-27 0 -57 -1t-62 -1q-5 12 -6.5 24t-1.5 24q22 2 43.5 7t43.5 12q3 14 4 29.5t1 31.5v339q0 45 -1.5 77.5 t-3.5 60.5q-22 7 -43.5 12t-43.5 7q0 12 1.5 24t6.5 24q32 0 62 -1t57 -1q22 0 45 -1t41 -3l290 -481l27 -90h1v372q0 45 -1.5 77.5t-3.5 60.5q-22 7 -43.5 12t-43.5 7q0 12 1.5 24t6.5 24q32 0 62 -1t57 -1h25h31.5t32 0.5t26.5 1.5q7 -23 6 -48q-18 -7 -38 -12t-43 -7 q-2 -28 -3 -60.5t-1 -77.5v-421q0 -59 -10 -114.5t-30.5 -98t-53 -68t-77.5 -25.5q-20 0 -39.5 2.5t-39.5 10.5q-2 23 3 45.5t20 39.5l9 4q31 -17 60 -17q17 0 33 4.5t27 15.5z" />
<glyph unicode="&#x14b;" horiz-adv-x="656" d="M456 -160q8 11 15.5 48.5t10.5 107.5h-25l-247 356l-22 73h-2v-306q0 -33 3 -61q19 -2 36 -5.5t32 -8.5q0 -12 -1 -23t-4 -22q-10 1 -23.5 1.5t-27.5 0.5h-27h-22q-24 0 -50 -1t-52 -1q-7 21 -7 45q34 3 72 14q3 11 4 22t1 22v234q0 33 -1.5 57t-3.5 44q-38 11 -72 14 q0 24 7 45q27 0 53 -1t51 -1q20 0 40 -0.5t37 -2.5l229 -334l22 -73h1v252q0 32 -1 56.5t-3 44.5q-38 11 -72 14q0 24 7 45q26 0 52.5 -1t50.5 -1h22h26.5t26.5 0.5t23 1.5q3 -11 4 -22t1 -23q-15 -5 -32 -8.5t-36 -5.5q-2 -20 -2.5 -44.5t-0.5 -56.5v-301q0 -61 -10 -115 t-30.5 -94t-51.5 -63.5t-74 -23.5q-20 0 -39 2.5t-40 9.5q1 21 5.5 43t17.5 38l9 4q31 -17 60 -17q17 0 33 4.5t27 16.5z" />
<glyph unicode="&#x14c;" horiz-adv-x="690" d="M336 -18q-71 0 -125.5 26.5t-91.5 72.5t-55.5 108t-18.5 134q0 65 21.5 130t61.5 117.5t97 85t129 32.5q70 0 124.5 -26.5t91.5 -72t56 -108t19 -134.5q0 -65 -21.5 -130.5t-61.5 -117.5t-97 -84.5t-129 -32.5zM364 54q12 0 27.5 2.5t31.5 7t29.5 11t20.5 13.5 q14 13 28.5 34t26 48t19 60.5t7.5 73.5q0 62 -13 118.5t-40.5 99.5t-70.5 68.5t-104 25.5q-12 0 -27.5 -2.5t-31.5 -7t-29.5 -11t-20.5 -13.5q-14 -14 -28.5 -34.5t-26 -47.5t-19 -60.5t-7.5 -73.5q0 -62 13 -118.5t40.5 -99.5t70.5 -68.5t104 -25.5zM495 809q12 -33 0 -65 h-283q-5 16 -5 32.5t5 32.5h283z" />
<glyph unicode="&#x14d;" horiz-adv-x="614" d="M299 -14q-60 0 -106 19.5t-76.5 54t-46.5 80.5t-16 99q0 48 18 96t51.5 87t82 63t108.5 24t105.5 -19.5t77 -53.5t47.5 -80.5t16 -99.5q0 -48 -18 -96t-52 -87t-82.5 -63t-108.5 -24zM322 52q10 0 23 2t25.5 5.5t23 7.5t15.5 9q21 19 41.5 56.5t20.5 93.5q0 43 -10 82 t-32 69t-56 48t-82 18q-10 0 -23 -2t-25 -5.5t-22.5 -8t-15.5 -8.5q-22 -19 -42 -56.5t-20 -92.5q0 -43 10 -82.5t32 -69.5t55.5 -48t81.5 -18zM444 642q12 -34 0 -67h-275q-5 17 -5 33.5t5 33.5h275z" />
<glyph unicode="&#x14e;" horiz-adv-x="690" d="M336 -18q-71 0 -125.5 26.5t-91.5 72.5t-55.5 108t-18.5 134q0 65 21.5 130t61.5 117.5t97 85t129 32.5q70 0 124.5 -26.5t91.5 -72t56 -108t19 -134.5q0 -65 -21.5 -130.5t-61.5 -117.5t-97 -84.5t-129 -32.5zM364 54q12 0 27.5 2.5t31.5 7t29.5 11t20.5 13.5 q14 13 28.5 34t26 48t19 60.5t7.5 73.5q0 62 -13 118.5t-40.5 99.5t-70.5 68.5t-104 25.5q-12 0 -27.5 -2.5t-31.5 -7t-29.5 -11t-20.5 -13.5q-14 -14 -28.5 -34.5t-26 -47.5t-19 -60.5t-7.5 -73.5q0 -62 13 -118.5t40.5 -99.5t70.5 -68.5t104 -25.5zM346 735 q-32 0 -57.5 10.5t-44 25.5t-31 32.5t-17.5 32.5q7 20 33 28q21 -22 54 -40t73 -18q43 0 73 18.5t50 39.5q27 -7 31 -28q-10 -19 -25 -37t-35 -32.5t-46 -23t-58 -8.5z" />
<glyph unicode="&#x14f;" horiz-adv-x="614" d="M299 -14q-60 0 -106 19.5t-76.5 54t-46.5 80.5t-16 99q0 48 18 96t51.5 87t82 63t108.5 24t105.5 -19.5t77 -53.5t47.5 -80.5t16 -99.5q0 -48 -18 -96t-52 -87t-82.5 -63t-108.5 -24zM322 52q10 0 23 2t25.5 5.5t23 7.5t15.5 9q21 19 41.5 56.5t20.5 93.5q0 43 -10 82 t-32 69t-56 48t-82 18q-10 0 -23 -2t-25 -5.5t-22.5 -8t-15.5 -8.5q-22 -19 -42 -56.5t-20 -92.5q0 -43 10 -82.5t32 -69.5t55.5 -48t81.5 -18zM300 569q-32 0 -57.5 12t-44.5 30t-31.5 38t-17.5 37q7 20 33 28q21 -27 54 -49t73 -22q43 0 73 22.5t50 48.5q27 -7 31 -28 q-5 -16 -19.5 -36t-35.5 -38t-48.5 -30.5t-59.5 -12.5z" />
<glyph unicode="&#x150;" horiz-adv-x="690" d="M336 -18q-71 0 -125.5 26.5t-91.5 72.5t-55.5 108t-18.5 134q0 65 21.5 130t61.5 117.5t97 85t129 32.5q70 0 124.5 -26.5t91.5 -72t56 -108t19 -134.5q0 -65 -21.5 -130.5t-61.5 -117.5t-97 -84.5t-129 -32.5zM364 54q12 0 27.5 2.5t31.5 7t29.5 11t20.5 13.5 q14 13 28.5 34t26 48t19 60.5t7.5 73.5q0 62 -13 118.5t-40.5 99.5t-70.5 68.5t-104 25.5q-12 0 -27.5 -2.5t-31.5 -7t-29.5 -11t-20.5 -13.5q-14 -14 -28.5 -34.5t-26 -47.5t-19 -60.5t-7.5 -73.5q0 -62 13 -118.5t40.5 -99.5t70.5 -68.5t104 -25.5zM401 885l-112 -162 q-26 4 -39 21l65 150q20 8 40 11t40 3zM557 885l-112 -162q-26 4 -39 21l65 150q20 8 40 11t40 3z" />
<glyph unicode="&#x151;" horiz-adv-x="614" d="M299 -14q-60 0 -106 19.5t-76.5 54t-46.5 80.5t-16 99q0 48 18 96t51.5 87t82 63t108.5 24t105.5 -19.5t77 -53.5t47.5 -80.5t16 -99.5q0 -48 -18 -96t-52 -87t-82.5 -63t-108.5 -24zM322 52q10 0 23 2t25.5 5.5t23 7.5t15.5 9q21 19 41.5 56.5t20.5 93.5q0 43 -10 82 t-32 69t-56 48t-82 18q-10 0 -23 -2t-25 -5.5t-22.5 -8t-15.5 -8.5q-22 -19 -42 -56.5t-20 -92.5q0 -43 10 -82.5t32 -69.5t55.5 -48t81.5 -18zM488 748l-103 -185q-26 3 -42 17l54 165q20 11 40 16t46 5zM345 748l-103 -185q-27 3 -41 17l54 165q20 11 39.5 16t45.5 5z" />
<glyph unicode="&#x152;" horiz-adv-x="919" d="M761 373q-1 -17 -3 -33t-7 -30l-198 3v-248h230q11 30 19.5 60t16.5 62q25 5 53 -4q0 -45 -2.5 -88t-8.5 -88l-8 -8q-23 1 -52.5 1.5t-61 0.5h-62.5h-58h-144q-34 -5 -70.5 -9t-68.5 -4q-71 0 -125.5 26t-91.5 71t-55.5 106t-18.5 132q0 64 21.5 128t61.5 115.5t97 83.5 t129 32q35 0 70.5 -4t61.5 -9h121h58h62.5t61 0.5t52.5 1.5l8 -8q3 -84 -9 -168q-31 -9 -53 0q-2 28 -5.5 56t-10.5 54h-218v-228l200 4zM364 60q24 0 50 2t55 6v536q-29 2 -60 4t-63 2q-19 0 -38.5 -2.5t-37.5 -7t-32 -10.5t-21 -13q-14 -14 -28.5 -34t-26 -46.5t-19 -59.5 t-7.5 -72q0 -60 13 -115.5t40.5 -97.5t70.5 -67t104 -25z" />
<glyph unicode="&#x153;" horiz-adv-x="801" d="M654 277q-1 -14 -2.5 -27.5t-5.5 -24.5l-161 2v-169h182q18 46 30 91q14 2 26.5 1t26.5 -5q0 -32 -2 -66t-7 -72l-8 -8q-21 1 -47.5 1.5t-55 0.5h-55.5h-48h-107q-29 -4 -61 -7t-61 -3q-60 0 -105.5 19t-76 52.5t-46.5 79t-16 97.5q0 47 18 94t51.5 85t82 62t108.5 24 q31 0 62 -3t53 -7h100h48h52.5t51 0.5t43.5 1.5l8 -8q1 -37 -1 -69t-8 -63q-30 -7 -53 0q-2 20 -5 40.5t-8 40.5h-172v-155l161 3zM326 57q17 0 36.5 1t39.5 4v372q-21 2 -44 3t-46 1q-15 0 -31 -2t-30.5 -5t-25.5 -7t-17 -9q-23 -19 -44 -56t-21 -91q0 -42 10.5 -80 t32.5 -67t56.5 -46.5t83.5 -17.5z" />
<glyph unicode="&#x154;" horiz-adv-x="617" d="M310 282q-21 0 -47 1.5t-51 5.5v-140q0 -22 1 -42.5t3 -40.5q23 -2 43 -7t38 -12q1 -26 -6 -48q-11 1 -27 1.5t-33.5 0.5h-34.5h-29q-33 0 -64 -1t-63 -1q-5 12 -6.5 24t-1.5 24q22 2 43.5 7t43.5 12q4 24 4.5 51t0.5 52v297q0 45 -1.5 77.5t-3.5 60.5q-22 7 -43.5 12 t-43.5 7q0 12 1.5 24t6.5 24q32 0 63 -1t64 -1q54 0 102.5 2t84.5 2q52 0 87 -15t56 -38.5t30 -53t9 -58.5t-9.5 -59.5t-27 -58t-42 -50.5t-55.5 -38l116 -236q24 -3 46 -7.5t41 -11.5q0 -12 -1.5 -26t-5.5 -22q-25 1 -54 1h-58h-37zM327 608q-26 0 -57.5 -1t-57.5 -2v-249 q23 -2 43.5 -3t42.5 -1q18 0 35.5 3t32 7t24 7.5t11.5 5.5q21 16 32 42t11 58q0 61 -31.5 97t-85.5 36zM401 897q29 -17 51 -57l-3 -20l-213 -93q-8 7 -13 18t-8 22z" />
<glyph unicode="&#x155;" horiz-adv-x="563" d="M280 206q-17 0 -36.5 1.5t-38.5 3.5v-92q0 -16 1 -31.5t3 -29.5q18 -2 35 -5.5t32 -8.5q1 -12 -0.5 -23t-4.5 -22q-10 1 -23.5 1.5t-28.5 0.5h-30h-27q-31 0 -58 -1t-54 -1q-7 21 -7 45q34 3 72 14q4 14 4.5 30t0.5 31v217q0 33 -1.5 57t-3.5 44q-38 11 -72 14q0 24 7 45 q27 0 54 -1t58 -1q43 0 84 2t72 2q43 0 73 -10.5t49 -28t27.5 -39.5t8.5 -45q0 -45 -29 -85.5t-77 -63.5l92 -168q20 -2 38.5 -5.5t33.5 -8.5q0 -11 -1 -23.5t-4 -21.5q-23 1 -48 1h-50h-37zM293 439q-20 0 -44 -0.5t-44 -1.5v-168q15 -1 30.5 -1.5t32.5 -0.5q15 0 29 2 t25.5 4.5t19 5t9.5 3.5q35 25 35 71q0 36 -24.5 61t-68.5 25zM319 742q25 7 49.5 9.5t49.5 2.5l8 -23l-179 -184q-25 6 -38 28z" />
<glyph unicode="&#x156;" horiz-adv-x="617" d="M310 282q-21 0 -47 1.5t-51 5.5v-140q0 -22 1 -42.5t3 -40.5q23 -2 43 -7t38 -12q1 -26 -6 -48q-11 1 -27 1.5t-33.5 0.5h-34.5h-29q-33 0 -64 -1t-63 -1q-5 12 -6.5 24t-1.5 24q22 2 43.5 7t43.5 12q4 24 4.5 51t0.5 52v297q0 45 -1.5 77.5t-3.5 60.5q-22 7 -43.5 12 t-43.5 7q0 12 1.5 24t6.5 24q32 0 63 -1t64 -1q54 0 102.5 2t84.5 2q52 0 87 -15t56 -38.5t30 -53t9 -58.5t-9.5 -59.5t-27 -58t-42 -50.5t-55.5 -38l116 -236q24 -3 46 -7.5t41 -11.5q0 -12 -1.5 -26t-5.5 -22q-25 1 -54 1h-58h-37zM327 608q-26 0 -57.5 -1t-57.5 -2v-249 q23 -2 43.5 -3t42.5 -1q18 0 35.5 3t32 7t24 7.5t11.5 5.5q21 16 32 42t11 58q0 61 -31.5 97t-85.5 36zM288 -91q11 11 29 20.5t38 11.5q25 -20 35 -42t10 -45q0 -36 -21.5 -72.5t-69.5 -66.5q-18 8 -22 23q20 27 26 50t6 43q0 19 -8.5 38.5t-22.5 39.5z" />
<glyph unicode="&#x157;" horiz-adv-x="563" d="M280 206q-17 0 -36.5 1.5t-38.5 3.5v-92q0 -16 1 -31.5t3 -29.5q18 -2 35 -5.5t32 -8.5q1 -12 -0.5 -23t-4.5 -22q-10 1 -23.5 1.5t-28.5 0.5h-30h-27q-31 0 -58 -1t-54 -1q-7 21 -7 45q34 3 72 14q4 14 4.5 30t0.5 31v217q0 33 -1.5 57t-3.5 44q-38 11 -72 14q0 24 7 45 q27 0 54 -1t58 -1q43 0 84 2t72 2q43 0 73 -10.5t49 -28t27.5 -39.5t8.5 -45q0 -45 -29 -85.5t-77 -63.5l92 -168q20 -2 38.5 -5.5t33.5 -8.5q0 -11 -1 -23.5t-4 -21.5q-23 1 -48 1h-50h-37zM293 439q-20 0 -44 -0.5t-44 -1.5v-168q15 -1 30.5 -1.5t32.5 -0.5q15 0 29 2 t25.5 4.5t19 5t9.5 3.5q35 25 35 71q0 36 -24.5 61t-68.5 25zM258 -91q11 11 29 20.5t38 11.5q25 -20 35 -42t10 -45q0 -36 -21.5 -72.5t-69.5 -66.5q-18 8 -22 23q20 27 26 50t6 43q0 19 -8.5 38.5t-22.5 39.5z" />
<glyph unicode="&#x158;" horiz-adv-x="617" d="M310 282q-21 0 -47 1.5t-51 5.5v-140q0 -22 1 -42.5t3 -40.5q23 -2 43 -7t38 -12q1 -26 -6 -48q-11 1 -27 1.5t-33.5 0.5h-34.5h-29q-33 0 -64 -1t-63 -1q-5 12 -6.5 24t-1.5 24q22 2 43.5 7t43.5 12q4 24 4.5 51t0.5 52v297q0 45 -1.5 77.5t-3.5 60.5q-22 7 -43.5 12 t-43.5 7q0 12 1.5 24t6.5 24q32 0 63 -1t64 -1q54 0 102.5 2t84.5 2q52 0 87 -15t56 -38.5t30 -53t9 -58.5t-9.5 -59.5t-27 -58t-42 -50.5t-55.5 -38l116 -236q24 -3 46 -7.5t41 -11.5q0 -12 -1.5 -26t-5.5 -22q-25 1 -54 1h-58h-37zM327 608q-26 0 -57.5 -1t-57.5 -2v-249 q23 -2 43.5 -3t42.5 -1q18 0 35.5 3t32 7t24 7.5t11.5 5.5q21 16 32 42t11 58q0 61 -31.5 97t-85.5 36zM131 861q10 24 33 39l135 -93l133 93q19 -12 27 -34l-128 -134q-30 -6 -63 -6l-137 135v0z" />
<glyph unicode="&#x159;" horiz-adv-x="563" d="M280 206q-17 0 -36.5 1.5t-38.5 3.5v-92q0 -16 1 -31.5t3 -29.5q18 -2 35 -5.5t32 -8.5q1 -12 -0.5 -23t-4.5 -22q-10 1 -23.5 1.5t-28.5 0.5h-30h-27q-31 0 -58 -1t-54 -1q-7 21 -7 45q34 3 72 14q4 14 4.5 30t0.5 31v217q0 33 -1.5 57t-3.5 44q-38 11 -72 14q0 24 7 45 q27 0 54 -1t58 -1q43 0 84 2t72 2q43 0 73 -10.5t49 -28t27.5 -39.5t8.5 -45q0 -45 -29 -85.5t-77 -63.5l92 -168q20 -2 38.5 -5.5t33.5 -8.5q0 -11 -1 -23.5t-4 -21.5q-23 1 -48 1h-50h-37zM293 439q-20 0 -44 -0.5t-44 -1.5v-168q15 -1 30.5 -1.5t32.5 -0.5q15 0 29 2 t25.5 4.5t19 5t9.5 3.5q35 25 35 71q0 36 -24.5 61t-68.5 25zM121 735q9 22 36 31l118 -123l111 123q11 -3 19.5 -10.5t13.5 -17.5l-110 -173q-31 -9 -66 -7l-122 177v0z" />
<glyph unicode="&#x15a;" horiz-adv-x="544" d="M48 29q3 86 24 172q14 4 27 2.5t26 -6.5q2 -28 5 -58.5t9 -63.5q27 -9 59.5 -13.5t75.5 -4.5q18 0 34.5 3t29.5 7.5t21.5 8.5t10.5 6q34 33 34 102q0 19 -8.5 36t-22.5 31t-32 24.5t-37 17.5l-73 28q-28 10 -58 24.5t-55 35t-41 48.5t-16 66q0 52 21 88.5t54 59t73 32.5 t78 10q45 0 98 -9t95 -26q-1 -42 -6.5 -79.5t-15.5 -72.5q-31 -8 -52 4q-2 26 -5.5 50t-9.5 48q-25 7 -54 10t-61 3q-35 0 -62.5 -6t-32.5 -10q-13 -11 -21 -28t-8 -43q0 -22 9.5 -40t24.5 -32t33.5 -24.5t36.5 -16.5l86 -31q28 -10 56 -25t50 -36t35.5 -48.5t13.5 -62.5 q0 -47 -16 -88t-45.5 -71.5t-72 -48t-95.5 -17.5q-66 0 -124 12t-96 32zM377 897q29 -17 51 -57l-3 -20l-213 -93q-8 7 -13 18t-8 22z" />
<glyph unicode="&#x15b;" horiz-adv-x="490" d="M53 23q2 37 6.5 69.5t13.5 64.5q26 7 54 -4q1 -20 3.5 -42t7.5 -46q21 -7 46.5 -10.5t58.5 -3.5q28 0 50 7t26 10q26 20 26 65q0 27 -25 45.5t-59 30.5l-61 22q-23 8 -46.5 19t-43.5 26.5t-32.5 36t-12.5 49.5q0 39 17.5 66.5t45.5 45t62 25t67 7.5q38 0 83.5 -7 t80.5 -20q-1 -35 -5 -63.5t-12 -54.5q-31 -8 -52 3q-2 18 -4.5 36t-7.5 35q-20 5 -42.5 7.5t-48.5 2.5t-47.5 -4.5t-25.5 -6.5q-10 -7 -16 -19t-6 -29q0 -15 8 -27t20 -21t27 -16t30 -12l69 -25q23 -8 45.5 -19.5t40.5 -26.5t29 -35.5t11 -46.5q0 -35 -13 -65.5t-38 -53.5 t-61 -36t-82 -13q-56 0 -105.5 9t-81.5 25zM297 742q25 7 49.5 9.5t49.5 2.5l8 -23l-179 -184q-25 6 -38 28z" />
<glyph unicode="&#x15c;" horiz-adv-x="544" d="M48 29q3 86 24 172q14 4 27 2.5t26 -6.5q2 -28 5 -58.5t9 -63.5q27 -9 59.5 -13.5t75.5 -4.5q18 0 34.5 3t29.5 7.5t21.5 8.5t10.5 6q34 33 34 102q0 19 -8.5 36t-22.5 31t-32 24.5t-37 17.5l-73 28q-28 10 -58 24.5t-55 35t-41 48.5t-16 66q0 52 21 88.5t54 59t73 32.5 t78 10q45 0 98 -9t95 -26q-1 -42 -6.5 -79.5t-15.5 -72.5q-31 -8 -52 4q-2 26 -5.5 50t-9.5 48q-25 7 -54 10t-61 3q-35 0 -62.5 -6t-32.5 -10q-13 -11 -21 -28t-8 -43q0 -22 9.5 -40t24.5 -32t33.5 -24.5t36.5 -16.5l86 -31q28 -10 56 -25t50 -36t35.5 -48.5t13.5 -62.5 q0 -47 -16 -88t-45.5 -71.5t-72 -48t-95.5 -17.5q-66 0 -124 12t-96 32zM278 812l-133 -93q-19 12 -27 34l128 134q30 6 63 6l137 -135q-11 -24 -33 -39z" />
<glyph unicode="&#x15d;" horiz-adv-x="490" d="M53 23q2 37 6.5 69.5t13.5 64.5q26 7 54 -4q1 -20 3.5 -42t7.5 -46q21 -7 46.5 -10.5t58.5 -3.5q28 0 50 7t26 10q26 20 26 65q0 27 -25 45.5t-59 30.5l-61 22q-23 8 -46.5 19t-43.5 26.5t-32.5 36t-12.5 49.5q0 39 17.5 66.5t45.5 45t62 25t67 7.5q38 0 83.5 -7 t80.5 -20q-1 -35 -5 -63.5t-12 -54.5q-31 -8 -52 3q-2 18 -4.5 36t-7.5 35q-20 5 -42.5 7.5t-48.5 2.5t-47.5 -4.5t-25.5 -6.5q-10 -7 -16 -19t-6 -29q0 -15 8 -27t20 -21t27 -16t30 -12l69 -25q23 -8 45.5 -19.5t40.5 -26.5t29 -35.5t11 -46.5q0 -35 -13 -65.5t-38 -53.5 t-61 -36t-82 -13q-56 0 -105.5 9t-81.5 25zM246 667l-111 -123q-11 3 -19.5 10.5t-13.5 17.5l110 173q31 9 66 7l122 -177q-9 -22 -36 -31z" />
<glyph unicode="&#x15e;" horiz-adv-x="544" d="M48 29q3 86 24 172q14 4 27 2.5t26 -6.5q2 -28 5 -58.5t9 -63.5q27 -9 59.5 -13.5t75.5 -4.5q18 0 34.5 3t29.5 7.5t21.5 8.5t10.5 6q34 33 34 102q0 19 -8.5 36t-22.5 31t-32 24.5t-37 17.5l-73 28q-28 10 -58 24.5t-55 35t-41 48.5t-16 66q0 52 21 88.5t54 59t73 32.5 t78 10q45 0 98 -9t95 -26q-1 -42 -6.5 -79.5t-15.5 -72.5q-31 -8 -52 4q-2 26 -5.5 50t-9.5 48q-25 7 -54 10t-61 3q-35 0 -62.5 -6t-32.5 -10q-13 -11 -21 -28t-8 -43q0 -22 9.5 -40t24.5 -32t33.5 -24.5t36.5 -16.5l86 -31q28 -10 56 -25t50 -36t35.5 -48.5t13.5 -62.5 q0 -46 -15 -86t-43.5 -70.5t-69.5 -48.5t-92 -20l-12 -28q50 -2 74.5 -23t24.5 -54q0 -23 -13.5 -44.5t-37 -40t-54 -32t-64.5 -19.5q-11 10 -11 29q13 6 30 15t32 21t25.5 26t10.5 31q0 19 -18 32.5t-56 11.5l-8 8l34 68q-57 3 -105.5 14t-80.5 29z" />
<glyph unicode="&#x15f;" horiz-adv-x="490" d="M53 23q2 37 6.5 69.5t13.5 64.5q26 7 54 -4q1 -20 3.5 -42t7.5 -46q21 -7 46.5 -10.5t58.5 -3.5q28 0 50 7t26 10q26 20 26 65q0 27 -25 45.5t-59 30.5l-61 22q-23 8 -46.5 19t-43.5 26.5t-32.5 36t-12.5 49.5q0 39 17.5 66.5t45.5 45t62 25t67 7.5q38 0 83.5 -7 t80.5 -20q-1 -35 -5 -63.5t-12 -54.5q-31 -8 -52 3q-2 18 -4.5 36t-7.5 35q-20 5 -42.5 7.5t-48.5 2.5t-47.5 -4.5t-25.5 -6.5q-10 -7 -16 -19t-6 -29q0 -15 8 -27t20 -21t27 -16t30 -12l69 -25q23 -8 45.5 -19.5t40.5 -26.5t29 -35.5t11 -46.5q0 -34 -12.5 -64t-36 -52.5 t-58 -36.5t-77.5 -15l-14 -32q50 -2 74.5 -23t24.5 -54q0 -23 -13.5 -44.5t-37 -40t-54 -32t-64.5 -19.5q-11 10 -11 29q13 6 30 15t32 21t25.5 26t10.5 31q0 19 -18 32.5t-56 11.5l-8 8l36 72q-47 2 -87.5 10.5t-66.5 22.5z" />
<glyph unicode="&#x160;" horiz-adv-x="544" d="M48 29q3 86 24 172q14 4 27 2.5t26 -6.5q2 -28 5 -58.5t9 -63.5q27 -9 59.5 -13.5t75.5 -4.5q18 0 34.5 3t29.5 7.5t21.5 8.5t10.5 6q34 33 34 102q0 19 -8.5 36t-22.5 31t-32 24.5t-37 17.5l-73 28q-28 10 -58 24.5t-55 35t-41 48.5t-16 66q0 52 21 88.5t54 59t73 32.5 t78 10q45 0 98 -9t95 -26q-1 -42 -6.5 -79.5t-15.5 -72.5q-31 -8 -52 4q-2 26 -5.5 50t-9.5 48q-25 7 -54 10t-61 3q-35 0 -62.5 -6t-32.5 -10q-13 -11 -21 -28t-8 -43q0 -22 9.5 -40t24.5 -32t33.5 -24.5t36.5 -16.5l86 -31q28 -10 56 -25t50 -36t35.5 -48.5t13.5 -62.5 q0 -47 -16 -88t-45.5 -71.5t-72 -48t-95.5 -17.5q-66 0 -124 12t-96 32zM117 861q10 24 33 39l135 -93l133 93q19 -12 27 -34l-128 -134q-30 -6 -63 -6l-137 135v0z" />
<glyph unicode="&#x161;" horiz-adv-x="490" d="M53 23q2 37 6.5 69.5t13.5 64.5q26 7 54 -4q1 -20 3.5 -42t7.5 -46q21 -7 46.5 -10.5t58.5 -3.5q28 0 50 7t26 10q26 20 26 65q0 27 -25 45.5t-59 30.5l-61 22q-23 8 -46.5 19t-43.5 26.5t-32.5 36t-12.5 49.5q0 39 17.5 66.5t45.5 45t62 25t67 7.5q38 0 83.5 -7 t80.5 -20q-1 -35 -5 -63.5t-12 -54.5q-31 -8 -52 3q-2 18 -4.5 36t-7.5 35q-20 5 -42.5 7.5t-48.5 2.5t-47.5 -4.5t-25.5 -6.5q-10 -7 -16 -19t-6 -29q0 -15 8 -27t20 -21t27 -16t30 -12l69 -25q23 -8 45.5 -19.5t40.5 -26.5t29 -35.5t11 -46.5q0 -35 -13 -65.5t-38 -53.5 t-61 -36t-82 -13q-56 0 -105.5 9t-81.5 25zM99 735q9 22 36 31l118 -123l111 123q11 -3 19.5 -10.5t13.5 -17.5l-110 -173q-31 -9 -66 -7l-122 177v0z" />
<glyph unicode="&#x162;" horiz-adv-x="606" d="M347 605v-456q0 -22 1 -42.5t3 -40.5q28 -2 53 -7t48 -12q2 -27 -7 -48q-21 1 -56 1.5t-65 0.5l-19 -44q50 -2 74.5 -23t24.5 -54q0 -23 -13.5 -44.5t-37 -40t-54 -32t-64.5 -19.5q-11 10 -11 29q13 6 30 15t32 21t25.5 26t10.5 31q0 19 -18 32.5t-56 11.5l-8 8l41 83 q-32 -1 -62.5 -1.5t-62.5 -0.5q-5 12 -7 24t-2 24q27 2 53.5 7t53.5 12q3 14 4 29.5t1 31.5v478h-165q-7 -30 -10.5 -61t-5.5 -61q-14 -5 -26.5 -5t-26.5 5q-12 87 -9 180l8 8q23 -1 53 -1.5t61.5 -0.5h63h57.5h88h57.5h63t61.5 0.5t53 1.5l8 -8q3 -90 -9 -180q-31 -9 -53 0 q-2 31 -5.5 62t-10.5 60h-165z" />
<glyph unicode="&#x163;" horiz-adv-x="551" d="M318 437v-318q0 -33 3 -61q24 -2 45.5 -5.5t40.5 -8.5q2 -25 -5 -45q-22 2 -55 2h-62l-19 -44q50 -2 74.5 -23t24.5 -54q0 -23 -13.5 -44.5t-37 -40t-54 -32t-64.5 -19.5q-11 10 -11 29q13 6 30 15t32 21t25.5 26t10.5 31q0 19 -18 32.5t-56 11.5l-8 8l41 83 q-26 -1 -49.5 -1.5t-47.5 -0.5q-5 11 -6 22.5t-1 22.5q23 2 45.5 5.5t45.5 8.5q4 19 4 45v334h-129q-5 -23 -8 -47t-5 -47q-26 -7 -54 0q-5 33 -6.5 67.5t-1.5 77.5l8 8q19 -1 44 -1.5t51.5 -0.5h53h48.5h82h48.5h53t51.5 0.5t44 1.5l8 -8q0 -42 -1.5 -76.5t-7.5 -68.5 q-30 -7 -53 0q-2 23 -5 47t-8 47h-128z" />
<glyph unicode="&#x164;" horiz-adv-x="606" d="M347 605v-456q0 -22 1 -42.5t3 -40.5q28 -2 53 -7t48 -12q2 -27 -7 -48q-12 1 -30.5 1.5t-39 0.5h-40h-33.5q-38 0 -73 -1t-73 -1q-5 12 -7 24t-2 24q27 2 53.5 7t53.5 12q3 14 4 29.5t1 31.5v478h-165q-7 -30 -10.5 -61t-5.5 -61q-14 -5 -26.5 -5t-26.5 5q-12 87 -9 180 l8 8q23 -1 53 -1.5t61.5 -0.5h63h57.5h88h57.5h63t61.5 0.5t53 1.5l8 -8q3 -90 -9 -180q-31 -9 -53 0q-2 31 -5.5 62t-10.5 60h-165zM139 861q10 24 33 39l135 -93l133 93q19 -12 27 -34l-128 -134q-30 -6 -63 -6l-137 135v0z" />
<glyph unicode="&#x165;" horiz-adv-x="551" d="M318 437v-318q0 -33 3 -61q24 -2 45.5 -5.5t40.5 -8.5q2 -25 -5 -45q-12 1 -28 1.5t-33.5 0.5h-35h-31.5q-35 0 -66 -1t-63 -1q-5 11 -6 22.5t-1 22.5q23 2 45.5 5.5t45.5 8.5q4 19 4 45v334h-129q-5 -23 -8 -47t-5 -47q-26 -7 -54 0q-5 33 -6.5 67.5t-1.5 77.5l8 8 q19 -1 44 -1.5t51.5 -0.5h53h48.5h82h48.5h53t51.5 0.5t44 1.5l8 -8q0 -42 -1.5 -76.5t-7.5 -68.5q-30 -7 -53 0q-2 23 -5 47t-8 47h-128zM128 735q9 22 36 31l118 -123l111 123q11 -3 19.5 -10.5t13.5 -17.5l-110 -173q-31 -9 -66 -7l-122 177v0z" />
<glyph unicode="&#x166;" horiz-adv-x="606" d="M347 605v-231h111q6 -33 0 -66h-111v-159q0 -22 1 -42.5t3 -40.5q28 -2 53 -7t48 -12q2 -27 -7 -48q-12 1 -30.5 1.5t-39 0.5h-40h-33.5q-38 0 -73 -1t-73 -1q-5 12 -7 24t-2 24q27 2 53.5 7t53.5 12q3 14 4 29.5t1 31.5v181h-110q-3 16 -3.5 32.5t3.5 33.5h110v231h-165 q-7 -30 -10.5 -61t-5.5 -61q-14 -5 -26.5 -5t-26.5 5q-12 87 -9 180l8 8q23 -1 53 -1.5t61.5 -0.5h63h57.5h88h57.5h63t61.5 0.5t53 1.5l8 -8q3 -90 -9 -180q-31 -9 -53 0q-2 31 -5.5 62t-10.5 60h-165z" />
<glyph unicode="&#x167;" horiz-adv-x="551" d="M318 221v-102q0 -33 3 -61q24 -2 45.5 -5.5t40.5 -8.5q2 -25 -5 -45q-12 1 -28 1.5t-33.5 0.5h-35h-31.5q-35 0 -66 -1t-63 -1q-5 11 -6 22.5t-1 22.5q23 2 45.5 5.5t45.5 8.5q4 19 4 45v118h-112q-3 14 -3.5 28t3.5 28h112v160h-129q-5 -23 -8 -47t-5 -47q-26 -7 -54 0 q-5 33 -6.5 67.5t-1.5 77.5l8 8q19 -1 44 -1.5t51.5 -0.5h53h48.5h82h48.5h53t51.5 0.5t44 1.5l8 -8q0 -42 -1.5 -76.5t-7.5 -68.5q-30 -7 -53 0q-2 23 -5 47t-8 47h-128v-160h112q6 -28 0 -56h-112z" />
<glyph unicode="&#x168;" horiz-adv-x="695" d="M599 247q0 -58 -15.5 -106.5t-48.5 -84t-83.5 -55t-120.5 -19.5q-113 0 -171 58.5t-58 193.5v232q0 45 -1.5 77.5t-3.5 60.5q-22 7 -43.5 12t-43.5 7q0 12 1.5 24t6.5 24q32 0 63 -1t64 -1h29h34t33 0.5t27 1.5q7 -23 6 -48q-18 -7 -38 -12t-43 -7q-2 -28 -2.5 -60.5 t-0.5 -77.5v-201q0 -55 8.5 -94.5t28.5 -65.5t54 -38.5t84 -12.5q42 0 76.5 11.5t45.5 23.5q14 15 23 38.5t13.5 49t4.5 58.5v231q0 45 -1.5 77.5t-3.5 60.5q-22 7 -43.5 12t-43.5 7q0 12 1.5 24t6.5 24q32 0 63 -1t64 -1h53t54 2q7 -23 6 -48q-18 -7 -38 -12t-43 -7 q-2 -28 -3 -60.5t-1 -77.5v-219zM209 744q-25 7 -33 27q23 44 58 72t65 28q19 0 37 -10t34.5 -22.5t32.5 -22.5t32 -10q11 0 31 14.5t39 39.5q25 -7 33 -27q-23 -44 -58 -72t-65 -28q-20 0 -37.5 10t-34 22.5t-32.5 22.5t-32 10q-11 0 -31 -14.5t-39 -39.5z" />
<glyph unicode="&#x169;" horiz-adv-x="619" d="M520 192q0 -44 -13 -81.5t-40 -65.5t-69.5 -43.5t-101.5 -15.5q-94 0 -143.5 43.5t-49.5 143.5v163q0 33 -1 57t-3 44q-38 11 -72 14q0 11 1 22.5t5 22.5q27 0 54.5 -1t57.5 -1h27h30t28.5 0.5t23.5 1.5q6 -22 5 -45q-15 -5 -31.5 -8.5t-35.5 -5.5q-2 -20 -2.5 -44 t-0.5 -57v-134q0 -78 30 -114t107 -36q33 0 60.5 8.5t35.5 16.5q8 7 20 31t12 71v157q0 33 -1 57t-3 44q-38 11 -72 14q0 24 7 45q26 0 52 -1t53 -1h47.5t47.5 2q7 -19 5 -45q-15 -5 -31.5 -8.5t-35.5 -5.5q-2 -20 -2.5 -44t-0.5 -57v-144zM166 577q-26 7 -34 28 q24 45 60 74t67 29q21 0 38.5 -10.5t34 -23t33 -23t36.5 -10.5q12 0 32.5 15t40.5 41q23 -6 35 -26q-12 -23 -28 -42t-33 -33t-35 -22t-34 -8q-20 0 -38 10.5t-34.5 23t-33 23t-34.5 10.5q-12 0 -32.5 -15t-40.5 -41z" />
<glyph unicode="&#x16a;" horiz-adv-x="695" d="M599 247q0 -58 -15.5 -106.5t-48.5 -84t-83.5 -55t-120.5 -19.5q-113 0 -171 58.5t-58 193.5v232q0 45 -1.5 77.5t-3.5 60.5q-22 7 -43.5 12t-43.5 7q0 12 1.5 24t6.5 24q32 0 63 -1t64 -1h29h34t33 0.5t27 1.5q7 -23 6 -48q-18 -7 -38 -12t-43 -7q-2 -28 -2.5 -60.5 t-0.5 -77.5v-201q0 -55 8.5 -94.5t28.5 -65.5t54 -38.5t84 -12.5q42 0 76.5 11.5t45.5 23.5q14 15 23 38.5t13.5 49t4.5 58.5v231q0 45 -1.5 77.5t-3.5 60.5q-22 7 -43.5 12t-43.5 7q0 12 1.5 24t6.5 24q32 0 63 -1t64 -1h53t54 2q7 -23 6 -48q-18 -7 -38 -12t-43 -7 q-2 -28 -3 -60.5t-1 -77.5v-219zM499 809q12 -33 0 -65h-283q-5 16 -5 32.5t5 32.5h283z" />
<glyph unicode="&#x16b;" horiz-adv-x="619" d="M520 192q0 -44 -13 -81.5t-40 -65.5t-69.5 -43.5t-101.5 -15.5q-94 0 -143.5 43.5t-49.5 143.5v163q0 33 -1 57t-3 44q-38 11 -72 14q0 11 1 22.5t5 22.5q27 0 54.5 -1t57.5 -1h27h30t28.5 0.5t23.5 1.5q6 -22 5 -45q-15 -5 -31.5 -8.5t-35.5 -5.5q-2 -20 -2.5 -44 t-0.5 -57v-134q0 -78 30 -114t107 -36q33 0 60.5 8.5t35.5 16.5q8 7 20 31t12 71v157q0 33 -1 57t-3 44q-38 11 -72 14q0 24 7 45q26 0 52 -1t53 -1h47.5t47.5 2q7 -19 5 -45q-15 -5 -31.5 -8.5t-35.5 -5.5q-2 -20 -2.5 -44t-0.5 -57v-144zM457 642q12 -34 0 -67h-275 q-5 17 -5 33.5t5 33.5h275z" />
<glyph unicode="&#x16c;" horiz-adv-x="695" d="M599 247q0 -58 -15.5 -106.5t-48.5 -84t-83.5 -55t-120.5 -19.5q-113 0 -171 58.5t-58 193.5v232q0 45 -1.5 77.5t-3.5 60.5q-22 7 -43.5 12t-43.5 7q0 12 1.5 24t6.5 24q32 0 63 -1t64 -1h29h34t33 0.5t27 1.5q7 -23 6 -48q-18 -7 -38 -12t-43 -7q-2 -28 -2.5 -60.5 t-0.5 -77.5v-201q0 -55 8.5 -94.5t28.5 -65.5t54 -38.5t84 -12.5q42 0 76.5 11.5t45.5 23.5q14 15 23 38.5t13.5 49t4.5 58.5v231q0 45 -1.5 77.5t-3.5 60.5q-22 7 -43.5 12t-43.5 7q0 12 1.5 24t6.5 24q32 0 63 -1t64 -1h53t54 2q7 -23 6 -48q-18 -7 -38 -12t-43 -7 q-2 -28 -3 -60.5t-1 -77.5v-219zM350 735q-32 0 -57.5 10.5t-44 25.5t-31 32.5t-17.5 32.5q7 20 33 28q21 -22 54 -40t73 -18q43 0 73 18.5t50 39.5q27 -7 31 -28q-10 -19 -25 -37t-35 -32.5t-46 -23t-58 -8.5z" />
<glyph unicode="&#x16d;" horiz-adv-x="619" d="M520 192q0 -44 -13 -81.5t-40 -65.5t-69.5 -43.5t-101.5 -15.5q-94 0 -143.5 43.5t-49.5 143.5v163q0 33 -1 57t-3 44q-38 11 -72 14q0 11 1 22.5t5 22.5q27 0 54.5 -1t57.5 -1h27h30t28.5 0.5t23.5 1.5q6 -22 5 -45q-15 -5 -31.5 -8.5t-35.5 -5.5q-2 -20 -2.5 -44 t-0.5 -57v-134q0 -78 30 -114t107 -36q33 0 60.5 8.5t35.5 16.5q8 7 20 31t12 71v157q0 33 -1 57t-3 44q-38 11 -72 14q0 24 7 45q26 0 52 -1t53 -1h47.5t47.5 2q7 -19 5 -45q-15 -5 -31.5 -8.5t-35.5 -5.5q-2 -20 -2.5 -44t-0.5 -57v-144zM313 569q-32 0 -57.5 12t-44.5 30 t-31.5 38t-17.5 37q7 20 33 28q21 -27 54 -49t73 -22q43 0 73 22.5t50 48.5q27 -7 31 -28q-5 -16 -19.5 -36t-35.5 -38t-48.5 -30.5t-59.5 -12.5z" />
<glyph unicode="&#x16e;" horiz-adv-x="695" d="M599 247q0 -58 -15.5 -106.5t-48.5 -84t-83.5 -55t-120.5 -19.5q-113 0 -171 58.5t-58 193.5v232q0 45 -1.5 77.5t-3.5 60.5q-22 7 -43.5 12t-43.5 7q0 12 1.5 24t6.5 24q32 0 63 -1t64 -1h29h34t33 0.5t27 1.5q7 -23 6 -48q-18 -7 -38 -12t-43 -7q-2 -28 -2.5 -60.5 t-0.5 -77.5v-201q0 -55 8.5 -94.5t28.5 -65.5t54 -38.5t84 -12.5q42 0 76.5 11.5t45.5 23.5q14 15 23 38.5t13.5 49t4.5 58.5v231q0 45 -1.5 77.5t-3.5 60.5q-22 7 -43.5 12t-43.5 7q0 12 1.5 24t6.5 24q32 0 63 -1t64 -1h53t54 2q7 -23 6 -48q-18 -7 -38 -12t-43 -7 q-2 -28 -3 -60.5t-1 -77.5v-219zM363 764q11 0 20.5 3.5t13.5 6.5q5 4 9 13t4 23q0 20 -14.5 35.5t-34.5 15.5q-11 0 -20.5 -3t-13.5 -6q-5 -4 -9 -13t-4 -23q0 -19 14.5 -35.5t34.5 -16.5zM357 713q-46 0 -73 24.5t-27 73.5q0 18 9 36.5t24.5 32.5t35.5 23t41 9 q46 0 73 -24t27 -74q0 -18 -9 -36t-24.5 -32.5t-35.5 -23.5t-41 -9z" />
<glyph unicode="&#x16f;" horiz-adv-x="619" d="M520 192q0 -44 -13 -81.5t-40 -65.5t-69.5 -43.5t-101.5 -15.5q-94 0 -143.5 43.5t-49.5 143.5v163q0 33 -1 57t-3 44q-38 11 -72 14q0 11 1 22.5t5 22.5q27 0 54.5 -1t57.5 -1h27h30t28.5 0.5t23.5 1.5q6 -22 5 -45q-15 -5 -31.5 -8.5t-35.5 -5.5q-2 -20 -2.5 -44 t-0.5 -57v-134q0 -78 30 -114t107 -36q33 0 60.5 8.5t35.5 16.5q8 7 20 31t12 71v157q0 33 -1 57t-3 44q-38 11 -72 14q0 24 7 45q26 0 52 -1t53 -1h47.5t47.5 2q7 -19 5 -45q-15 -5 -31.5 -8.5t-35.5 -5.5q-2 -20 -2.5 -44t-0.5 -57v-144zM325 614q11 0 20 3.5t13 6.5 q5 4 9 12.5t4 22.5q0 20 -14 35t-34 15q-11 0 -20 -3t-13 -6q-5 -4 -9 -12.5t-4 -22.5q0 -19 14 -35t34 -16zM319 561q-47 0 -74 24.5t-27 74.5q0 18 9 36.5t24.5 33t35.5 23.5t42 9q47 0 74 -24t27 -75q0 -18 -9 -36t-24.5 -33t-35.5 -24t-42 -9z" />
<glyph unicode="&#x170;" horiz-adv-x="695" d="M599 247q0 -58 -15.5 -106.5t-48.5 -84t-83.5 -55t-120.5 -19.5q-113 0 -171 58.5t-58 193.5v232q0 45 -1.5 77.5t-3.5 60.5q-22 7 -43.5 12t-43.5 7q0 12 1.5 24t6.5 24q32 0 63 -1t64 -1h29h34t33 0.5t27 1.5q7 -23 6 -48q-18 -7 -38 -12t-43 -7q-2 -28 -2.5 -60.5 t-0.5 -77.5v-201q0 -55 8.5 -94.5t28.5 -65.5t54 -38.5t84 -12.5q42 0 76.5 11.5t45.5 23.5q14 15 23 38.5t13.5 49t4.5 58.5v231q0 45 -1.5 77.5t-3.5 60.5q-22 7 -43.5 12t-43.5 7q0 12 1.5 24t6.5 24q32 0 63 -1t64 -1h53t54 2q7 -23 6 -48q-18 -7 -38 -12t-43 -7 q-2 -28 -3 -60.5t-1 -77.5v-219zM399 885l-112 -162q-26 4 -39 21l65 150q20 8 40 11t40 3zM555 885l-112 -162q-26 4 -39 21l65 150q20 8 40 11t40 3z" />
<glyph unicode="&#x171;" horiz-adv-x="619" d="M520 192q0 -44 -13 -81.5t-40 -65.5t-69.5 -43.5t-101.5 -15.5q-94 0 -143.5 43.5t-49.5 143.5v163q0 33 -1 57t-3 44q-38 11 -72 14q0 11 1 22.5t5 22.5q27 0 54.5 -1t57.5 -1h27h30t28.5 0.5t23.5 1.5q6 -22 5 -45q-15 -5 -31.5 -8.5t-35.5 -5.5q-2 -20 -2.5 -44 t-0.5 -57v-134q0 -78 30 -114t107 -36q33 0 60.5 8.5t35.5 16.5q8 7 20 31t12 71v157q0 33 -1 57t-3 44q-38 11 -72 14q0 24 7 45q26 0 52 -1t53 -1h47.5t47.5 2q7 -19 5 -45q-15 -5 -31.5 -8.5t-35.5 -5.5q-2 -20 -2.5 -44t-0.5 -57v-144zM501 748l-103 -185q-26 3 -42 17 l54 165q20 11 40 16t46 5zM358 748l-103 -185q-27 3 -41 17l54 165q20 11 39.5 16t45.5 5z" />
<glyph unicode="&#x172;" horiz-adv-x="695" d="M599 247q0 -57 -15 -107t-61 -95q-11 -11 -26.5 -28t-29.5 -36.5t-24 -40t-10 -39.5q0 -25 11.5 -38.5t28.5 -13.5q14 0 27 2t31 7q13 -16 13 -40q-29 -17 -55.5 -25t-53.5 -8q-36 0 -60 23.5t-24 56.5q0 32 23.5 66.5t61.5 63.5l-2 2q-45 -15 -103 -15q-113 0 -171 58.5 t-58 193.5v232q0 45 -1.5 77.5t-3.5 60.5q-22 7 -43.5 12t-43.5 7q0 12 1.5 24t6.5 24q32 0 63 -1t64 -1h29h34t33 0.5t27 1.5q7 -23 6 -48q-18 -7 -38 -12t-43 -7q-2 -28 -2.5 -60.5t-0.5 -77.5v-201q0 -55 8.5 -94.5t28.5 -65.5t54 -38.5t84 -12.5q42 0 76.5 12t45.5 23 q4 5 11 16t14 28.5t11.5 43t4.5 58.5v231q0 45 -1.5 77.5t-3.5 60.5q-22 7 -43.5 12t-43.5 7q0 12 1.5 24t6.5 24q32 0 63 -1t64 -1h53t54 2q7 -23 6 -48q-18 -7 -38 -12t-43 -7q-2 -28 -3 -60.5t-1 -77.5v-219z" />
<glyph unicode="&#x173;" horiz-adv-x="619" d="M353 -9q-14 -2 -28 -3.5t-29 -1.5q-94 0 -143.5 43.5t-49.5 143.5v163q0 33 -1 57t-3 44q-38 11 -72 14q0 11 1 22.5t5 22.5q27 0 54.5 -1t57.5 -1h27h30t28.5 0.5t23.5 1.5q6 -22 5 -45q-15 -5 -31.5 -8.5t-35.5 -5.5q-2 -20 -2.5 -44t-0.5 -57v-134q0 -78 30 -114 t107 -36q33 0 60.5 8.5t35.5 16.5q8 7 20 31t12 71v157q0 33 -1 57t-3 44q-38 11 -72 14q0 24 7 45q26 0 52 -1t53 -1h47.5t47.5 2q7 -19 5 -45q-15 -5 -31.5 -8.5t-35.5 -5.5q-2 -20 -2.5 -44t-0.5 -57v-144q0 -51 -17 -92.5t-53 -69.5q-55 -43 -76 -75.5t-21 -59.5 q0 -24 11.5 -35t28.5 -11q14 0 27 2.5t31 7.5q13 -18 13 -41q-29 -17 -55.5 -25t-53.5 -8q-36 0 -60 20.5t-24 49.5q0 36 23.5 70t59.5 64z" />
<glyph unicode="&#x174;" horiz-adv-x="962" d="M85 604q-20 7 -40 12t-40 7q0 12 1.5 24t6.5 24q32 0 63 -1t64 -1h29h34.5t33.5 0.5t27 1.5q7 -23 6 -48l-88 -19l113 -439l5 -85h1l154 582q18 7 39 10t43 3l129 -510l6 -85h1l133 524l-94 19q0 12 1.5 24t6.5 24q32 0 61 -1t54 -1h23.5h30t31 0.5t26.5 1.5q7 -23 6 -48 q-17 -7 -35.5 -12t-38.5 -7l-158 -595q-20 -8 -47.5 -11t-52.5 -3l-119 471l-4 101h-1l-145 -558q-20 -8 -50 -11t-55 -3zM496 812l-133 -93q-19 12 -27 34l128 134q30 6 63 6l137 -135q-11 -24 -33 -39z" />
<glyph unicode="&#x175;" horiz-adv-x="846" d="M91 437q-35 11 -67 14q0 11 1 22.5t5 22.5q27 0 54.5 -1t57.5 -1h27h30t28.5 0.5t23.5 1.5q6 -22 5 -45l-72 -13l87 -293l4 -71h1l122 414q17 5 38.5 8t42.5 3l103 -353l4 -71h1l104 364l-78 12q0 24 7 45q26 0 50.5 -1t48.5 -1h47t48 2q3 -11 4 -22t1 -23 q-14 -5 -30 -8.5t-33 -5.5l-127 -429q-17 -6 -43.5 -9t-49.5 -3l-96 319l-4 78h-1l-115 -385q-17 -6 -45.5 -9t-51.5 -3zM434 667l-111 -123q-11 3 -19.5 10.5t-13.5 17.5l110 173q31 9 66 7l122 -177q-9 -22 -36 -31z" />
<glyph unicode="&#x176;" horiz-adv-x="650" d="M373 249v-100q0 -22 1 -42.5t3 -40.5q28 -2 53 -7t48 -12q2 -27 -7 -48q-12 1 -30.5 1.5t-39 0.5h-40h-33.5q-38 0 -73 -1t-73 -1q-5 12 -7 24t-2 24q27 2 53.5 7t53.5 12q3 14 4 29.5t1 31.5v109l-200 368q-20 7 -40 12t-40 7q0 12 1.5 24t6.5 24q32 0 64 -1t68 -1h31.5 h35t33.5 0.5t27 1.5q7 -23 6 -48l-88 -19l150 -279l152 279l-94 19q0 12 1.5 24t6.5 24q32 0 61 -1t55 -1h23.5h30.5t31.5 0.5t26.5 1.5q7 -23 6 -48q-17 -7 -35.5 -12t-38.5 -7zM337 812l-133 -93q-19 12 -27 34l128 134q30 6 63 6l137 -135q-11 -24 -33 -39z" />
<glyph unicode="&#x177;" horiz-adv-x="585" d="M338 182v-63q0 -16 1 -31.5t3 -29.5q45 -3 86 -14q0 -12 -1 -23t-5 -22q-11 1 -27 1.5t-33.5 0.5h-35h-31.5q-36 0 -67.5 -1t-62.5 -1q-8 20 -8 45q23 2 46 5.5t46 8.5q4 19 4 45v66l-162 268q-17 5 -33.5 8.5t-33.5 5.5q0 11 1 22t5 23q28 0 56 -1t61 -1h60t53 2 q6 -20 4 -45l-71 -13l116 -188l116 188l-76 13q0 22 6 45q26 0 51 -1t50 -1h48t48 2q6 -22 5 -45q-14 -5 -29.5 -8.5t-32.5 -5.5zM305 667l-111 -123q-11 3 -19.5 10.5t-13.5 17.5l110 173q31 9 66 7l122 -177q-9 -22 -36 -31z" />
<glyph unicode="&#x178;" horiz-adv-x="650" d="M373 249v-100q0 -22 1 -42.5t3 -40.5q28 -2 53 -7t48 -12q2 -27 -7 -48q-12 1 -30.5 1.5t-39 0.5h-40h-33.5q-38 0 -73 -1t-73 -1q-5 12 -7 24t-2 24q27 2 53.5 7t53.5 12q3 14 4 29.5t1 31.5v109l-200 368q-20 7 -40 12t-40 7q0 12 1.5 24t6.5 24q32 0 64 -1t68 -1h31.5 h35t33.5 0.5t27 1.5q7 -23 6 -48l-88 -19l150 -279l152 279l-94 19q0 12 1.5 24t6.5 24q32 0 61 -1t55 -1h23.5h30.5t31.5 0.5t26.5 1.5q7 -23 6 -48q-17 -7 -35.5 -12t-38.5 -7zM244 743q-18 0 -33.5 12.5t-15.5 30.5q0 23 16 44t42 21q17 0 32.5 -12.5t15.5 -32.5 q0 -23 -16.5 -42.5t-40.5 -20.5zM427 743q-17 0 -32.5 12.5t-15.5 30.5q0 11 4.5 22.5t12 21t18 15.5t22.5 6q19 0 34 -12.5t15 -32.5q0 -23 -16 -42.5t-42 -20.5z" />
<glyph unicode="&#x179;" horiz-adv-x="606" d="M43 1q-12 31 -11 64l395 540h-289q-7 -27 -10.5 -55t-5.5 -55q-14 -5 -26.5 -5t-26.5 5q-12 81 -9 169l8 7q23 -1 53 -1.5t61.5 -0.5h63h57.5h210q20 -26 29 -64l-397 -540h322q11 30 19.5 60t16.5 62q14 3 26.5 2t26.5 -6q0 -45 -2.5 -88t-8.5 -88l-8 -8q-23 1 -53 1.5 t-61.5 0.5h-63h-57.5h-259zM418 897q29 -17 51 -57l-3 -20l-213 -93q-8 7 -13 18t-8 22z" />
<glyph unicode="&#x17a;" horiz-adv-x="540" d="M54 1q-10 24 -10 55l312 381h-218q-5 -20 -8 -40.5t-5 -40.5q-13 -4 -26.5 -4.5t-26.5 4.5q-5 31 -7 62.5t-2 69.5l8 8q19 -1 44 -1.5t52 -0.5h53h48h177q19 -24 25 -55l-312 -381h244q17 47 30 91q14 2 26.5 1t26.5 -5q0 -32 -2 -65.5t-7 -72.5l-8 -8q-20 1 -44.5 1.5 t-51 0.5h-53h-48.5h-217zM323 742q25 7 49.5 9.5t49.5 2.5l8 -23l-179 -184q-25 6 -38 28z" />
<glyph unicode="&#x17b;" horiz-adv-x="606" d="M43 1q-12 31 -11 64l395 540h-289q-7 -27 -10.5 -55t-5.5 -55q-14 -5 -26.5 -5t-26.5 5q-12 81 -9 169l8 7q23 -1 53 -1.5t61.5 -0.5h63h57.5h210q20 -26 29 -64l-397 -540h322q11 30 19.5 60t16.5 62q14 3 26.5 2t26.5 -6q0 -45 -2.5 -88t-8.5 -88l-8 -8q-23 1 -53 1.5 t-61.5 0.5h-63h-57.5h-259zM308 740q-19 0 -36.5 14t-17.5 35q0 12 5 24.5t13.5 23t20 17t24.5 6.5q20 0 37 -14t17 -36q0 -12 -5 -24.5t-13 -22.5t-20 -16.5t-25 -6.5z" />
<glyph unicode="&#x17c;" horiz-adv-x="540" d="M54 1q-10 24 -10 55l312 381h-218q-5 -20 -8 -40.5t-5 -40.5q-13 -4 -26.5 -4.5t-26.5 4.5q-5 31 -7 62.5t-2 69.5l8 8q19 -1 44 -1.5t52 -0.5h53h48h177q19 -24 25 -55l-312 -381h244q17 47 30 91q14 2 26.5 1t26.5 -5q0 -32 -2 -65.5t-7 -72.5l-8 -8q-20 1 -44.5 1.5 t-51 0.5h-53h-48.5h-217zM268 586q-10 0 -20.5 4t-19.5 11.5t-14.5 17.5t-5.5 21q0 13 5.5 27t15 25.5t22 18.5t26.5 7q23 0 41.5 -16t18.5 -39q0 -14 -5.5 -27.5t-14.5 -24.5t-21.5 -18t-27.5 -7z" />
<glyph unicode="&#x17d;" horiz-adv-x="606" d="M43 1q-12 31 -11 64l395 540h-289q-7 -27 -10.5 -55t-5.5 -55q-14 -5 -26.5 -5t-26.5 5q-12 81 -9 169l8 7q23 -1 53 -1.5t61.5 -0.5h63h57.5h210q20 -26 29 -64l-397 -540h322q11 30 19.5 60t16.5 62q14 3 26.5 2t26.5 -6q0 -45 -2.5 -88t-8.5 -88l-8 -8q-23 1 -53 1.5 t-61.5 0.5h-63h-57.5h-259zM148 861q10 24 33 39l135 -93l133 93q19 -12 27 -34l-128 -134q-30 -6 -63 -6l-137 135v0z" />
<glyph unicode="&#x17e;" horiz-adv-x="540" d="M54 1q-10 24 -10 55l312 381h-218q-5 -20 -8 -40.5t-5 -40.5q-13 -4 -26.5 -4.5t-26.5 4.5q-5 31 -7 62.5t-2 69.5l8 8q19 -1 44 -1.5t52 -0.5h53h48h177q19 -24 25 -55l-312 -381h244q17 47 30 91q14 2 26.5 1t26.5 -5q0 -32 -2 -65.5t-7 -72.5l-8 -8q-20 1 -44.5 1.5 t-51 0.5h-53h-48.5h-217zM125 735q9 22 36 31l118 -123l111 123q11 -3 19.5 -10.5t13.5 -17.5l-110 -173q-31 -9 -66 -7l-122 177v0z" />
<glyph unicode="&#x192;" horiz-adv-x="399" d="M306 451q-21 0 -34 -7.5t-20.5 -23.5t-12 -39.5t-8.5 -54.5h84q8 -25 0 -49h-91v-2q-4 -30 -9.5 -69.5t-13 -82.5t-16.5 -86.5t-21 -79.5q-7 -23 -20.5 -42.5t-31 -36t-36.5 -28.5t-37 -19q-17 8 -20 29q35 28 55 73t32 99t19 113.5t16 117.5l2 14h-72q-4 12 -4.5 24.5 t4.5 24.5h79l6 38q6 43 23.5 71t40 44.5t46.5 23t44 6.5q29 0 54.5 -6t49.5 -16q-1 -61 -20 -107q-30 -7 -51 3q0 34 -6 64q-8 2 -15.5 3t-15.5 1z" />
<glyph unicode="&#x1fa;" horiz-adv-x="677" d="M441 221q-40 2 -81.5 3t-76.5 1h-73l-53 -159l88 -19q1 -26 -6 -48q-11 1 -26.5 1.5t-31 0.5h-30h-23.5q-25 0 -54 -1t-61 -1q-5 12 -6.5 24t-1.5 24q20 2 40 7t40 12l205 595q20 8 41.5 11t46.5 3l215 -609q20 -2 38.5 -7t35.5 -12q1 -26 -6 -48q-11 1 -27 1.5 t-33.5 0.5h-34.5h-29q-33 0 -64 -1t-63 -1q-5 12 -6.5 24t-1.5 24l94 19zM230 286h189l-81 230l-5 73h-1zM344 760q11 0 20.5 3.5t13.5 6.5q5 4 9 13t4 23q0 20 -14.5 35.5t-34.5 15.5q-11 0 -20.5 -3t-13.5 -6q-5 -4 -9 -13t-4 -23q0 -19 14.5 -35.5t34.5 -16.5zM338 709 q-46 0 -73 24.5t-27 73.5q0 18 9 36.5t24.5 32.5t35.5 23t41 9q46 0 73 -24t27 -74q0 -18 -9 -36t-24.5 -32.5t-35.5 -23.5t-41 -9zM421 1078q29 -17 51 -57l-3 -20l-213 -93q-8 7 -13 18t-8 22z" />
<glyph unicode="&#x1fb;" horiz-adv-x="611" d="M388 153q-33 2 -67.5 3t-63.5 1h-61l-38 -100l73 -13q0 -12 -1 -23t-4 -22q-10 1 -23.5 1.5t-27 0.5h-26.5h-22q-23 0 -47 -1t-49 -1q-7 21 -7 45q17 2 34 5.5t34 8.5l169 430q36 11 83 11l177 -441q17 -2 32.5 -5.5t29.5 -8.5q2 -25 -5 -45q-9 1 -22.5 1.5t-28.5 0.5 h-30h-27q-30 0 -58 -1t-55 -1q-7 21 -7 45l78 13zM217 210h148l-61 147l-4 64h-1zM305 604q11 0 20 3.5t13 6.5q5 4 9 12.5t4 22.5q0 20 -14 35t-34 15q-11 0 -20 -3t-13 -6q-5 -4 -9 -12.5t-4 -22.5q0 -19 14 -35t34 -16zM299 551q-47 0 -74 24.5t-27 74.5q0 18 9 36.5 t24.5 33t35.5 23.5t42 9q47 0 74 -24t27 -75q0 -18 -9 -36t-24.5 -33t-35.5 -24t-42 -9zM384 932q29 -17 51 -57l-3 -20l-213 -93q-8 7 -13 18t-8 22z" />
<glyph unicode="&#x1fc;" horiz-adv-x="885" d="M244 47q1 -26 -6 -48q-11 1 -26.5 1.5t-31 0.5h-30h-23.5q-25 0 -54 -1t-61 -1q-5 12 -6.5 24t-1.5 24q20 2 40 7t40 12l247 541l-86 16q0 12 1.5 24t6.5 24q32 0 63 -1t64 -1h193h58h62.5t61 0.5t52.5 1.5l8 -8q3 -84 -9 -168q-31 -9 -53 0q-2 28 -5.5 56t-10.5 54h-218 v-248l200 4l8 -8q-1 -17 -3 -33t-7 -30l-198 3v-228h230q11 30 19.5 60t16.5 62q25 5 53 -4q0 -45 -2.5 -88t-8.5 -88l-8 -8q-23 1 -52.5 1.5t-61 0.5h-62.5h-58h-106q-33 0 -64 -1t-63 -1q-5 12 -6.5 24t-1.5 24q22 2 43.5 7t43.5 12q3 14 4 29.5t1 31.5v167h-176 l-104 -228zM289 357h147v247h-34zM660 897q29 -17 51 -57l-3 -20l-213 -93q-8 7 -13 18t-8 22z" />
<glyph unicode="&#x1fd;" horiz-adv-x="779" d="M229 44q1 -23 -5 -45q-10 1 -23.5 1.5t-27 0.5h-26.5h-22q-23 0 -47 -1t-49 -1q-7 21 -7 45q17 2 34 5.5t34 8.5l193 379l-76 15q0 11 1.5 22t5.5 22q27 0 52.5 -1t53.5 -1h186h48h52.5t51 0.5t44.5 1.5l8 -8q1 -71 -9 -132q-31 -7 -54 0q-1 20 -4.5 40.5t-8.5 40.5h-171 v-170l161 3l8 -8q-1 -14 -3 -27.5t-6 -24.5l-160 2v-154h182q8 23 15.5 45.5t13.5 45.5q14 2 27 1t27 -5q0 -32 -2 -66t-7 -72l-8 -8q-19 1 -43.5 1.5t-51 0.5h-52.5h-48h-93q-31 0 -58.5 -1t-53.5 -1q-7 21 -7 45q34 3 72 14q4 19 4 45v110h-144l-80 -156zM264 267h116v168 h-30zM527 742q25 7 49.5 9.5t49.5 2.5l8 -23l-179 -184q-25 6 -38 28z" />
<glyph unicode="&#x1fe;" horiz-adv-x="690" d="M149 48q-52 47 -78 118t-26 157q0 65 21.5 130t61.5 117.5t97 85t129 32.5q77 0 136 -32l39 73q32 -4 52 -27l-43 -80q53 -46 80 -117.5t27 -157.5q0 -65 -21.5 -130.5t-61.5 -117.5t-97 -84.5t-129 -32.5q-40 0 -74 8.5t-63 23.5l-41 -74q-17 4 -30 10.5t-21 17.5z M364 54q12 0 27.5 2.5t31.5 7t29.5 11t20.5 13.5q14 13 28.5 34t26 48t19 60.5t7.5 73.5q0 69 -15.5 130t-50.5 105l-244 -450q24 -17 54 -26t66 -9zM136 366q0 -69 15.5 -129.5t48.5 -104.5l243 450q-23 16 -52.5 25t-64.5 9q-12 0 -27.5 -2.5t-31.5 -7t-29.5 -11 t-20.5 -13.5q-14 -14 -28.5 -34.5t-26 -47.5t-19 -60.5t-7.5 -73.5zM460 897q29 -17 51 -57l-3 -20l-213 -93q-8 7 -13 18t-8 22z" />
<glyph unicode="&#x1ff;" horiz-adv-x="614" d="M142 36q-44 35 -66 87.5t-22 115.5q0 48 18 96t51.5 87t82 63t108.5 24q61 0 111 -22l35 59q15 -2 26 -8t20 -17l-36 -61q45 -35 67.5 -88t22.5 -116q0 -48 -18 -96t-52 -87t-82.5 -63t-108.5 -24q-32 0 -60 5.5t-51 15.5l-37 -58q-30 6 -45 26zM322 52q10 0 23 2 t25.5 5.5t23 7.5t15.5 9q21 19 41.5 56.5t20.5 93.5q0 47 -12 89t-38 72l-190 -312q38 -23 91 -23zM143 270q0 -46 11.5 -87.5t36.5 -72.5l188 312q-18 10 -40 15.5t-48 5.5q-10 0 -23 -2t-25 -5.5t-22.5 -8t-15.5 -8.5q-22 -19 -42 -56.5t-20 -92.5zM358 742q25 7 49.5 9.5 t49.5 2.5l8 -23l-179 -184q-25 6 -38 28z" />
<glyph unicode="&#x218;" horiz-adv-x="544" d="M48 29q3 86 24 172q14 4 27 2.5t26 -6.5q2 -28 5 -58.5t9 -63.5q27 -9 59.5 -13.5t75.5 -4.5q18 0 34.5 3t29.5 7.5t21.5 8.5t10.5 6q34 33 34 102q0 19 -8.5 36t-22.5 31t-32 24.5t-37 17.5l-73 28q-28 10 -58 24.5t-55 35t-41 48.5t-16 66q0 52 21 88.5t54 59t73 32.5 t78 10q45 0 98 -9t95 -26q-1 -42 -6.5 -79.5t-15.5 -72.5q-31 -8 -52 4q-2 26 -5.5 50t-9.5 48q-25 7 -54 10t-61 3q-35 0 -62.5 -6t-32.5 -10q-13 -11 -21 -28t-8 -43q0 -22 9.5 -40t24.5 -32t33.5 -24.5t36.5 -16.5l86 -31q28 -10 56 -25t50 -36t35.5 -48.5t13.5 -62.5 q0 -47 -16 -88t-45.5 -71.5t-72 -48t-95.5 -17.5q-66 0 -124 12t-96 32zM211 -91q11 11 29 20.5t38 11.5q25 -20 35 -42t10 -45q0 -36 -21.5 -72.5t-69.5 -66.5q-18 8 -22 23q20 27 26 50t6 43q0 19 -8.5 38.5t-22.5 39.5z" />
<glyph unicode="&#x219;" horiz-adv-x="490" d="M53 23q2 37 6.5 69.5t13.5 64.5q26 7 54 -4q1 -20 3.5 -42t7.5 -46q21 -7 46.5 -10.5t58.5 -3.5q28 0 50 7t26 10q26 20 26 65q0 27 -25 45.5t-59 30.5l-61 22q-23 8 -46.5 19t-43.5 26.5t-32.5 36t-12.5 49.5q0 39 17.5 66.5t45.5 45t62 25t67 7.5q38 0 83.5 -7 t80.5 -20q-1 -35 -5 -63.5t-12 -54.5q-31 -8 -52 3q-2 18 -4.5 36t-7.5 35q-20 5 -42.5 7.5t-48.5 2.5t-47.5 -4.5t-25.5 -6.5q-10 -7 -16 -19t-6 -29q0 -15 8 -27t20 -21t27 -16t30 -12l69 -25q23 -8 45.5 -19.5t40.5 -26.5t29 -35.5t11 -46.5q0 -35 -13 -65.5t-38 -53.5 t-61 -36t-82 -13q-56 0 -105.5 9t-81.5 25zM182 -91q11 11 29 20.5t38 11.5q25 -20 35 -42t10 -45q0 -36 -21.5 -72.5t-69.5 -66.5q-18 8 -22 23q20 27 26 50t6 43q0 19 -8.5 38.5t-22.5 39.5z" />
<glyph unicode="&#x21a;" horiz-adv-x="606" d="M347 605v-456q0 -22 1 -42.5t3 -40.5q28 -2 53 -7t48 -12q2 -27 -7 -48q-12 1 -30.5 1.5t-39 0.5h-40h-33.5q-38 0 -73 -1t-73 -1q-5 12 -7 24t-2 24q27 2 53.5 7t53.5 12q3 14 4 29.5t1 31.5v478h-165q-7 -30 -10.5 -61t-5.5 -61q-14 -5 -26.5 -5t-26.5 5q-12 87 -9 180 l8 8q23 -1 53 -1.5t61.5 -0.5h63h57.5h88h57.5h63t61.5 0.5t53 1.5l8 -8q3 -90 -9 -180q-31 -9 -53 0q-2 31 -5.5 62t-10.5 60h-165zM251 -91q11 11 29 20.5t38 11.5q25 -20 35 -42t10 -45q0 -36 -21.5 -72.5t-69.5 -66.5q-18 8 -22 23q20 27 26 50t6 43q0 19 -8.5 38.5 t-22.5 39.5z" />
<glyph unicode="&#x21b;" horiz-adv-x="551" d="M318 437v-318q0 -33 3 -61q24 -2 45.5 -5.5t40.5 -8.5q2 -25 -5 -45q-12 1 -28 1.5t-33.5 0.5h-35h-31.5q-35 0 -66 -1t-63 -1q-5 11 -6 22.5t-1 22.5q23 2 45.5 5.5t45.5 8.5q4 19 4 45v334h-129q-5 -23 -8 -47t-5 -47q-26 -7 -54 0q-5 33 -6.5 67.5t-1.5 77.5l8 8 q19 -1 44 -1.5t51.5 -0.5h53h48.5h82h48.5h53t51.5 0.5t44 1.5l8 -8q0 -42 -1.5 -76.5t-7.5 -68.5q-30 -7 -53 0q-2 23 -5 47t-8 47h-128zM220 -91q11 11 29 20.5t38 11.5q25 -20 35 -42t10 -45q0 -36 -21.5 -72.5t-69.5 -66.5q-18 8 -22 23q20 27 26 50t6 43 q0 19 -8.5 38.5t-22.5 39.5z" />
<glyph unicode="&#x237;" horiz-adv-x="301" d="M194 25q0 -90 -54 -133.5t-145 -50.5q-16 16 -15 44q64 21 96.5 55.5t32.5 96.5v299q0 32 -1 56.5t-3 44.5q-38 11 -72 14q0 24 7 45q26 0 53.5 -1t58.5 -1h26.5h29.5t28.5 0.5t23.5 1.5q3 -11 4 -22t1 -23q-15 -5 -32 -8.5t-36 -5.5q-2 -20 -2.5 -44.5t-0.5 -56.5v-311z " />
<glyph unicode="&#x2c6;" horiz-adv-x="415" d="M207 642l-111 -123q-11 3 -19.5 10.5t-13.5 17.5l110 173q31 9 66 7l122 -177q-9 -22 -36 -31z" />
<glyph unicode="&#x2c7;" horiz-adv-x="415" d="M60 710q9 22 36 31l118 -123l111 123q11 -3 19.5 -10.5t13.5 -17.5l-110 -173q-31 -9 -66 -7l-122 177v0z" />
<glyph unicode="&#x2c9;" horiz-adv-x="415" d="M344 617q12 -34 0 -67h-275q-5 17 -5 33.5t5 33.5h275z" />
<glyph unicode="&#x2d8;" horiz-adv-x="415" d="M200 544q-32 0 -57.5 12t-44.5 30t-31.5 38t-17.5 37q7 20 33 28q21 -27 54 -49t73 -22q43 0 73 22.5t50 48.5q27 -7 31 -28q-5 -16 -19.5 -36t-35.5 -38t-48.5 -30.5t-59.5 -12.5z" />
<glyph unicode="&#x2d9;" horiz-adv-x="415" d="M203 561q-10 0 -20.5 4t-19.5 11.5t-14.5 17.5t-5.5 21q0 13 5.5 27t15 25.5t22 18.5t26.5 7q23 0 41.5 -16t18.5 -39q0 -14 -5.5 -27.5t-14.5 -24.5t-21.5 -18t-27.5 -7z" />
<glyph unicode="&#x2da;" horiz-adv-x="415" d="M208 589q11 0 20 3.5t13 6.5q5 4 9 12.5t4 22.5q0 20 -14 35t-34 15q-11 0 -20 -3t-13 -6q-5 -4 -9 -12.5t-4 -22.5q0 -19 14 -35t34 -16zM202 536q-47 0 -74 24.5t-27 74.5q0 18 9 36.5t24.5 33t35.5 23.5t42 9q47 0 74 -24t27 -75q0 -18 -9 -36t-24.5 -33t-35.5 -24 t-42 -9z" />
<glyph unicode="&#x2db;" horiz-adv-x="415" d="M313 2q-62 -27 -94 -59.5t-32 -55.5q0 -18 11.5 -28t28.5 -10q14 0 27 2.5t31 7.5q13 -18 13 -41q-29 -17 -55.5 -25t-53.5 -8q-36 0 -60 20.5t-24 49.5t16 54t42.5 45.5t60 36.5t68.5 26z" />
<glyph unicode="&#x2dc;" horiz-adv-x="415" d="M53 552q-26 7 -34 28q24 45 60 74t67 29q21 0 38.5 -10.5t34 -23t33 -23t36.5 -10.5q12 0 32.5 15t40.5 41q23 -6 35 -26q-12 -23 -28 -42t-33 -33t-35 -22t-34 -8q-20 0 -38 10.5t-34.5 23t-33 23t-34.5 10.5q-12 0 -32.5 -15t-40.5 -41z" />
<glyph unicode="&#x2dd;" horiz-adv-x="415" d="M388 723l-103 -185q-26 3 -42 17l54 165q20 11 40 16t46 5zM245 723l-103 -185q-27 3 -41 17l54 165q20 11 39.5 16t45.5 5z" />
<glyph unicode="&#x300;" d="M-140 696l5 19q20 11 40.5 15.5t42.5 5.5l117 -184q-12 -21 -40 -26z" />
<glyph unicode="&#x301;" d="M51 717q25 7 49.5 9.5t49.5 2.5l8 -23l-179 -184q-25 6 -38 28z" />
<glyph unicode="&#x302;" d="M0 642l-111 -123q-11 3 -19.5 10.5t-13.5 17.5l110 173q31 9 66 7l122 -177q-9 -22 -36 -31z" />
<glyph unicode="&#x303;" d="M-154 552q-26 7 -34 28q24 45 60 74t67 29q21 0 38.5 -10.5t34 -23t33 -23t36.5 -10.5q12 0 32.5 15t40.5 41q23 -6 35 -26q-12 -23 -28 -42t-33 -33t-35 -22t-34 -8q-20 0 -38 10.5t-34.5 23t-33 23t-34.5 10.5q-12 0 -32.5 -15t-40.5 -41z" />
<glyph unicode="&#x304;" d="M137 617q12 -34 0 -67h-275q-5 17 -5 33.5t5 33.5h275z" />
<glyph unicode="&#x306;" d="M-7 544q-32 0 -57.5 12t-44.5 30t-31.5 38t-17.5 37q7 20 33 28q21 -27 54 -49t73 -22q43 0 73 22.5t50 48.5q27 -7 31 -28q-5 -16 -19.5 -36t-35.5 -38t-48.5 -30.5t-59.5 -12.5z" />
<glyph unicode="&#x307;" d="M-4 561q-10 0 -20.5 4t-19.5 11.5t-14.5 17.5t-5.5 21q0 13 5.5 27t15 25.5t22 18.5t26.5 7q23 0 41.5 -16t18.5 -39q0 -14 -5.5 -27.5t-14.5 -24.5t-21.5 -18t-27.5 -7z" />
<glyph unicode="&#x308;" d="M-95 554q-19 0 -34.5 13t-15.5 32q0 12 4.5 23.5t12 21.5t18.5 16t24 6q18 0 34 -13.5t16 -33.5q0 -24 -17 -44t-42 -21zM86 554q-17 0 -33.5 13t-16.5 32q0 12 4.5 23.5t12.5 21.5t19 16t23 6q20 0 35 -13.5t15 -33.5q0 -24 -16.5 -44t-42.5 -21z" />
<glyph unicode="&#x30a;" d="M1 589q11 0 20 3.5t13 6.5q5 4 9 12.5t4 22.5q0 20 -14 35t-34 15q-11 0 -20 -3t-13 -6q-5 -4 -9 -12.5t-4 -22.5q0 -19 14 -35t34 -16zM-5 536q-47 0 -74 24.5t-27 74.5q0 18 9 36.5t24.5 33t35.5 23.5t42 9q47 0 74 -24t27 -75q0 -18 -9 -36t-24.5 -33t-35.5 -24 t-42 -9z" />
<glyph unicode="&#x30b;" d="M181 723l-103 -185q-26 3 -42 17l54 165q20 11 40 16t46 5zM38 723l-103 -185q-27 3 -41 17l54 165q20 11 39.5 16t45.5 5z" />
<glyph unicode="&#x30c;" d="M-147 710q9 22 36 31l118 -123l111 123q11 -3 19.5 -10.5t13.5 -17.5l-110 -173q-31 -9 -66 -7l-122 177v0z" />
<glyph unicode="&#x312;" d="M50 569q-11 -11 -28.5 -20t-36.5 -11q-23 19 -32.5 40t-9.5 43q0 35 20.5 69.5t65.5 63.5q19 -6 22 -22q-20 -26 -26 -48t-6 -41q0 -18 8.5 -36.5t22.5 -37.5z" />
<glyph unicode="&#x315;" d="M-17 766q23 3 42.5 -0.5t36.5 -16.5l-47 -210q-11 -2 -21.5 -1t-21.5 6l3 214z" />
<glyph unicode="&#x323;" d="M-4 -210q-20 0 -38 14.5t-18 37.5q0 12 5 24.5t14 23t20.5 17.5t25.5 7q21 0 38.5 -14.5t17.5 -36.5q0 -13 -5 -26t-13.5 -23.5t-20.5 -17t-26 -6.5z" />
<glyph unicode="&#x326;" d="M-52 -91q11 11 29 20.5t38 11.5q25 -20 35 -42t10 -45q0 -36 -21.5 -72.5t-69.5 -66.5q-18 8 -22 23q20 27 26 50t6 43q0 19 -8.5 38.5t-22.5 39.5z" />
<glyph unicode="&#x327;" d="M2 -43q50 -2 74.5 -23t24.5 -54q0 -23 -13.5 -44.5t-37 -40t-54 -32t-64.5 -19.5q-11 10 -11 29q13 6 30 15t32 21t25.5 26t10.5 31q0 19 -18 32.5t-56 11.5l-8 8l51 102h42z" />
<glyph unicode="&#x328;" d="M63 2q-62 -27 -94 -59.5t-32 -55.5q0 -18 11.5 -28t28.5 -10q14 0 27 2.5t31 7.5q13 -18 13 -41q-29 -17 -55.5 -25t-53.5 -8q-36 0 -60 20.5t-24 49.5t16 54t42.5 45.5t60 36.5t68.5 26z" />
<glyph unicode="&#x335;" d="M-154 231q-3 14 -3.5 28t3.5 28h309q6 -28 0 -56h-309z" />
<glyph unicode="&#x336;" d="M-354 231q-3 14 -3.5 28t3.5 28h510q6 -28 0 -56h-510z" />
<glyph unicode="&#x337;" d="M114 378q24 -24 32 -54l-134 -81l-127 -83q-22 20 -32 55l129 75z" />
<glyph unicode="&#x394;" horiz-adv-x="610" d="M41 0q-11 28 -10 66l225 595q20 8 41.5 11t46.5 3l235 -609q1 -41 -10 -66h-528zM111 84h362l-169 432l-5 73h-1z" />
<glyph unicode="&#x3a9;" horiz-adv-x="754" d="M463 1q-21 18 -30 44q69 73 105.5 153t36.5 170q0 54 -16.5 99.5t-45 78.5t-66 51.5t-79.5 18.5q-15 0 -32 -2.5t-32 -7t-26.5 -9.5t-15.5 -9q-38 -38 -60.5 -94.5t-22.5 -125.5q0 -90 40 -167.5t109 -150.5q-10 -34 -37 -49h-28h-56.5h-61t-59.5 -0.5t-52 -1.5l-8 8 q-6 45 -8.5 88t-2.5 88q14 5 26.5 6t26.5 -2q8 -32 16.5 -62t19.5 -60h127q-32 35 -58 68.5t-44.5 68.5t-29 72.5t-10.5 80.5q0 54 21 113t60 107.5t94.5 80.5t124.5 32q72 0 124 -25t86 -66.5t50 -95.5t16 -111q0 -99 -40.5 -179.5t-100.5 -145.5h126q11 30 19.5 60 t16.5 62q14 3 26.5 2t26.5 -6q0 -45 -2.5 -88t-8.5 -88l-8 -8q-47 2 -108 2h-114h-35v0z" />
<glyph unicode="&#x3bc;" horiz-adv-x="586" d="M412 147q-24 -81 -63.5 -119.5t-87.5 -38.5t-76.5 33.5t-43.5 93.5h-2l25 -362q-23 -9 -49 -9t-48 9q3 64 4 119.5t2 103.5t1 90.5v81.5t-0.5 81.5t-2 84.5t-3.5 80.5t-5 70.5q21 9 46 9t46 -9v-211q0 -40 7 -73t19 -57t29 -37t37 -13q27 0 50.5 18t40 47.5t26 68.5 t9.5 81v176q22 9 47 9q24 0 47 -9q-7 -54 -10 -98t-3 -81q0 -66 6.5 -113.5t18.5 -89.5q20 2 43 6.5t38 9.5q26 -23 21 -58q-21 -24 -49.5 -40t-54.5 -16q-14 0 -26 12.5t-20.5 34t-13 51t-3.5 63.5h-2z" />
<glyph unicode="&#x3c0;" horiz-adv-x="620" d="M101 39q38 46 55 107.5t17 148.5v90q-39 -2 -73 -7.5t-60 -17.5q-10 8 -17 19t-8 25q66 66 189 66h195h85.5t85.5 2q22 -33 20 -78l-8 -8h-120v-302q22 2 46 6.5t40 9.5q26 -23 21 -58q-24 -24 -53 -40t-55 -16q-32 0 -49 31.5t-17 81.5v287h-155v-221q0 -21 -3 -44.5 t-9 -46t-15 -43.5t-21 -37q-28 0 -53.5 10t-37.5 35z" />
<glyph unicode="&#x1e0c;" horiz-adv-x="663" d="M167 1q-33 0 -64 -1t-63 -1q-5 12 -6.5 24t-1.5 24q22 2 43.5 7t43.5 12q3 14 4 29.5t1 31.5v339q0 45 -1.5 77.5t-3.5 60.5q-22 7 -43.5 12t-43.5 7q0 12 1.5 24t6.5 24q32 0 63 -1t64 -1q54 0 96.5 2t78.5 2q67 0 118.5 -24.5t86.5 -68.5t53 -104.5t18 -131.5 q0 -65 -20 -127.5t-58.5 -111t-94 -78.5t-127.5 -30q-31 0 -68 2t-83 2zM313 608q-26 0 -52 -1t-49 -2v-541h90q19 0 40 2.5t40.5 6t34.5 8.5t22 11q16 13 32 31.5t28.5 44t20 59t7.5 75.5q0 56 -12 111t-38 98.5t-66.5 70t-97.5 26.5zM327 -210q-20 0 -38 14.5t-18 37.5 q0 12 5 24.5t14 23t20.5 17.5t25.5 7q21 0 38.5 -14.5t17.5 -36.5q0 -13 -5 -26t-13.5 -23.5t-20.5 -17t-26 -6.5z" />
<glyph unicode="&#x1e0d;" horiz-adv-x="598" d="M162 1q-31 0 -58 -1t-54 -1q-7 21 -7 45q34 3 72 14q3 11 4 22t1 22v234q0 33 -1.5 57t-3.5 44q-38 11 -72 14q0 24 7 45q27 0 54 -1t58 -1q43 0 81 2t71 2q55 0 98 -18.5t72.5 -51t44.5 -77t15 -97.5q0 -48 -17.5 -94t-50 -82.5t-79.5 -58.5t-107 -22q-27 0 -58.5 2 t-69.5 2zM285 439q-20 0 -40.5 -0.5t-39.5 -1.5v-380h74q15 0 31.5 1.5t31.5 4.5t27 6.5t18 7.5q26 18 47 52.5t21 94.5q0 40 -10 78.5t-31 69t-53 49t-76 18.5zM277 -185q-20 0 -38 14.5t-18 37.5q0 12 5 24.5t14 23t20.5 17.5t25.5 7q21 0 38.5 -14.5t17.5 -36.5 q0 -13 -5 -26t-13.5 -23.5t-20.5 -17t-26 -6.5z" />
<glyph unicode="&#x1e24;" horiz-adv-x="754" d="M539 604q-22 7 -43.5 12t-43.5 7q0 12 1.5 24t6.5 24q32 0 63 -1t64 -1h29h34.5t33.5 0.5t27 1.5q7 -23 6 -48q-18 -7 -38 -12t-43 -7q-3 -33 -3.5 -74t-0.5 -99v-282q0 -22 1 -42.5t3 -40.5q23 -2 43 -7t38 -12q1 -26 -6 -48q-11 1 -27 1.5t-33.5 0.5h-34.5h-29 q-33 0 -64 -1t-63 -1q-5 12 -6.5 24t-1.5 24q22 2 43.5 7t43.5 12q4 23 4.5 47.5t0.5 47.5v154q-53 2 -104 3.5t-102 1.5h-126v-171q0 -22 1 -42.5t3 -40.5q23 -2 43 -7t38 -12q1 -26 -6 -48q-11 1 -27 1.5t-33.5 0.5h-34.5h-29q-33 0 -64 -1t-63 -1q-5 12 -6.5 24t-1.5 24 q22 2 43.5 7t43.5 12q4 23 4.5 47.5t0.5 47.5v305q0 45 -1.5 77.5t-3.5 60.5q-22 7 -43.5 12t-43.5 7q0 12 1.5 24t6.5 24q32 0 63 -1t64 -1h29h34.5t33.5 0.5t27 1.5q7 -23 6 -48q-18 -7 -38 -12t-43 -7q-3 -33 -3.5 -74t-0.5 -99v-49h332v84q0 45 -1.5 77.5t-3.5 60.5z M371 -210q-20 0 -38 14.5t-18 37.5q0 12 5 24.5t14 23t20.5 17.5t25.5 7q21 0 38.5 -14.5t17.5 -36.5q0 -13 -5 -26t-13.5 -23.5t-20.5 -17t-26 -6.5z" />
<glyph unicode="&#x1e25;" horiz-adv-x="671" d="M462 437q-38 11 -72 14q0 24 7 45q27 0 54 -1t58 -1h27h30t28.5 0.5t23.5 1.5q3 -11 4 -22t1 -23q-15 -5 -32 -8.5t-35 -5.5q-2 -20 -3 -44t-1 -57v-218q0 -16 1 -31t3 -29q18 -2 35 -5.5t32 -8.5q0 -12 -1 -23t-4 -22q-10 1 -23.5 1.5t-28.5 0.5h-30h-27q-31 0 -58 -1 t-54 -1q-7 21 -7 45q34 3 72 14q3 11 4 22t1 22v124q-43 2 -85 3t-82 1h-95v-112q0 -16 1 -31t3 -29q18 -2 35 -5.5t32 -8.5q0 -12 -1 -23t-4 -22q-10 1 -23.5 1.5t-28.5 0.5h-30h-27q-31 0 -58 -1t-54 -1q-7 21 -7 45q34 3 72 14q3 11 4 22t1 22v234q0 33 -1.5 57t-3.5 44 q-38 11 -72 14q0 24 7 45q27 0 54 -1t58 -1h27h30t28.5 0.5t23.5 1.5q3 -11 4 -22t1 -23q-15 -5 -32 -8.5t-35 -5.5q-2 -20 -3 -44t-1 -57v-50h262v50q0 33 -1.5 57t-3.5 44zM329 -185q-20 0 -38 14.5t-18 37.5q0 12 5 24.5t14 23t20.5 17.5t25.5 7q21 0 38.5 -14.5 t17.5 -36.5q0 -13 -5 -26t-13.5 -23.5t-20.5 -17t-26 -6.5z" />
<glyph unicode="&#x1e36;" horiz-adv-x="551" d="M212 65h235q11 33 19.5 66t16.5 68q25 5 53 -4q0 -48 -2.5 -94t-8.5 -94l-8 -8q-23 1 -53 1.5t-61.5 0.5h-63h-57.5h-115q-33 0 -64 -1t-63 -1q-5 12 -6.5 24t-1.5 24q22 2 43.5 7t43.5 12q3 14 4 29.5t1 31.5v339q0 45 -1.5 77.5t-3.5 60.5q-22 7 -43.5 12t-43.5 7 q0 12 1.5 24t6.5 24q35 0 68.5 -1t69.5 -1h31h37t36 0.5t28 1.5q9 -21 7 -48q-23 -7 -48 -12t-53 -7q-2 -28 -3 -60.5t-1 -77.5v-401zM285 -210q-20 0 -38 14.5t-18 37.5q0 12 5 24.5t14 23t20.5 17.5t25.5 7q21 0 38.5 -14.5t17.5 -36.5q0 -13 -5 -26t-13.5 -23.5 t-20.5 -17t-26 -6.5z" />
<glyph unicode="&#x1e37;" horiz-adv-x="502" d="M205 58h186q10 26 17 51.5t13 52.5q14 2 26.5 1t26.5 -5q0 -36 -1.5 -72.5t-6.5 -78.5l-8 -8q-20 1 -45 1.5t-51.5 0.5h-52.5h-48h-99q-31 0 -58 -1t-54 -1q-7 21 -7 45q34 3 72 14q3 11 4 22t1 22v234q0 33 -1.5 57t-3.5 44q-38 11 -72 14q0 24 7 45q29 0 57.5 -1 t60.5 -1h30h33.5t31.5 0.5t26 1.5q7 -21 6 -45q-40 -11 -86 -14q-2 -20 -3 -44.5t-1 -56.5v-278zM261 -210q-20 0 -38 14.5t-18 37.5q0 12 5 24.5t14 23t20.5 17.5t25.5 7q21 0 38.5 -14.5t17.5 -36.5q0 -13 -5 -26t-13.5 -23.5t-20.5 -17t-26 -6.5z" />
<glyph unicode="&#x1e38;" horiz-adv-x="551" d="M212 65h235q11 33 19.5 66t16.5 68q25 5 53 -4q0 -48 -2.5 -94t-8.5 -94l-8 -8q-23 1 -53 1.5t-61.5 0.5h-63h-57.5h-115q-33 0 -64 -1t-63 -1q-5 12 -6.5 24t-1.5 24q22 2 43.5 7t43.5 12q3 14 4 29.5t1 31.5v339q0 45 -1.5 77.5t-3.5 60.5q-22 7 -43.5 12t-43.5 7 q0 12 1.5 24t6.5 24q35 0 68.5 -1t69.5 -1h31h37t36 0.5t28 1.5q9 -21 7 -48q-23 -7 -48 -12t-53 -7q-2 -28 -3 -60.5t-1 -77.5v-401zM317 809q12 -33 0 -65h-283q-5 16 -5 32.5t5 32.5h283zM285 -210q-20 0 -38 14.5t-18 37.5q0 12 5 24.5t14 23t20.5 17.5t25.5 7 q21 0 38.5 -14.5t17.5 -36.5q0 -13 -5 -26t-13.5 -23.5t-20.5 -17t-26 -6.5z" />
<glyph unicode="&#x1e39;" horiz-adv-x="502" d="M205 58h186q10 26 17 51.5t13 52.5q14 2 26.5 1t26.5 -5q0 -36 -1.5 -72.5t-6.5 -78.5l-8 -8q-20 1 -45 1.5t-51.5 0.5h-52.5h-48h-99q-31 0 -58 -1t-54 -1q-7 21 -7 45q34 3 72 14q3 11 4 22t1 22v234q0 33 -1.5 57t-3.5 44q-38 11 -72 14q0 24 7 45q29 0 57.5 -1 t60.5 -1h30h33.5t31.5 0.5t26 1.5q7 -21 6 -45q-40 -11 -86 -14q-2 -20 -3 -44.5t-1 -56.5v-278zM300 642q12 -34 0 -67h-275q-5 17 -5 33.5t5 33.5h275zM261 -210q-20 0 -38 14.5t-18 37.5q0 12 5 24.5t14 23t20.5 17.5t25.5 7q21 0 38.5 -14.5t17.5 -36.5q0 -13 -5 -26 t-13.5 -23.5t-20.5 -17t-26 -6.5z" />
<glyph unicode="&#x1e40;" horiz-adv-x="919" d="M680 515l-3 90h-1l-182 -596q-23 -7 -45.5 -10t-45.5 -4l-165 520l-12 90h-1l-47 -539l84 -19q1 -26 -6 -48q-11 1 -26.5 1.5t-31 0.5h-30.5h-24q-26 0 -54.5 -1t-59.5 -1q-5 12 -6.5 24t-1.5 24q22 2 44 7t46 13l48 537q-26 7 -48 12t-44 7q0 12 1.5 24t6.5 24 q32 0 61.5 -1t56.5 -1q23 0 48.5 -1t49.5 -3l153 -483l2 -97h1l177 581q24 2 47.5 2.5t44.5 0.5h29.5h35t34 0.5t27.5 1.5q7 -23 6 -48q-34 -13 -84 -19l47 -538q24 -2 45.5 -7t39.5 -12q1 -26 -6 -48q-11 1 -27.5 1.5t-34.5 0.5h-35.5h-29.5q-33 0 -64.5 -1t-63.5 -1 q-5 12 -6.5 24t-1.5 24l91 19zM450 740q-19 0 -36.5 14t-17.5 35q0 12 5 24.5t13.5 23t20 17t24.5 6.5q20 0 37 -14t17 -36q0 -12 -5 -24.5t-13 -22.5t-20 -16.5t-25 -6.5z" />
<glyph unicode="&#x1e41;" horiz-adv-x="806" d="M580 363l-1 73h-1l-144 -428q-37 -10 -82 -12l-129 367l-10 73h-1l-40 -378l69 -14q2 -25 -5 -45q-10 1 -23 1.5t-27 0.5h-27h-22q-23 0 -46.5 -1t-49.5 -1q-4 11 -5 22.5t-1 22.5q18 2 36 5.5t38 8.5l40 379q-20 5 -38.5 8.5t-36.5 5.5q0 11 1 22.5t5 22.5q26 0 51.5 -1 t51.5 -1h46t44 -2l118 -323l3 -73h1l134 396q21 2 43.5 2h43.5h26.5h29.5t29 0.5t24 1.5q6 -22 5 -45q-15 -5 -32 -8.5t-37 -5.5l39 -379q20 -2 37.5 -5.5t32.5 -8.5q1 -12 -0.5 -23t-4.5 -22q-10 1 -24 1.5t-29 0.5h-30h-27q-30 0 -57.5 -1t-53.5 -1q-7 21 -7 45l74 14z M391 -185q-20 0 -38 14.5t-18 37.5q0 12 5 24.5t14 23t20.5 17.5t25.5 7q21 0 38.5 -14.5t17.5 -36.5q0 -13 -5 -26t-13.5 -23.5t-20.5 -17t-26 -6.5z" />
<glyph unicode="&#x1e42;" horiz-adv-x="919" d="M680 515l-3 90h-1l-182 -596q-23 -7 -45.5 -10t-45.5 -4l-165 520l-12 90h-1l-47 -539l84 -19q1 -26 -6 -48q-11 1 -26.5 1.5t-31 0.5h-30.5h-24q-26 0 -54.5 -1t-59.5 -1q-5 12 -6.5 24t-1.5 24q22 2 44 7t46 13l48 537q-26 7 -48 12t-44 7q0 12 1.5 24t6.5 24 q32 0 61.5 -1t56.5 -1q23 0 48.5 -1t49.5 -3l153 -483l2 -97h1l177 581q24 2 47.5 2.5t44.5 0.5h29.5h35t34 0.5t27.5 1.5q7 -23 6 -48q-34 -13 -84 -19l47 -538q24 -2 45.5 -7t39.5 -12q1 -26 -6 -48q-11 1 -27.5 1.5t-34.5 0.5h-35.5h-29.5q-33 0 -64.5 -1t-63.5 -1 q-5 12 -6.5 24t-1.5 24l91 19zM449 -210q-20 0 -38 14.5t-18 37.5q0 12 5 24.5t14 23t20.5 17.5t25.5 7q21 0 38.5 -14.5t17.5 -36.5q0 -13 -5 -26t-13.5 -23.5t-20.5 -17t-26 -6.5z" />
<glyph unicode="&#x1e43;" horiz-adv-x="806" d="M580 363l-1 73h-1l-144 -428q-37 -10 -82 -12l-129 367l-10 73h-1l-40 -378l69 -14q2 -25 -5 -45q-10 1 -23 1.5t-27 0.5h-27h-22q-23 0 -46.5 -1t-49.5 -1q-4 11 -5 22.5t-1 22.5q18 2 36 5.5t38 8.5l40 379q-20 5 -38.5 8.5t-36.5 5.5q0 11 1 22.5t5 22.5q26 0 51.5 -1 t51.5 -1h46t44 -2l118 -323l3 -73h1l134 396q21 2 43.5 2h43.5h26.5h29.5t29 0.5t24 1.5q6 -22 5 -45q-15 -5 -32 -8.5t-37 -5.5l39 -379q20 -2 37.5 -5.5t32.5 -8.5q1 -12 -0.5 -23t-4.5 -22q-10 1 -24 1.5t-29 0.5h-30h-27q-30 0 -57.5 -1t-53.5 -1q-7 21 -7 45l74 14z M391 586q-10 0 -20.5 4t-19.5 11.5t-14.5 17.5t-5.5 21q0 13 5.5 27t15 25.5t22 18.5t26.5 7q23 0 41.5 -16t18.5 -39q0 -14 -5.5 -27.5t-14.5 -24.5t-21.5 -18t-27.5 -7z" />
<glyph unicode="&#x1e44;" horiz-adv-x="741" d="M634 9q-45 -12 -94 -14l-315 520l-29 90h-1v-456q0 -22 1 -42.5t3 -40.5q23 -2 43 -7t38 -12q1 -26 -6 -48q-11 1 -26.5 1.5t-32 0.5h-31.5h-25q-27 0 -57 -1t-62 -1q-5 12 -6.5 24t-1.5 24q22 2 43.5 7t43.5 12q3 14 4 29.5t1 31.5v339q0 45 -1.5 77.5t-3.5 60.5 q-22 7 -43.5 12t-43.5 7q0 12 1.5 24t6.5 24q32 0 62 -1t57 -1q22 0 45 -1t41 -3l290 -481l27 -90h1v372q0 45 -1.5 77.5t-3.5 60.5q-22 7 -43.5 12t-43.5 7q0 12 1.5 24t6.5 24q32 0 62 -1t57 -1h25h31.5t32 0.5t26.5 1.5q7 -23 6 -48q-18 -7 -38 -12t-43 -7 q-2 -28 -3 -60.5t-1 -77.5v-457v0zM371 740q-19 0 -36.5 14t-17.5 35q0 12 5 24.5t13.5 23t20 17t24.5 6.5q20 0 37 -14t17 -36q0 -12 -5 -24.5t-13 -22.5t-20 -16.5t-25 -6.5z" />
<glyph unicode="&#x1e45;" horiz-adv-x="656" d="M549 8q-20 -5 -44.5 -8t-47.5 -4l-247 356l-22 73h-2v-306q0 -33 3 -61q19 -2 36 -5.5t32 -8.5q0 -12 -1 -23t-4 -22q-10 1 -23.5 1.5t-27.5 0.5h-27h-22q-24 0 -50 -1t-52 -1q-7 21 -7 45q34 3 72 14q3 11 4 22t1 22v234q0 33 -1.5 57t-3.5 44q-38 11 -72 14q0 24 7 45 q27 0 53 -1t51 -1q20 0 40 -0.5t37 -2.5l229 -334l22 -73h1v252q0 32 -1 56.5t-3 44.5q-38 11 -72 14q0 24 7 45q26 0 52.5 -1t50.5 -1h22h26.5t26.5 0.5t23 1.5q3 -11 4 -22t1 -23q-15 -5 -32 -8.5t-36 -5.5q-2 -20 -2.5 -44.5t-0.5 -56.5v-328v0zM327 586q-10 0 -20.5 4 t-19.5 11.5t-14.5 17.5t-5.5 21q0 13 5.5 27t15 25.5t22 18.5t26.5 7q23 0 41.5 -16t18.5 -39q0 -14 -5.5 -27.5t-14.5 -24.5t-21.5 -18t-27.5 -7z" />
<glyph unicode="&#x1e46;" horiz-adv-x="741" d="M634 9q-45 -12 -94 -14l-315 520l-29 90h-1v-456q0 -22 1 -42.5t3 -40.5q23 -2 43 -7t38 -12q1 -26 -6 -48q-11 1 -26.5 1.5t-32 0.5h-31.5h-25q-27 0 -57 -1t-62 -1q-5 12 -6.5 24t-1.5 24q22 2 43.5 7t43.5 12q3 14 4 29.5t1 31.5v339q0 45 -1.5 77.5t-3.5 60.5 q-22 7 -43.5 12t-43.5 7q0 12 1.5 24t6.5 24q32 0 62 -1t57 -1q22 0 45 -1t41 -3l290 -481l27 -90h1v372q0 45 -1.5 77.5t-3.5 60.5q-22 7 -43.5 12t-43.5 7q0 12 1.5 24t6.5 24q32 0 62 -1t57 -1h25h31.5t32 0.5t26.5 1.5q7 -23 6 -48q-18 -7 -38 -12t-43 -7 q-2 -28 -3 -60.5t-1 -77.5v-457v0zM377 -210q-20 0 -38 14.5t-18 37.5q0 12 5 24.5t14 23t20.5 17.5t25.5 7q21 0 38.5 -14.5t17.5 -36.5q0 -13 -5 -26t-13.5 -23.5t-20.5 -17t-26 -6.5z" />
<glyph unicode="&#x1e47;" horiz-adv-x="656" d="M549 8q-20 -5 -44.5 -8t-47.5 -4l-247 356l-22 73h-2v-306q0 -33 3 -61q19 -2 36 -5.5t32 -8.5q0 -12 -1 -23t-4 -22q-10 1 -23.5 1.5t-27.5 0.5h-27h-22q-24 0 -50 -1t-52 -1q-7 21 -7 45q34 3 72 14q3 11 4 22t1 22v234q0 33 -1.5 57t-3.5 44q-38 11 -72 14q0 24 7 45 q27 0 53 -1t51 -1q20 0 40 -0.5t37 -2.5l229 -334l22 -73h1v252q0 32 -1 56.5t-3 44.5q-38 11 -72 14q0 24 7 45q26 0 52.5 -1t50.5 -1h22h26.5t26.5 0.5t23 1.5q3 -11 4 -22t1 -23q-15 -5 -32 -8.5t-36 -5.5q-2 -20 -2.5 -44.5t-0.5 -56.5v-328v0zM321 -210q-20 0 -38 14.5 t-18 37.5q0 12 5 24.5t14 23t20.5 17.5t25.5 7q21 0 38.5 -14.5t17.5 -36.5q0 -13 -5 -26t-13.5 -23.5t-20.5 -17t-26 -6.5z" />
<glyph unicode="&#x1e5a;" horiz-adv-x="617" d="M310 282q-21 0 -47 1.5t-51 5.5v-140q0 -22 1 -42.5t3 -40.5q23 -2 43 -7t38 -12q1 -26 -6 -48q-11 1 -27 1.5t-33.5 0.5h-34.5h-29q-33 0 -64 -1t-63 -1q-5 12 -6.5 24t-1.5 24q22 2 43.5 7t43.5 12q4 24 4.5 51t0.5 52v297q0 45 -1.5 77.5t-3.5 60.5q-22 7 -43.5 12 t-43.5 7q0 12 1.5 24t6.5 24q32 0 63 -1t64 -1q54 0 102.5 2t84.5 2q52 0 87 -15t56 -38.5t30 -53t9 -58.5t-9.5 -59.5t-27 -58t-42 -50.5t-55.5 -38l116 -236q24 -3 46 -7.5t41 -11.5q0 -12 -1.5 -26t-5.5 -22q-25 1 -54 1h-58h-37zM327 608q-26 0 -57.5 -1t-57.5 -2v-249 q23 -2 43.5 -3t42.5 -1q18 0 35.5 3t32 7t24 7.5t11.5 5.5q21 16 32 42t11 58q0 61 -31.5 97t-85.5 36zM336 -210q-20 0 -38 14.5t-18 37.5q0 12 5 24.5t14 23t20.5 17.5t25.5 7q21 0 38.5 -14.5t17.5 -36.5q0 -13 -5 -26t-13.5 -23.5t-20.5 -17t-26 -6.5z" />
<glyph unicode="&#x1e5b;" horiz-adv-x="563" d="M280 206q-17 0 -36.5 1.5t-38.5 3.5v-92q0 -16 1 -31.5t3 -29.5q18 -2 35 -5.5t32 -8.5q1 -12 -0.5 -23t-4.5 -22q-10 1 -23.5 1.5t-28.5 0.5h-30h-27q-31 0 -58 -1t-54 -1q-7 21 -7 45q34 3 72 14q4 14 4.5 30t0.5 31v217q0 33 -1.5 57t-3.5 44q-38 11 -72 14q0 24 7 45 q27 0 54 -1t58 -1q43 0 84 2t72 2q43 0 73 -10.5t49 -28t27.5 -39.5t8.5 -45q0 -45 -29 -85.5t-77 -63.5l92 -168q20 -2 38.5 -5.5t33.5 -8.5q0 -11 -1 -23.5t-4 -21.5q-23 1 -48 1h-50h-37zM293 439q-20 0 -44 -0.5t-44 -1.5v-168q15 -1 30.5 -1.5t32.5 -0.5q15 0 29 2 t25.5 4.5t19 5t9.5 3.5q35 25 35 71q0 36 -24.5 61t-68.5 25zM306 -210q-20 0 -38 14.5t-18 37.5q0 12 5 24.5t14 23t20.5 17.5t25.5 7q21 0 38.5 -14.5t17.5 -36.5q0 -13 -5 -26t-13.5 -23.5t-20.5 -17t-26 -6.5z" />
<glyph unicode="&#x1e5c;" horiz-adv-x="617" d="M310 282q-21 0 -47 1.5t-51 5.5v-140q0 -22 1 -42.5t3 -40.5q23 -2 43 -7t38 -12q1 -26 -6 -48q-11 1 -27 1.5t-33.5 0.5h-34.5h-29q-33 0 -64 -1t-63 -1q-5 12 -6.5 24t-1.5 24q22 2 43.5 7t43.5 12q4 24 4.5 51t0.5 52v297q0 45 -1.5 77.5t-3.5 60.5q-22 7 -43.5 12 t-43.5 7q0 12 1.5 24t6.5 24q32 0 63 -1t64 -1q54 0 102.5 2t84.5 2q52 0 87 -15t56 -38.5t30 -53t9 -58.5t-9.5 -59.5t-27 -58t-42 -50.5t-55.5 -38l116 -236q24 -3 46 -7.5t41 -11.5q0 -12 -1.5 -26t-5.5 -22q-25 1 -54 1h-58h-37zM327 608q-26 0 -57.5 -1t-57.5 -2v-249 q23 -2 43.5 -3t42.5 -1q18 0 35.5 3t32 7t24 7.5t11.5 5.5q21 16 32 42t11 58q0 61 -31.5 97t-85.5 36zM436 809q12 -33 0 -65h-283q-5 16 -5 32.5t5 32.5h283zM336 -210q-20 0 -38 14.5t-18 37.5q0 12 5 24.5t14 23t20.5 17.5t25.5 7q21 0 38.5 -14.5t17.5 -36.5 q0 -13 -5 -26t-13.5 -23.5t-20.5 -17t-26 -6.5z" />
<glyph unicode="&#x1e5d;" horiz-adv-x="563" d="M280 206q-17 0 -36.5 1.5t-38.5 3.5v-92q0 -16 1 -31.5t3 -29.5q18 -2 35 -5.5t32 -8.5q1 -12 -0.5 -23t-4.5 -22q-10 1 -23.5 1.5t-28.5 0.5h-30h-27q-31 0 -58 -1t-54 -1q-7 21 -7 45q34 3 72 14q4 14 4.5 30t0.5 31v217q0 33 -1.5 57t-3.5 44q-38 11 -72 14q0 24 7 45 q27 0 54 -1t58 -1q43 0 84 2t72 2q43 0 73 -10.5t49 -28t27.5 -39.5t8.5 -45q0 -45 -29 -85.5t-77 -63.5l92 -168q20 -2 38.5 -5.5t33.5 -8.5q0 -11 -1 -23.5t-4 -21.5q-23 1 -48 1h-50h-37zM293 439q-20 0 -44 -0.5t-44 -1.5v-168q15 -1 30.5 -1.5t32.5 -0.5q15 0 29 2 t25.5 4.5t19 5t9.5 3.5q35 25 35 71q0 36 -24.5 61t-68.5 25zM405 642q12 -34 0 -67h-275q-5 17 -5 33.5t5 33.5h275zM306 -210q-20 0 -38 14.5t-18 37.5q0 12 5 24.5t14 23t20.5 17.5t25.5 7q21 0 38.5 -14.5t17.5 -36.5q0 -13 -5 -26t-13.5 -23.5t-20.5 -17t-26 -6.5z" />
<glyph unicode="&#x1e62;" horiz-adv-x="544" d="M48 29q3 86 24 172q14 4 27 2.5t26 -6.5q2 -28 5 -58.5t9 -63.5q27 -9 59.5 -13.5t75.5 -4.5q18 0 34.5 3t29.5 7.5t21.5 8.5t10.5 6q34 33 34 102q0 19 -8.5 36t-22.5 31t-32 24.5t-37 17.5l-73 28q-28 10 -58 24.5t-55 35t-41 48.5t-16 66q0 52 21 88.5t54 59t73 32.5 t78 10q45 0 98 -9t95 -26q-1 -42 -6.5 -79.5t-15.5 -72.5q-31 -8 -52 4q-2 26 -5.5 50t-9.5 48q-25 7 -54 10t-61 3q-35 0 -62.5 -6t-32.5 -10q-13 -11 -21 -28t-8 -43q0 -22 9.5 -40t24.5 -32t33.5 -24.5t36.5 -16.5l86 -31q28 -10 56 -25t50 -36t35.5 -48.5t13.5 -62.5 q0 -47 -16 -88t-45.5 -71.5t-72 -48t-95.5 -17.5q-66 0 -124 12t-96 32zM259 -210q-20 0 -38 14.5t-18 37.5q0 12 5 24.5t14 23t20.5 17.5t25.5 7q21 0 38.5 -14.5t17.5 -36.5q0 -13 -5 -26t-13.5 -23.5t-20.5 -17t-26 -6.5z" />
<glyph unicode="&#x1e63;" horiz-adv-x="490" d="M53 23q2 37 6.5 69.5t13.5 64.5q26 7 54 -4q1 -20 3.5 -42t7.5 -46q21 -7 46.5 -10.5t58.5 -3.5q28 0 50 7t26 10q26 20 26 65q0 27 -25 45.5t-59 30.5l-61 22q-23 8 -46.5 19t-43.5 26.5t-32.5 36t-12.5 49.5q0 39 17.5 66.5t45.5 45t62 25t67 7.5q38 0 83.5 -7 t80.5 -20q-1 -35 -5 -63.5t-12 -54.5q-31 -8 -52 3q-2 18 -4.5 36t-7.5 35q-20 5 -42.5 7.5t-48.5 2.5t-47.5 -4.5t-25.5 -6.5q-10 -7 -16 -19t-6 -29q0 -15 8 -27t20 -21t27 -16t30 -12l69 -25q23 -8 45.5 -19.5t40.5 -26.5t29 -35.5t11 -46.5q0 -35 -13 -65.5t-38 -53.5 t-61 -36t-82 -13q-56 0 -105.5 9t-81.5 25zM230 -210q-20 0 -38 14.5t-18 37.5q0 12 5 24.5t14 23t20.5 17.5t25.5 7q21 0 38.5 -14.5t17.5 -36.5q0 -13 -5 -26t-13.5 -23.5t-20.5 -17t-26 -6.5z" />
<glyph unicode="&#x1e6c;" horiz-adv-x="606" d="M347 605v-456q0 -22 1 -42.5t3 -40.5q28 -2 53 -7t48 -12q2 -27 -7 -48q-12 1 -30.5 1.5t-39 0.5h-40h-33.5q-38 0 -73 -1t-73 -1q-5 12 -7 24t-2 24q27 2 53.5 7t53.5 12q3 14 4 29.5t1 31.5v478h-165q-7 -30 -10.5 -61t-5.5 -61q-14 -5 -26.5 -5t-26.5 5q-12 87 -9 180 l8 8q23 -1 53 -1.5t61.5 -0.5h63h57.5h88h57.5h63t61.5 0.5t53 1.5l8 -8q3 -90 -9 -180q-31 -9 -53 0q-2 31 -5.5 62t-10.5 60h-165zM299 -210q-20 0 -38 14.5t-18 37.5q0 12 5 24.5t14 23t20.5 17.5t25.5 7q21 0 38.5 -14.5t17.5 -36.5q0 -13 -5 -26t-13.5 -23.5t-20.5 -17 t-26 -6.5z" />
<glyph unicode="&#x1e6d;" horiz-adv-x="551" d="M318 437v-318q0 -33 3 -61q24 -2 45.5 -5.5t40.5 -8.5q2 -25 -5 -45q-12 1 -28 1.5t-33.5 0.5h-35h-31.5q-35 0 -66 -1t-63 -1q-5 11 -6 22.5t-1 22.5q23 2 45.5 5.5t45.5 8.5q4 19 4 45v334h-129q-5 -23 -8 -47t-5 -47q-26 -7 -54 0q-5 33 -6.5 67.5t-1.5 77.5l8 8 q19 -1 44 -1.5t51.5 -0.5h53h48.5h82h48.5h53t51.5 0.5t44 1.5l8 -8q0 -42 -1.5 -76.5t-7.5 -68.5q-30 -7 -53 0q-2 23 -5 47t-8 47h-128zM271 -185q-20 0 -38 14.5t-18 37.5q0 12 5 24.5t14 23t20.5 17.5t25.5 7q21 0 38.5 -14.5t17.5 -36.5q0 -13 -5 -26t-13.5 -23.5 t-20.5 -17t-26 -6.5z" />
<glyph unicode="&#x1e80;" horiz-adv-x="962" d="M85 604q-20 7 -40 12t-40 7q0 12 1.5 24t6.5 24q32 0 63 -1t64 -1h29h34.5t33.5 0.5t27 1.5q7 -23 6 -48l-88 -19l113 -439l5 -85h1l154 582q18 7 39 10t43 3l129 -510l6 -85h1l133 524l-94 19q0 12 1.5 24t6.5 24q32 0 61 -1t54 -1h23.5h30t31 0.5t26.5 1.5q7 -23 6 -48 q-17 -7 -35.5 -12t-38.5 -7l-158 -595q-20 -8 -47.5 -11t-52.5 -3l-119 471l-4 101h-1l-145 -558q-20 -8 -50 -11t-55 -3zM572 768q-3 -10 -8.5 -20.5t-13.5 -18.5l-211 95l-5 20q9 18 22.5 31.5t36.5 26.5z" />
<glyph unicode="&#x1e81;" horiz-adv-x="846" d="M91 437q-35 11 -67 14q0 11 1 22.5t5 22.5q27 0 54.5 -1t57.5 -1h27h30t28.5 0.5t23.5 1.5q6 -22 5 -45l-72 -13l87 -293l4 -71h1l122 414q17 5 38.5 8t42.5 3l103 -353l4 -71h1l104 364l-78 12q0 24 7 45q26 0 50.5 -1t48.5 -1h47t48 2q3 -11 4 -22t1 -23 q-14 -5 -30 -8.5t-33 -5.5l-127 -429q-17 -6 -43.5 -9t-49.5 -3l-96 319l-4 78h-1l-115 -385q-17 -6 -45.5 -9t-51.5 -3zM294 721l5 19q20 11 40.5 15.5t42.5 5.5l117 -184q-12 -21 -40 -26z" />
<glyph unicode="&#x1e82;" horiz-adv-x="962" d="M85 604q-20 7 -40 12t-40 7q0 12 1.5 24t6.5 24q32 0 63 -1t64 -1h29h34.5t33.5 0.5t27 1.5q7 -23 6 -48l-88 -19l113 -439l5 -85h1l154 582q18 7 39 10t43 3l129 -510l6 -85h1l133 524l-94 19q0 12 1.5 24t6.5 24q32 0 61 -1t54 -1h23.5h30t31 0.5t26.5 1.5q7 -23 6 -48 q-17 -7 -35.5 -12t-38.5 -7l-158 -595q-20 -8 -47.5 -11t-52.5 -3l-119 471l-4 101h-1l-145 -558q-20 -8 -50 -11t-55 -3zM605 897q29 -17 51 -57l-3 -20l-213 -93q-8 7 -13 18t-8 22z" />
<glyph unicode="&#x1e83;" horiz-adv-x="846" d="M91 437q-35 11 -67 14q0 11 1 22.5t5 22.5q27 0 54.5 -1t57.5 -1h27h30t28.5 0.5t23.5 1.5q6 -22 5 -45l-72 -13l87 -293l4 -71h1l122 414q17 5 38.5 8t42.5 3l103 -353l4 -71h1l104 364l-78 12q0 24 7 45q26 0 50.5 -1t48.5 -1h47t48 2q3 -11 4 -22t1 -23 q-14 -5 -30 -8.5t-33 -5.5l-127 -429q-17 -6 -43.5 -9t-49.5 -3l-96 319l-4 78h-1l-115 -385q-17 -6 -45.5 -9t-51.5 -3zM485 742q25 7 49.5 9.5t49.5 2.5l8 -23l-179 -184q-25 6 -38 28z" />
<glyph unicode="&#x1e84;" horiz-adv-x="962" d="M85 604q-20 7 -40 12t-40 7q0 12 1.5 24t6.5 24q32 0 63 -1t64 -1h29h34.5t33.5 0.5t27 1.5q7 -23 6 -48l-88 -19l113 -439l5 -85h1l154 582q18 7 39 10t43 3l129 -510l6 -85h1l133 524l-94 19q0 12 1.5 24t6.5 24q32 0 61 -1t54 -1h23.5h30t31 0.5t26.5 1.5q7 -23 6 -48 q-17 -7 -35.5 -12t-38.5 -7l-158 -595q-20 -8 -47.5 -11t-52.5 -3l-119 471l-4 101h-1l-145 -558q-20 -8 -50 -11t-55 -3zM403 743q-18 0 -33.5 12.5t-15.5 30.5q0 23 16 44t42 21q17 0 32.5 -12.5t15.5 -32.5q0 -23 -16.5 -42.5t-40.5 -20.5zM586 743q-17 0 -32.5 12.5 t-15.5 30.5q0 11 4.5 22.5t12 21t18 15.5t22.5 6q19 0 34 -12.5t15 -32.5q0 -23 -16 -42.5t-42 -20.5z" />
<glyph unicode="&#x1e85;" horiz-adv-x="846" d="M91 437q-35 11 -67 14q0 11 1 22.5t5 22.5q27 0 54.5 -1t57.5 -1h27h30t28.5 0.5t23.5 1.5q6 -22 5 -45l-72 -13l87 -293l4 -71h1l122 414q17 5 38.5 8t42.5 3l103 -353l4 -71h1l104 364l-78 12q0 24 7 45q26 0 50.5 -1t48.5 -1h47t48 2q3 -11 4 -22t1 -23 q-14 -5 -30 -8.5t-33 -5.5l-127 -429q-17 -6 -43.5 -9t-49.5 -3l-96 319l-4 78h-1l-115 -385q-17 -6 -45.5 -9t-51.5 -3zM339 579q-19 0 -34.5 13t-15.5 32q0 12 4.5 23.5t12 21.5t18.5 16t24 6q18 0 34 -13.5t16 -33.5q0 -24 -17 -44t-42 -21zM520 579q-17 0 -33.5 13 t-16.5 32q0 12 4.5 23.5t12.5 21.5t19 16t23 6q20 0 35 -13.5t15 -33.5q0 -24 -16.5 -44t-42.5 -21z" />
<glyph unicode="&#x1ef2;" horiz-adv-x="650" d="M373 249v-100q0 -22 1 -42.5t3 -40.5q28 -2 53 -7t48 -12q2 -27 -7 -48q-12 1 -30.5 1.5t-39 0.5h-40h-33.5q-38 0 -73 -1t-73 -1q-5 12 -7 24t-2 24q27 2 53.5 7t53.5 12q3 14 4 29.5t1 31.5v109l-200 368q-20 7 -40 12t-40 7q0 12 1.5 24t6.5 24q32 0 64 -1t68 -1h31.5 h35t33.5 0.5t27 1.5q7 -23 6 -48l-88 -19l150 -279l152 279l-94 19q0 12 1.5 24t6.5 24q32 0 61 -1t55 -1h23.5h30.5t31.5 0.5t26.5 1.5q7 -23 6 -48q-17 -7 -35.5 -12t-38.5 -7zM413 768q-3 -10 -8.5 -20.5t-13.5 -18.5l-211 95l-5 20q9 18 22.5 31.5t36.5 26.5z" />
</font>
</defs>
</svg>
